<svg width="2708" height="1212" viewBox="0 0 2708 1212" fill="none" xmlns="http://www.w3.org/2000/svg">
<rect width="2708" height="1212" fill="url(#paint0_linear)"/>
<g style="mix-blend-mode:multiply">
<path d="M1437.11 15.0627C1461.26 5.11727 1487.13 0 1513.25 0H2508C2618.46 0 2708 89.5431 2708 200V911.284C2708 1041.91 2564.09 1121.34 2453.56 1051.72V1051.72C2422.89 1032.4 2386.73 1023.65 2350.62 1026.81L1225.14 1125.36C1195.07 1128 1164.8 1123.79 1136.59 1113.06L779.712 977.311C702.112 947.793 650.818 873.402 650.818 790.378V472.751C650.818 391.704 699.729 318.67 774.672 287.814L1437.11 15.0627Z" fill="url(#paint1_linear)"/>
</g>
<defs>
<linearGradient id="paint0_linear" x1="855.289" y1="159.764" x2="1436.32" y2="1164.39" gradientUnits="userSpaceOnUse">
<stop offset="0.256818" stop-color="#0300A6"/>
<stop offset="1" stop-color="#3B4C9B"/>
</linearGradient>
<linearGradient id="paint1_linear" x1="1441.27" y1="-71.6182" x2="2006.16" y2="1245.61" gradientUnits="userSpaceOnUse">
<stop stop-color="#2B94B6"/>
<stop offset="1" stop-color="#FE4BE1" stop-opacity="0.99"/>
</linearGradient>
</defs>
</svg>
