<svg width="131" height="42" viewBox="0 0 131 42" fill="none" xmlns="http://www.w3.org/2000/svg">
<path d="M3.00001 36.5C1.6193 36.5 0.50001 37.6193 0.50001 39C0.50001 40.3807 1.6193 41.5 3.00001 41.5V36.5ZM31.2012 41.5C32.5819 41.5 33.7012 40.3807 33.7012 39C33.7012 37.6193 32.5819 36.5 31.2012 36.5V41.5ZM10.3918 3.7279C10.7938 2.40701 10.0489 1.01033 8.72804 0.608315C7.40715 0.206305 6.01046 0.951205 5.60845 2.2721L10.3918 3.7279ZM0.512535 29.2512C0.375148 30.6251 1.37751 31.8502 2.75137 31.9876C4.12523 32.125 5.35033 31.1226 5.48772 29.7488L0.512535 29.2512ZM15.4255 20.6063C15.7604 19.2669 14.946 17.9095 13.6065 17.5746C12.267 17.2398 10.9096 18.0542 10.5748 19.3937L15.4255 20.6063ZM9.01039 29.2737C8.88539 30.6487 9.89875 31.8647 11.2738 31.9897C12.6488 32.1147 13.8649 31.1014 13.9899 29.7263L9.01039 29.2737ZM11.551 14.243C11.6181 15.6221 12.7904 16.6857 14.1695 16.6186C15.5486 16.5515 16.6121 15.3791 16.5451 14.0001L11.551 14.243ZM16.2884 14.8253C17.2647 13.849 17.2646 12.2661 16.2883 11.2898C15.312 10.3135 13.7291 10.3135 12.7528 11.2898L16.2884 14.8253ZM27.5121 29.756C27.3773 31.1301 28.382 32.3533 29.7561 32.4881C31.1302 32.6228 32.3534 31.6181 32.4882 30.244L27.5121 29.756ZM25.9484 15.8246C26.4039 14.5212 25.7164 13.0954 24.413 12.6399C23.1096 12.1845 21.6837 12.8719 21.2283 14.1754L25.9484 15.8246ZM22.7272 18.3333L20.2839 17.8041L22.7272 18.3333ZM18.5121 29.756C18.3773 31.1301 19.382 32.3533 20.7561 32.4881C22.1302 32.6228 23.3534 31.6181 23.4882 30.244L18.5121 29.756ZM78.5079 30.8034C78.3993 32.1798 79.4271 33.3837 80.8035 33.4923C82.18 33.6009 83.3838 32.5731 83.4924 31.1966L78.5079 30.8034ZM76.8565 16.7955C77.2958 15.4866 76.5909 14.0693 75.2819 13.6299C73.973 13.1906 72.5557 13.8955 72.1164 15.2045L76.8565 16.7955ZM73.6592 19.3333L71.2116 18.8241L73.6592 19.3333ZM69.5112 30.7655C69.3817 32.1401 70.391 33.3595 71.7657 33.489C73.1403 33.6185 74.3596 32.6091 74.4891 31.2345L69.5112 30.7655ZM87.506 30.8299C87.412 32.2074 88.4525 33.4003 89.83 33.4942C91.2076 33.5882 92.4004 32.5476 92.4944 31.1701L87.506 30.8299ZM55.5244 23.5078L57.9929 23.9038L55.5244 23.5078ZM62.3965 17.0078L62.3965 19.5078L62.3965 17.0078ZM39.0188 23.759L36.5539 23.3419L39.0188 23.759ZM45.6402 17L45.6402 14.5L45.6402 17ZM42.5369 31L42.537 28.5H42.5369V31ZM47.5002 29L45.1943 28.034L47.5002 29ZM45.6402 35.8287L43.2115 35.236L43.2115 35.236L45.6402 35.8287ZM36.9206 36.5013C35.5406 36.5452 34.4575 37.6995 34.5014 39.0795C34.5454 40.4596 35.6997 41.5427 37.0797 41.4987L36.9206 36.5013ZM115.613 21.8979L113.142 21.5163L115.613 21.8979ZM126.299 23.7184L123.906 22.9943L123.906 22.9943L126.299 23.7184ZM98.5244 23.5078L100.993 23.9038L98.5244 23.5078ZM105.397 17.0078L105.397 19.5078L105.397 17.0078ZM3.00001 41.5H31.2012V36.5H3.00001V41.5ZM5.60845 2.2721C3.80841 8.18651 2.53711 14.9443 1.71774 20.1756C1.30647 22.8015 1.00591 25.0635 0.807937 26.671C0.708914 27.475 0.635458 28.1162 0.586571 28.5582C0.562126 28.7792 0.543817 28.9504 0.53152 29.0674C0.525372 29.1259 0.520726 29.1709 0.517567 29.2017C0.515987 29.2171 0.51478 29.229 0.513942 29.2373C0.513523 29.2414 0.513196 29.2447 0.512962 29.247C0.512845 29.2482 0.51275 29.2491 0.512679 29.2498C0.512644 29.2502 0.512608 29.2505 0.51259 29.2507C0.51256 29.251 0.512535 29.2512 3.00013 29.5C5.48772 29.7488 5.48771 29.7489 5.4877 29.749C5.48771 29.7489 5.4877 29.7489 5.48771 29.7488C5.48773 29.7486 5.48778 29.7482 5.48784 29.7475C5.48798 29.7462 5.4882 29.744 5.48851 29.7409C5.48915 29.7347 5.49014 29.7248 5.49151 29.7115C5.49424 29.6849 5.49844 29.6442 5.50414 29.59C5.51552 29.4817 5.53286 29.3195 5.55626 29.1079C5.60308 28.6846 5.67416 28.064 5.77045 27.2821C5.9631 25.7178 6.25629 23.511 6.65752 20.9494C7.46316 15.8057 8.69186 9.31349 10.3918 3.7279L5.60845 2.2721ZM13.0001 20C10.5748 19.3937 10.5747 19.3939 10.5746 19.3942C10.5746 19.3943 10.5745 19.3946 10.5745 19.3948C10.5744 19.3953 10.5742 19.3958 10.5741 19.3963C10.5738 19.3975 10.5735 19.3989 10.5731 19.4005C10.5723 19.4038 10.5712 19.408 10.5699 19.4132C10.5674 19.4236 10.5639 19.4378 10.5595 19.4559C10.5507 19.492 10.5384 19.5432 10.5229 19.6089C10.4919 19.7404 10.4482 19.9301 10.3946 20.173C10.2876 20.6587 10.1413 21.3583 9.97942 22.2323C9.6561 23.9782 9.2688 26.4312 9.01039 29.2737L13.9899 29.7263C14.2315 27.0688 14.5942 24.7718 14.8958 23.1427C15.0465 22.3292 15.1814 21.685 15.2775 21.2489C15.3255 21.0309 15.3638 20.8651 15.3895 20.7563C15.4023 20.7019 15.4119 20.6619 15.4181 20.6366C15.4211 20.624 15.4233 20.6152 15.4246 20.6101C15.4252 20.6076 15.4256 20.606 15.4257 20.6053C15.4258 20.605 15.4258 20.6049 15.4258 20.6051C15.4258 20.6052 15.4257 20.6053 15.4257 20.6055C15.4257 20.6056 15.4256 20.6058 15.4256 20.6059C15.4255 20.6061 15.4255 20.6063 13.0001 20ZM14.048 14.1215C16.5451 14.0001 16.5451 14.0012 16.5452 14.0023C16.5452 14.0027 16.5452 14.0038 16.5453 14.0046C16.5453 14.0061 16.5454 14.0076 16.5455 14.009C16.5456 14.012 16.5457 14.015 16.5459 14.0179C16.5461 14.0238 16.5463 14.0296 16.5465 14.0353C16.5469 14.0467 16.5472 14.0579 16.5474 14.0687C16.5478 14.0904 16.5478 14.1111 16.5476 14.1308C16.547 14.1702 16.5452 14.2066 16.5423 14.2407C16.5365 14.3077 16.5258 14.3725 16.5083 14.4364C16.4715 14.5709 16.4001 14.7136 16.2884 14.8253L12.7528 11.2898C12.1411 11.9015 11.8334 12.5763 11.6853 13.1177C11.6122 13.3851 11.5771 13.6222 11.5608 13.8105C11.5526 13.9053 11.549 13.9897 11.548 14.0618C11.5475 14.098 11.5477 14.1312 11.5483 14.1615C11.5485 14.1766 11.5489 14.1909 11.5494 14.2045C11.5496 14.2113 11.5499 14.2179 11.5501 14.2244C11.5503 14.2276 11.5504 14.2307 11.5505 14.2338C11.5506 14.2354 11.5507 14.2369 11.5507 14.2385C11.5508 14.2392 11.5508 14.2404 11.5509 14.2408C11.5509 14.2419 11.551 14.243 14.048 14.1215ZM30.6134 16.2532C30.1949 16.5322 29.615 16.9745 29.1852 17.8155C28.8421 18.4868 28.674 19.2665 28.5456 20.058C28.2834 21.6745 28.0224 24.5531 27.5121 29.756L32.4882 30.244C33.0132 24.8913 33.2522 22.2699 33.4811 20.8587C33.5983 20.1362 33.6736 20.0201 33.6375 20.0908C33.5147 20.3311 33.3054 20.4678 33.3869 20.4135L30.6134 16.2532ZM23.5884 15C21.2283 14.1754 21.2282 14.1757 21.2281 14.176C21.228 14.1761 21.2279 14.1764 21.2279 14.1766C21.2277 14.177 21.2275 14.1775 21.2274 14.1779C21.2271 14.1789 21.2267 14.1798 21.2264 14.1809C21.2256 14.183 21.2248 14.1853 21.2239 14.188C21.2221 14.1932 21.22 14.1994 21.2175 14.2067C21.2125 14.2213 21.2062 14.24 21.1987 14.2628C21.1835 14.3085 21.1632 14.371 21.1383 14.4505C21.0883 14.6094 21.0197 14.8367 20.9361 15.1352C20.7689 15.7321 20.5417 16.6138 20.2839 17.8041L25.1706 18.8626C25.4079 17.767 25.6112 16.9821 25.7508 16.4838C25.8206 16.2347 25.8744 16.0572 25.9086 15.9483C25.9257 15.8939 25.9379 15.8566 25.9447 15.8361C25.9481 15.8259 25.9501 15.8198 25.9508 15.8179C25.9511 15.817 25.9511 15.8171 25.9507 15.8182C25.9505 15.8188 25.9502 15.8196 25.9498 15.8206C25.9496 15.8212 25.9494 15.8218 25.9492 15.8225C25.9491 15.8228 25.949 15.8231 25.9488 15.8235C25.9488 15.8237 25.9487 15.824 25.9486 15.8241C25.9485 15.8243 25.9484 15.8246 23.5884 15ZM20.2839 17.8041C19.7374 20.3269 19.0535 24.2356 18.5121 29.756L23.4882 30.244C24.0121 24.9024 24.6676 21.1847 25.1706 18.8626L20.2839 17.8041ZM33.3869 20.4135C33.538 20.3127 33.9613 20.0173 34.2606 19.4638C34.4294 19.1515 34.5773 18.7211 34.5683 18.2047C34.5591 17.6785 34.3898 17.2248 34.1666 16.876C33.775 16.2641 33.2399 15.9988 33.0649 15.9166C32.8289 15.8057 32.6159 15.7463 32.4862 15.7143C32.0241 15.6006 31.4698 15.5692 31.068 15.5539C30.1485 15.5189 28.8807 15.5429 27.6535 15.5848C26.4078 15.6273 25.136 15.6908 24.1795 15.7434C23.7003 15.7697 23.2981 15.7934 23.0153 15.8106C22.8738 15.8192 22.762 15.8261 22.6853 15.8309C22.647 15.8334 22.6173 15.8352 22.5971 15.8365C22.587 15.8372 22.5793 15.8377 22.5739 15.838C22.5713 15.8382 22.5692 15.8383 22.5678 15.8384C22.5671 15.8385 22.5665 15.8385 22.5661 15.8385C22.5659 15.8385 22.5657 15.8386 22.5656 15.8386C22.5654 15.8386 22.5653 15.8386 22.7272 18.3333C22.8891 20.8281 22.8891 20.8281 22.8891 20.8281C22.8892 20.8281 22.8892 20.8281 22.8893 20.8281C22.8895 20.8281 22.8899 20.828 22.8904 20.828C22.8915 20.8279 22.8931 20.8278 22.8954 20.8277C22.9 20.8274 22.9069 20.8269 22.9162 20.8263C22.9348 20.8252 22.9628 20.8234 22.9994 20.8211C23.0727 20.8165 23.1806 20.8097 23.3181 20.8014C23.5931 20.7847 23.9857 20.7616 24.454 20.7358C25.3924 20.6842 26.6263 20.6227 27.8239 20.5819C29.0399 20.5404 30.1528 20.5227 30.8782 20.5503C31.2989 20.5663 31.3831 20.5921 31.2914 20.5695C31.2543 20.5604 31.1171 20.5258 30.9389 20.4421C30.8216 20.387 30.3262 20.1511 29.955 19.571C29.742 19.238 29.5779 18.8007 29.569 18.2916C29.5604 17.7923 29.7035 17.3795 29.8624 17.0856C30.142 16.5686 30.5247 16.3123 30.6134 16.2532L33.3869 20.4135ZM82.5002 19.3333C80.0502 18.8358 80.0501 18.836 80.0501 18.8363C80.0501 18.8364 80.05 18.8366 80.05 18.8369C80.0499 18.8373 80.0498 18.8378 80.0497 18.8384C80.0494 18.8395 80.0491 18.8409 80.0488 18.8426C80.0481 18.8461 80.0472 18.8506 80.046 18.8563C80.0438 18.8677 80.0406 18.8835 80.0366 18.9038C80.0286 18.9445 80.0172 19.0028 80.0028 19.0784C79.9739 19.2294 79.9329 19.4492 79.8822 19.7332C79.781 20.301 79.6415 21.1259 79.4849 22.1712C79.1717 24.2608 78.7893 27.2362 78.5079 30.8034L83.4924 31.1966C83.7633 27.7638 84.1309 24.9059 84.4297 22.9122C84.579 21.9158 84.7109 21.1365 84.8047 20.6106C84.8515 20.3477 84.8888 20.1482 84.9139 20.0167C84.9265 19.951 84.936 19.9022 84.9422 19.8711C84.9452 19.8555 84.9475 19.8443 84.9488 19.8376C84.9495 19.8342 84.9499 19.832 84.9502 19.8309C84.9503 19.8303 84.9503 19.83 84.9503 19.83C84.9503 19.83 84.9503 19.8301 84.9503 19.8302C84.9503 19.8303 84.9502 19.8305 84.9502 19.8305C84.9502 19.8307 84.9501 19.8309 82.5002 19.3333ZM74.4864 16C72.1164 15.2045 72.1163 15.2048 72.1162 15.2051C72.1161 15.2052 72.116 15.2055 72.116 15.2057C72.1158 15.2061 72.1157 15.2066 72.1155 15.207C72.1152 15.2079 72.1149 15.2089 72.1145 15.2099C72.1139 15.2119 72.1131 15.2143 72.1122 15.2168C72.1105 15.222 72.1085 15.2281 72.1062 15.2353C72.1015 15.2497 72.0955 15.2682 72.0882 15.2909C72.0738 15.3363 72.0544 15.3983 72.0305 15.4775C71.9828 15.6357 71.9171 15.8622 71.837 16.1599C71.6768 16.7553 71.4589 17.6355 71.2116 18.8241L76.1068 19.8426C76.3351 18.7454 76.5308 17.9589 76.6653 17.4591C76.7325 17.2092 76.7845 17.0309 76.8175 16.9213C76.8341 16.8665 76.8459 16.8289 76.8525 16.8081C76.8558 16.7976 76.8579 16.7914 76.8585 16.7893C76.8589 16.7883 76.8589 16.7883 76.8585 16.7893C76.8584 16.7898 76.8581 16.7906 76.8578 16.7916C76.8576 16.7922 76.8574 16.7927 76.8572 16.7934C76.8571 16.7937 76.857 16.794 76.8568 16.7944C76.8568 16.7946 76.8567 16.7949 76.8567 16.7949C76.8566 16.7952 76.8565 16.7955 74.4864 16ZM71.2116 18.8241C70.6874 21.3434 70.031 25.2486 69.5112 30.7655L74.4891 31.2345C74.9927 25.8894 75.6229 22.1682 76.1068 19.8426L71.2116 18.8241ZM82.5002 16.8333H73.6592V21.8333H82.5002V16.8333ZM82.5002 21.8333C84.6438 21.8333 87.1648 21.7367 89.1448 21.8305C89.6183 21.853 90.0153 21.8851 90.3302 21.9262C90.4862 21.9466 90.6081 21.9674 90.6994 21.9866C90.7941 22.0065 90.8315 22.0196 90.8269 22.018C90.8229 22.0166 90.798 22.0077 90.7581 21.9885C90.719 21.9698 90.652 21.9349 90.5692 21.8782C90.419 21.7755 90.1014 21.5217 89.8839 21.0502C89.3192 19.8255 90.0648 18.9139 90.1359 18.8343L93.8644 22.1657C94.283 21.6972 95.1167 20.4575 94.4244 18.9564C93.9024 17.8242 92.8355 17.4251 92.4962 17.3049C91.5919 16.9846 90.3897 16.8839 89.3815 16.8361C87.2585 16.7355 84.3345 16.8333 82.5002 16.8333V21.8333ZM90.1359 18.8343C89.6531 19.3746 89.361 20.0292 89.1786 20.5087C88.9767 21.0393 88.8099 21.6293 88.6697 22.2158C88.3887 23.3919 88.169 24.7505 88.0012 26.0007C87.8319 27.2618 87.7085 28.4656 87.6276 29.3504C87.587 29.7941 87.5568 30.1605 87.5367 30.4174C87.5267 30.5459 87.5191 30.6472 87.514 30.7172C87.5114 30.7523 87.5095 30.7795 87.5081 30.7984C87.5075 30.8079 87.507 30.8153 87.5066 30.8206C87.5064 30.8232 87.5063 30.8253 87.5062 30.8268C87.5061 30.8276 87.5061 30.8283 87.506 30.8288C87.506 30.829 87.506 30.8293 87.506 30.8294C87.506 30.8297 87.506 30.8299 90.0002 31C92.4944 31.1701 92.4944 31.1703 92.4943 31.1704C92.4943 31.1704 92.4943 31.1704 92.4943 31.1704C92.4943 31.1704 92.4944 31.1702 92.4944 31.1699C92.4944 31.1693 92.4945 31.1681 92.4946 31.1665C92.4949 31.1631 92.4952 31.1576 92.4958 31.1501C92.4968 31.1351 92.4985 31.112 92.5007 31.0811C92.5052 31.0194 92.5121 30.927 92.5215 30.8079C92.5401 30.5695 92.5685 30.225 92.6068 29.8058C92.6837 28.965 92.7997 27.8354 92.9567 26.6659C93.1151 25.4856 93.3086 24.3164 93.5328 23.3779C93.6453 22.9072 93.7542 22.5431 93.8517 22.2868C93.9687 21.9795 93.9997 22.0143 93.8644 22.1657L90.1359 18.8343ZM53.056 23.1118C52.7745 24.8662 52.5738 26.3302 52.517 27.5128C52.4632 28.6325 52.5098 29.8802 53.0346 30.9686C53.6674 32.2811 54.768 32.9431 55.8813 33.2373C56.8307 33.4883 57.9247 33.5078 58.8932 33.5078V28.5078C57.8601 28.5078 57.3918 28.4649 57.1588 28.4033C57.0896 28.385 57.3877 28.4846 57.5384 28.797C57.581 28.8854 57.4659 28.6956 57.5112 27.7528C57.5535 26.8729 57.7128 25.6494 57.9929 23.9038L53.056 23.1118ZM58.8932 33.5078C60.7158 33.5078 62.9194 33.4997 64.4966 31.7378C65.1794 30.9751 65.6029 30.0382 65.9387 29.1486C66.2804 28.2436 66.6348 27.0892 67.0534 25.7572L62.2833 24.2584C61.8377 25.6764 61.5387 26.6471 61.2609 27.3827C60.9775 28.1337 60.8159 28.353 60.7712 28.4029C60.7683 28.4062 60.7878 28.3864 60.8167 28.3705C60.838 28.3587 60.8136 28.3777 60.696 28.404C60.4022 28.4697 59.9021 28.5078 58.8932 28.5078V33.5078ZM67.0534 25.7572C67.4652 24.4467 67.892 23.1604 68.1798 22.0826C68.4577 21.0421 68.7161 19.8271 68.5914 18.6761C68.4429 17.3047 67.7482 16.0462 66.3555 15.2884C65.2013 14.6604 63.7895 14.5078 62.3965 14.5078L62.3965 19.5078C62.9457 19.5078 63.3388 19.5419 63.6128 19.5893C63.8903 19.6374 63.9798 19.688 63.9658 19.6803C63.93 19.6609 63.814 19.5824 63.7148 19.4256C63.6221 19.2792 63.6166 19.1786 63.6205 19.2145C63.638 19.376 63.6096 19.8173 63.3491 20.7924C63.0987 21.7303 62.7356 22.819 62.2833 24.2584L67.0534 25.7572ZM62.3965 14.5078C61.2434 14.5078 60.0464 14.474 59.1192 14.5467C58.1362 14.6238 56.9413 14.8416 55.8927 15.682C54.8597 16.5098 54.3219 17.6578 53.9657 18.7869C53.6089 19.9178 53.3366 21.3626 53.056 23.1118L57.9929 23.9038C58.2737 22.153 58.4993 21.0353 58.7341 20.2912C58.9694 19.5453 59.1167 19.5058 59.0196 19.5836C58.9068 19.674 58.8985 19.5793 59.51 19.5314C60.1771 19.4791 60.9824 19.5078 62.3965 19.5078L62.3965 14.5078ZM36.5539 23.3419C36.2666 25.0391 36.0628 26.4666 36.0094 27.6269C35.9587 28.7269 36.0151 29.9783 36.5847 31.0704C37.2598 32.3646 38.3902 32.9765 39.4721 33.2453C40.4176 33.4802 41.5104 33.5 42.5002 33.5V28.5C41.4509 28.5 40.9461 28.4595 40.6778 28.3929C40.5458 28.3601 40.8463 28.4291 41.0178 28.7579C41.0839 28.8846 40.963 28.7482 41.0041 27.8569C41.0423 27.0259 41.1991 25.8585 41.4838 24.1762L36.5539 23.3419ZM51.4161 24.4017C51.9091 22.5487 52.3881 20.172 51.694 18.156C51.3016 17.0163 50.5478 16.0182 49.3816 15.3546C48.2797 14.7277 46.9885 14.5 45.6402 14.5L45.6402 19.5C46.4718 19.5 46.8156 19.6473 46.9088 19.7003C46.9375 19.7167 46.9388 19.7036 46.9663 19.7837C47.0181 19.9339 47.0759 20.2706 47.0201 20.8942C46.9656 21.5029 46.817 22.2411 46.5842 23.1163L51.4161 24.4017ZM45.6402 14.5C44.6127 14.5 43.5233 14.4944 42.5719 14.631C41.5504 14.7776 40.4491 15.1146 39.4789 15.9619C38.5423 16.7799 37.9716 17.8627 37.5641 19.0232C37.1582 20.179 36.8461 21.6152 36.5539 23.3419L41.4838 24.1762C41.7635 22.5233 42.02 21.4249 42.2817 20.6797C42.5417 19.9392 42.7373 19.7547 42.768 19.7278C42.7806 19.7168 42.7996 19.7013 42.8553 19.6792C42.9219 19.6527 43.0497 19.6136 43.2823 19.5802C43.8024 19.5056 44.4877 19.5 45.6402 19.5L45.6402 14.5ZM42.5002 33.5H42.5369V28.5H42.5002V33.5ZM42.5369 33.5C43.8274 33.5 45.3391 33.5296 46.5761 33.1277C47.2994 32.8928 47.9801 32.5071 48.5693 31.9058C49.1346 31.3288 49.5188 30.6514 49.806 29.966L45.1943 28.034C45.0625 28.3486 44.9834 28.4213 44.9976 28.4068C45.0357 28.3679 45.0777 28.3573 45.0314 28.3723C44.9416 28.4015 44.7351 28.4469 44.2863 28.473C43.8369 28.4991 43.2929 28.5 42.537 28.5L42.5369 33.5ZM49.806 29.966C50.236 28.9396 50.4527 28.0233 51.4161 24.4017L46.5842 23.1163C45.5476 27.0128 45.4515 27.4202 45.1943 28.034L49.806 29.966ZM47.5002 29C45.1169 28.2449 45.1169 28.245 45.1168 28.2452C45.1168 28.2452 45.1168 28.2454 45.1167 28.2455C45.1167 28.2457 45.1166 28.246 45.1165 28.2463C45.1163 28.247 45.116 28.2478 45.1157 28.2488C45.1151 28.2507 45.1143 28.2533 45.1132 28.2565C45.1112 28.263 45.1084 28.272 45.1047 28.2836C45.0975 28.3067 45.0871 28.34 45.0738 28.3832C45.0471 28.4695 45.0085 28.5952 44.9593 28.7582C44.8609 29.0841 44.7202 29.5591 44.5475 30.1653C44.2023 31.3772 43.729 33.1154 43.2115 35.236L48.0689 36.4214C48.5694 34.3708 49.026 32.6946 49.3563 31.535C49.5214 30.9553 49.6548 30.5053 49.7461 30.2026C49.7918 30.0513 49.8269 29.9368 49.8502 29.8615C49.8619 29.8238 49.8706 29.7959 49.8762 29.7781C49.879 29.7692 49.881 29.7628 49.8822 29.759C49.8828 29.757 49.8832 29.7558 49.8834 29.7551C49.8835 29.7548 49.8835 29.7546 49.8835 29.7546C49.8835 29.7546 49.8835 29.7547 49.8835 29.7547C49.8835 29.7548 49.8835 29.7549 49.8835 29.7549C49.8834 29.755 49.8834 29.7551 47.5002 29ZM43.2115 35.236C42.9847 36.1653 42.7999 36.4367 42.7655 36.479C42.7631 36.4819 42.7704 36.4727 42.7878 36.4581C42.8055 36.4433 42.8239 36.4311 42.8388 36.4229C42.8689 36.4064 42.8468 36.4268 42.7147 36.4522C42.3774 36.5173 41.8502 36.5316 40.7867 36.511C39.8029 36.4919 38.5001 36.451 36.9206 36.5013L37.0797 41.4987C38.5003 41.4535 39.6502 41.4899 40.6898 41.51C41.6498 41.5286 42.7167 41.5441 43.6621 41.3617C44.7426 41.1532 45.8046 40.6659 46.6434 39.6352C47.3869 38.7217 47.7867 37.5777 48.0689 36.4214L43.2115 35.236ZM113.142 21.5163C112.813 23.6444 112.584 25.3911 112.519 26.7885C112.457 28.1231 112.519 29.507 113.067 30.6875C113.722 32.0983 114.875 32.8431 116.115 33.1833C117.176 33.4746 118.413 33.5 119.55 33.5V28.5C118.347 28.5 117.759 28.4496 117.438 28.3616C117.296 28.3226 117.511 28.3847 117.602 28.5819C117.607 28.5915 117.563 28.5006 117.532 28.2265C117.501 27.9536 117.488 27.5658 117.514 27.0197C117.565 25.9139 117.756 24.3991 118.084 22.2796L113.142 21.5163ZM119.55 33.5C121.72 33.5 124.117 33.4648 125.815 31.4945C126.548 30.6439 127.014 29.5862 127.4 28.5262C127.792 27.4481 128.2 26.0692 128.692 24.4424L123.906 22.9943C123.388 24.7049 123.033 25.905 122.701 26.818C122.362 27.749 122.145 28.0945 122.028 28.2299C122.026 28.2318 122.058 28.5 119.55 28.5V33.5ZM128.692 24.4424C129.178 22.8363 129.669 21.2991 130.001 20.0081C130.324 18.7523 130.598 17.3744 130.466 16.1015C130.312 14.6272 129.601 13.257 128.104 12.4113C126.839 11.6965 125.261 11.5095 123.644 11.5095L123.644 16.5095C125.027 16.5095 125.534 16.7018 125.644 16.7644C125.653 16.7693 125.581 16.7254 125.519 16.6222C125.464 16.5322 125.48 16.5019 125.492 16.6202C125.526 16.9402 125.465 17.5723 125.159 18.7627C124.862 19.9179 124.43 21.263 123.906 22.9943L128.692 24.4424ZM123.644 11.5095C122.279 11.5095 120.906 11.4688 119.839 11.5556C118.709 11.6477 117.401 11.9058 116.271 12.8464C115.17 13.7627 114.585 15.0381 114.185 16.3547C113.783 17.6802 113.47 19.3935 113.142 21.5163L118.084 22.2796C118.412 20.1548 118.681 18.7581 118.97 17.8081C119.11 17.3458 119.235 17.0609 119.332 16.887C119.378 16.8037 119.414 16.7537 119.436 16.7261C119.457 16.6996 119.469 16.6904 119.47 16.6896C119.47 16.6891 119.472 16.6873 119.481 16.6828C119.49 16.6776 119.517 16.6647 119.569 16.6481C119.683 16.612 119.885 16.5684 120.245 16.5392C121.042 16.4743 122.008 16.5095 123.644 16.5095L123.644 11.5095ZM96.056 23.1118C95.7745 24.8662 95.5738 26.3302 95.517 27.5128C95.4632 28.6325 95.5098 29.8802 96.0346 30.9686C96.6674 32.2811 97.768 32.9431 98.8813 33.2373C99.8307 33.4883 100.925 33.5078 101.893 33.5078V28.5078C100.86 28.5078 100.392 28.4649 100.159 28.4033C100.09 28.385 100.388 28.4846 100.538 28.797C100.581 28.8854 100.466 28.6956 100.511 27.7528C100.554 26.8729 100.713 25.6494 100.993 23.9038L96.056 23.1118ZM101.893 33.5078C103.716 33.5078 105.919 33.4997 107.497 31.7378C108.179 30.9751 108.603 30.0382 108.939 29.1486C109.28 28.2436 109.635 27.0892 110.053 25.7572L105.283 24.2584C104.838 25.6764 104.539 26.6471 104.261 27.3827C103.977 28.1337 103.816 28.353 103.771 28.4029C103.768 28.4062 103.788 28.3864 103.817 28.3705C103.838 28.3587 103.814 28.3777 103.696 28.404C103.402 28.4697 102.902 28.5078 101.893 28.5078V33.5078ZM110.053 25.7572C110.465 24.4467 110.892 23.1604 111.18 22.0826C111.458 21.0421 111.716 19.8271 111.591 18.6761C111.443 17.3047 110.748 16.0462 109.356 15.2884C108.201 14.6604 106.79 14.5078 105.397 14.5078L105.397 19.5078C105.946 19.5078 106.339 19.5419 106.613 19.5893C106.89 19.6374 106.98 19.688 106.966 19.6803C106.93 19.6609 106.814 19.5824 106.715 19.4256C106.622 19.2792 106.617 19.1786 106.62 19.2145C106.638 19.376 106.61 19.8173 106.349 20.7924C106.099 21.7303 105.736 22.819 105.283 24.2584L110.053 25.7572ZM105.397 14.5078C104.243 14.5078 103.046 14.474 102.119 14.5467C101.136 14.6238 99.9413 14.8416 98.8927 15.682C97.8597 16.5098 97.3219 17.6578 96.9657 18.7869C96.6089 19.9178 96.3366 21.3626 96.056 23.1118L100.993 23.9038C101.274 22.153 101.499 21.0353 101.734 20.2912C101.969 19.5453 102.117 19.5058 102.02 19.5836C101.907 19.674 101.899 19.5793 102.51 19.5314C103.177 19.4791 103.982 19.5078 105.397 19.5078L105.397 14.5078Z" fill="#81E7E7"/>
</svg>
