<svg width="148" height="84" viewBox="0 0 148 84" fill="none" xmlns="http://www.w3.org/2000/svg">
<path d="M75.8311 83.8227C71.7071 83.8227 67.7831 83.7227 64.3084 83.5734C59.0631 83.3467 54.8404 83.0414 52.4711 83.0414C51.8164 83.0414 51.3031 83.064 50.9498 83.1187C48.0364 82.3227 42.5724 81.4027 37.3258 80.268C34.2964 79.612 30.9551 78.8147 27.4551 77.708C25.7071 77.1547 23.9218 76.5267 22.1271 75.8067C6.47645 69.5307 -3.30088 57.18 1.02845 41.5094C4.35645 29.4614 23.8711 10.2414 48.1738 3.41203C49.8564 2.94003 51.4684 2.54535 52.9818 2.20535C58.5804 0.946688 62.8258 0.666683 64.2738 0.666683C64.3924 0.666683 64.4924 0.668021 64.5724 0.672021C67.1138 1.03202 65.0524 8.42136 63.7391 12.2627C67.5111 11.1147 71.3858 9.98002 75.0911 8.85602C75.0911 8.85602 75.3751 8.80403 75.9044 8.69603C76.4338 8.58803 77.2178 8.45735 78.2178 8.28669C80.2031 7.94935 83.1271 7.54801 86.6271 7.28135C88.5831 7.13201 90.5244 7.05869 92.4391 7.05869C126.351 7.05869 153.168 29.772 146.966 53.676C145.835 55.1027 143.502 64.364 137.576 66.9494C137.576 66.9494 132.655 70.4214 127.396 73.3374C123.82 75.3227 114.719 82.084 87.6071 83.5267C83.6431 83.7374 79.6511 83.8227 75.8311 83.8227V83.8227ZM39.2271 24.3534C29.2231 29.8134 19.9831 38.3534 17.6884 46.852C17.1738 47.1747 18.2484 48.5947 17.8391 48.716C17.5524 48.8374 17.2378 50.768 18.1978 52.7174C24.2071 64.9187 58.6884 67.4387 74.6324 67.4387C75.5138 67.4387 76.3378 67.432 77.0978 67.4174C83.9804 67.2894 89.2498 66.8667 94.6404 66.196C95.5018 66.0894 96.0711 66.052 96.4644 66.052C96.9298 66.052 97.1524 66.104 97.3298 66.156C97.5071 66.208 97.6378 66.26 97.9164 66.26C98.3164 66.26 99.0244 66.152 100.622 65.7814C110.756 63.4214 129.351 57.5294 130.744 47.6374C130.888 44.9667 130.054 41.616 128.982 39.216C128.502 38.1387 127.02 35.9027 124.391 33.5534C119.788 29.436 111.428 25.4054 101.295 24.4627C99.7658 24.32 98.3911 24.264 97.2444 24.264C95.6684 24.264 94.5204 24.3694 93.9831 24.5C93.6324 24.584 93.3151 24.624 93.0564 24.624C92.6444 24.624 92.3831 24.5227 92.3804 24.3414C91.8258 24.3227 91.2684 24.3133 90.7138 24.3133C82.0604 24.3133 73.5311 26.5747 70.0404 27.3614C69.4551 27.4934 69.0884 27.5867 69.0004 27.5867C68.9898 27.5867 68.9831 27.5854 68.9818 27.5827C68.8844 27.4974 68.7204 27.4547 68.5244 27.4547C68.1858 27.4547 67.7471 27.5814 67.3698 27.836C66.8031 28.1574 60.4471 30.628 54.2284 33.5534C48.3018 36.34 42.4258 39.3267 41.5618 39.3267C41.5218 39.3267 41.4924 39.32 41.4738 39.3067C39.4751 37.82 38.2271 29.044 39.2271 24.3534" fill="#FEF468"/>
</svg>
