<svg width="368" height="129" viewBox="0 0 368 129" fill="none" xmlns="http://www.w3.org/2000/svg">
<path d="M75.1034 35.8153C73.6078 35.8153 72.5878 35.7559 72.2254 35.6006C70.1411 34.1414 73.1802 8.85648 75.0631 5.14054C75.4907 4.28538 75.9643 3.89806 76.7274 3.89806C77.1512 3.89806 77.6651 4.01887 78.3093 4.24321C78.9957 4.5289 81.6514 4.63821 85.2848 4.63821C96.7414 4.63821 117.935 3.5606 117.935 3.5606C118.002 3.66606 118.084 3.71016 118.18 3.71016C118.431 3.71016 118.763 3.39954 119.085 3.08892C119.407 2.77638 119.718 2.46576 119.929 2.46576C120.021 2.46576 120.095 2.52714 120.14 2.67862C120.416 3.38998 126.622 3.63348 135.122 3.63348C153.376 3.63348 182.218 2.50794 185.684 2.45617C185.73 2.45617 185.776 2.45617 185.82 2.45617C187.023 2.45617 187.32 2.70929 187.521 2.96239C187.721 3.21549 187.824 3.46857 188.635 3.46857C188.953 3.46857 189.381 3.42831 189.968 3.33436C192.838 2.91444 196.97 2.83581 201.33 2.83581C202.611 2.83581 203.909 2.84349 205.204 2.84925C206.5 2.85692 207.792 2.86268 209.05 2.86268C213.757 2.86268 218.002 2.76871 220.395 2.22225C222.83 1.64703 224.27 1.36709 225.728 1.36709C227.072 1.36709 228.431 1.60484 230.596 2.07077C231.8 2.29894 234.356 2.40247 237.527 2.40247C246.495 2.40247 260.373 1.56076 262.427 0.278015C262.695 0.0862744 262.939 2.57911e-07 263.136 2.57911e-07C263.437 2.57911e-07 263.631 0.201297 263.637 0.542596C263.639 0.659558 280.878 1.25588 280.962 1.69688C281.056 2.08036 281.329 2.32964 281.645 2.32964C281.795 2.32964 281.954 2.27404 282.109 2.15133C282.746 1.741 292.241 0.642305 297.755 0.642305C299.979 0.642305 301.553 0.820652 301.644 1.29425C302.391 4.99486 301.114 18.1483 299.521 25.9195C298.131 25.979 296.781 26.0231 295.485 26.0518C296.047 17.0553 295.575 4.15885 293.527 3.4379C293.435 3.42257 293.316 3.41487 293.169 3.41487C290.76 3.41487 281.07 5.3649 270.453 7.31298C259.836 9.26107 248.294 11.2111 242.185 11.2111C240.62 11.2111 239.412 11.0826 238.666 10.795C230.678 12.6108 198.232 20.94 185.914 20.94C184.983 20.94 184.166 20.8921 183.483 20.7905C178.826 24.8918 127.794 29.8637 126.049 31.11C124.542 32.2988 118.489 33.3169 114.947 33.3169C113.81 33.3169 112.932 33.2115 112.547 32.9737C111.766 32.4618 110.944 32.2661 110.111 32.2661C108.773 32.2661 107.416 32.7724 106.19 33.2805C104.965 33.7867 103.872 34.2929 103.063 34.2929C102.741 34.2929 102.463 34.2123 102.241 34.0206L98.8256 35.0713C94.7684 35.1135 90.4408 35.2765 86.4756 35.4395C81.8642 35.6274 77.7418 35.8153 75.1034 35.8153" fill="#FEF474"/>
<path d="M2.54661 83.6317C1.86785 83.6317 1.44793 83.5454 1.36932 83.3537C-0.540425 78.8976 -0.431131 58.738 1.56298 53.538C3.56475 48.012 20.02 51.4825 32.0134 46.5643L90.0879 37.7596L98.8256 35.0714C99.4871 35.0656 100.141 35.0618 100.785 35.0618C107.27 35.0618 112.756 35.4357 114.458 36.7165C119.325 36.2698 135.881 34.1779 147.336 34.1779C151.666 34.1779 155.265 34.477 157.23 35.2765C158.75 33.9957 165.431 33.6295 173.173 33.6122C170.742 33.8691 168.138 34.151 165.348 34.4578C160.779 36.567 155.337 36.4787 150.845 36.6283C146.358 36.7778 142.847 37.0961 142.144 39.7901C141.584 41.9203 141.379 46.6621 141.442 51.7873C118.015 51.3521 97.3165 51.1527 97.3165 51.1527C88.5386 50.959 82.6465 50.6695 82.3262 50.1C82.2611 49.9466 82.1498 49.8834 82.006 49.8834C81.6877 49.8834 81.2103 50.1901 80.7194 50.495C80.2267 50.8018 79.7186 51.1086 79.3389 51.1086C79.1932 51.1086 79.0666 51.0626 78.9669 50.9552C78.9669 50.9552 65.0101 51.308 50.5241 51.7644C48.6181 51.8238 32.7362 52.3511 24.1405 52.3511C21.4274 52.3511 19.4409 52.2993 18.8484 52.1631C17.9377 51.9522 17.1995 51.8449 16.5821 51.8449C15.3492 51.8449 14.6014 52.2724 13.936 53.1698C11.3859 56.6077 7.6987 77.7395 9.36301 82.7286C6.47156 83.2655 3.95399 83.6317 2.54661 83.6317" fill="#FEF474"/>
<path d="M114.458 36.7165C112.756 35.4356 107.27 35.0617 100.785 35.0617C100.141 35.0617 99.4871 35.0656 98.8256 35.0713L102.24 34.0206C102.463 34.2123 102.741 34.2928 103.063 34.2928C103.872 34.2928 104.965 33.7866 106.19 33.2804C107.416 32.7723 108.773 32.2661 110.111 32.2661C110.944 32.2661 111.766 32.4617 112.547 32.9737C112.932 33.2114 113.81 33.3169 114.947 33.3169C118.489 33.3169 124.542 32.2987 126.049 31.11C127.794 29.8636 178.826 24.8918 183.483 20.7904C184.166 20.8921 184.982 20.94 185.914 20.94C198.232 20.94 230.678 12.6107 238.666 10.7949C239.412 11.0826 240.62 11.2111 242.185 11.2111C248.293 11.2111 259.836 9.26104 270.453 7.31295C281.07 5.36486 290.76 3.41484 293.169 3.41484C293.316 3.41484 293.435 3.42253 293.527 3.43787C295.575 4.15881 296.047 17.0553 295.485 26.0518C294.453 26.0748 293.456 26.0882 292.499 26.0882C287.733 26.0882 283.961 25.7834 281.988 24.9627C280.999 25.7853 277.822 26.2819 273.59 26.5427C269.914 26.7689 262.555 26.9108 258.856 26.93C257.89 26.9357 238.356 26.9108 237.598 27.5129C236.687 28.2358 233.942 28.6211 231.484 28.6211C229.512 28.6211 227.725 28.3718 227.215 27.8541C226.492 27.1179 225.701 26.8629 224.903 26.8629C223.998 26.8629 223.085 27.1888 222.255 27.5148C221.423 27.8427 220.673 28.1686 220.098 28.1686C219.776 28.1686 219.507 28.0651 219.308 27.8024C202.557 32.2278 220.073 28.6326 173.173 33.6121C165.431 33.6294 158.75 33.9957 157.23 35.2765C155.265 34.4769 151.666 34.1778 147.336 34.1778C135.881 34.1778 119.325 36.2697 114.458 36.7165" fill="#FEF14A"/>
<path d="M343.131 97.8569C342.475 97.8569 341.767 97.8167 341.018 97.7419C344.712 91.4279 351.627 71.6996 349.285 69.9855C344.557 67.6462 296.093 64.5112 290.484 60.6515C274.328 60.0513 245.26 60.5863 233.614 58.7935C239.757 58.5078 246.424 58.3276 250.445 57.5415C250.984 57.436 251.386 57.3862 251.689 57.3727C251.925 57.4053 252.176 57.4399 252.439 57.4725C252.623 57.5607 252.707 57.6929 252.815 57.8233C253.001 58.0515 253.258 58.2778 254.22 58.2778C254.341 58.2778 254.471 58.2739 254.615 58.2662C255.029 58.2452 256.239 58.18 258.049 58.086C268.244 59.0716 284.584 60.1549 293.023 60.1549C295.475 60.1549 297.258 60.0629 298.031 59.85C298.372 59.735 298.683 59.6832 298.948 59.6832C299.515 59.6832 299.862 59.9267 299.826 60.3121C299.826 60.3121 315.468 62.5363 321.717 63.5813C324.154 63.9897 325.784 64.3061 325.801 64.4173C325.903 64.8602 326.361 65.1728 326.919 65.1728C327.095 65.1728 327.281 65.1421 327.469 65.0731C327.646 65.0098 328.234 64.9791 329.128 64.9791C335.4 64.9791 356.767 66.4517 356.98 67.9357C357.676 72.7734 351.322 91.9839 347.6 96.4055C346.712 97.46 345.165 97.8569 343.131 97.8569V97.8569ZM12.1356 83.8368C11.0772 83.8368 10.3639 83.8023 10.0648 83.7256C9.76951 83.5933 9.53752 83.2501 9.36304 82.7286C16.4843 81.4094 25.8758 79.0586 26.545 78.5927C26.777 78.3991 27.0339 78.3109 27.2736 78.3109C27.6244 78.3109 27.9427 78.4968 28.0961 78.8113C28.1076 78.84 28.2246 78.8535 28.4278 78.8535C29.214 78.8535 31.3193 78.6579 33.9404 78.3779C33.6298 78.7116 33.3978 79.0836 33.2501 79.4977C32.9453 80.3529 32.7113 81.58 32.5407 83.0584C31.8313 83.089 31.1276 83.1178 30.4335 83.1485C22.4206 83.4917 15.5198 83.8368 12.1356 83.8368V83.8368ZM110.134 65.1804C118.222 63.3915 132.518 61.7751 141.756 59.8768C141.772 60.1223 141.789 60.3639 141.806 60.6036C141.772 60.5786 141.739 60.5518 141.708 60.5211C125.384 64.0472 120.343 64.2236 110.134 65.1804" fill="#FEF474"/>
<path d="M9.36293 82.7286C7.69862 77.7395 11.3858 56.6077 13.936 53.1697C14.6013 52.2724 15.3491 51.8448 16.582 51.8448C17.1994 51.8448 17.9376 51.9522 18.8484 52.1631C19.4408 52.2992 21.4273 52.351 24.1404 52.351C32.7362 52.351 48.6181 51.8238 50.524 51.7643C65.01 51.308 78.9669 50.9552 78.9669 50.9552C79.0666 51.0625 79.1931 51.1085 79.3388 51.1085C79.7185 51.1085 80.2266 50.8018 80.7194 50.495C81.2102 50.1901 81.6876 49.8833 82.0059 49.8833C82.1497 49.8833 82.261 49.9466 82.3262 50.1C82.6464 50.6694 88.5386 50.959 97.3165 51.1526C97.3165 51.1526 118.015 51.352 141.442 51.7873C141.476 54.487 141.584 57.2922 141.756 59.8768C132.518 61.7751 118.222 63.3915 110.134 65.1804C104.461 65.7116 97.1899 66.4824 85.4995 68.2023C50.4013 73.3639 69.167 72.2499 45.4237 75.0992C40.0798 75.7396 35.7273 76.4433 33.9403 78.3779C31.3192 78.6579 29.2139 78.8535 28.4277 78.8535C28.2245 78.8535 28.1075 78.84 28.096 78.8113C27.9426 78.4968 27.6243 78.3109 27.2735 78.3109C27.0338 78.3109 26.7769 78.3991 26.5448 78.5927C25.8757 79.0586 16.4842 81.4094 9.36293 82.7286" fill="#FEF14A"/>
<path d="M35.2269 109.519C34.7303 109.519 34.4216 109.45 34.3468 109.296C32.5253 105.624 31.6433 90.8546 32.5406 83.0584C40.0185 82.7458 48.2481 82.4601 55.4019 82.4601C63.804 82.4601 70.724 82.8551 73.1859 84.0727C80.7999 83.5952 100.802 82.1572 116.972 82.1572C125.612 82.1572 133.159 82.5675 137.133 83.7544C138.604 82.9759 143.221 82.7209 148.657 82.7209C151.805 82.7209 155.228 82.8072 158.468 82.9242C155.884 83.2712 153.416 83.6048 151.146 83.9135C141.948 85.1656 125.894 87.5911 120.795 87.5911C119.877 87.5911 119.313 87.5125 119.21 87.3323C119.148 87.2038 119.075 87.1501 118.993 87.1501C118.774 87.1501 118.489 87.524 118.191 87.8998C117.892 88.2737 117.584 88.6476 117.321 88.6476C117.24 88.6476 117.164 88.6131 117.093 88.5307C117.093 88.5307 107.799 90.3541 98.1678 92.331C96.4997 92.6742 80.3053 96.0891 77.3352 96.0891C77.1971 96.0891 77.0859 96.0814 77.0092 96.0661C76.6142 96.0105 76.2691 95.9817 75.9662 95.9817C74.7793 95.9817 74.2386 96.4361 73.8992 97.5751C73.6557 98.3919 73.5387 100.081 73.5272 102.269C67.6772 102.928 61.8214 103.596 61.8214 103.596C61.6604 103.293 61.3421 103.116 60.9893 103.116C60.7323 103.116 60.4581 103.21 60.2127 103.417C59.1754 103.958 39.6753 109.519 35.2269 109.519V109.519ZM337.986 100.236C337.307 100.236 336.494 99.9853 335.415 99.4791C333.066 98.3804 318.741 96.3901 303.505 94.8754C303.599 94.3711 303.691 93.8592 303.783 93.3434C306.42 93.6387 309.156 93.9454 312.028 94.2714C313.182 94.1698 314.346 94.1237 315.514 94.1237C320.785 94.1237 326.129 95.0575 330.936 95.9894C334.732 96.7276 338.193 97.4658 341.017 97.7419C340.603 98.4494 340.229 98.9882 339.915 99.3142C339.324 99.9277 338.74 100.236 337.986 100.236" fill="#FEF474"/>
<path d="M341.017 97.7419C338.193 97.4658 334.732 96.7276 330.936 95.9894C326.129 95.0575 320.785 94.1238 315.514 94.1238C314.346 94.1238 313.182 94.1698 312.028 94.2714C309.156 93.9454 306.42 93.6387 303.783 93.3434C305.01 86.3928 305.871 78.7231 305.44 76.01C305.346 75.4098 302.815 75.1932 299.578 75.1932C293.853 75.1932 285.913 75.87 285.334 76.288C285.173 76.403 285.012 76.4548 284.862 76.4548C284.531 76.4548 284.253 76.2017 284.162 75.8144C284.078 75.3331 266.833 74.547 266.342 74.4818C266.336 74.1405 266.137 73.9392 265.826 73.9392C265.623 73.9392 265.372 74.0235 265.096 74.2134C262.71 75.5958 244.794 76.706 236.313 76.706C234.452 76.706 233.042 76.6523 232.354 76.5373C230.406 76.2094 229.091 76.0349 227.871 76.0349C226.168 76.0349 224.656 76.3743 221.872 77.1067C215.945 78.6694 198.533 78.2859 190.694 80.0595C189.96 80.2263 189.467 80.2916 189.124 80.2916C188.511 80.2916 188.371 80.0845 188.183 79.8793C187.995 79.6722 187.761 79.4671 186.959 79.4671C186.756 79.4671 186.516 79.4805 186.233 79.5093C177.746 80.397 167.402 81.7296 158.468 82.9242C155.228 82.8072 151.806 82.7209 148.657 82.7209C143.221 82.7209 138.604 82.9759 137.133 83.7544C133.159 82.5675 125.612 82.1572 116.972 82.1572C100.802 82.1572 80.8 83.5952 73.1859 84.0727C70.724 82.8551 63.804 82.4601 55.4019 82.4601C48.2481 82.4601 40.0186 82.7459 32.5406 83.0584C32.7113 81.5801 32.9452 80.3529 33.2501 79.4977C33.3977 79.0836 33.6297 78.7116 33.9403 78.378C35.8769 78.1709 38.0973 77.9178 40.2736 77.6666C45.3911 77.0722 50.2671 76.4778 50.6755 76.4778C50.6928 76.4778 50.7024 76.4797 50.7024 76.4817C50.7522 76.7712 50.965 76.9304 51.2718 76.9304C51.5556 76.9304 51.9199 76.7942 52.3072 76.5009C55.6531 74.2249 87.1772 68.4094 93.2727 68.3499C93.7597 68.3538 94.2161 68.3576 94.6456 68.3576C99.5005 68.3576 101.044 68.022 106.461 66.1545C107.446 65.8228 108.691 65.4987 110.134 65.1805C120.343 64.2237 125.384 64.0473 141.708 60.5211C141.739 60.5518 141.772 60.5786 141.806 60.6036C142.09 64.5189 142.519 67.8418 143.054 69.3796C143.139 69.6212 143.605 69.7228 144.341 69.7228C148.462 69.7228 160.986 66.49 161.669 65.98C161.824 65.8151 161.997 65.7422 162.161 65.7422C162.439 65.7422 162.7 65.9513 162.829 66.2906C162.84 66.3213 163.055 66.3367 163.431 66.3367C166.316 66.3367 178.628 65.5045 178.883 65.4891C179.132 65.4757 179.324 65.4738 179.447 65.4738C179.549 65.4738 179.602 65.4757 179.602 65.4757C179.642 65.7864 179.817 65.9589 180.068 65.9589C180.269 65.9589 180.523 65.8477 180.793 65.608C182.979 63.683 202.04 60.9046 209.428 60.9046C210.166 60.9046 210.789 60.9315 211.264 60.9909C213.009 61.2076 214.215 61.3456 215.306 61.3456C216.992 61.3456 218.403 61.0178 221.099 60.1588C223.636 59.3477 228.441 59.0332 233.614 58.7935C245.26 60.5863 274.328 60.0514 290.484 60.6515C296.093 64.5113 344.557 67.6463 349.285 69.9855C351.627 71.6997 344.712 91.4279 341.017 97.7419" fill="#FEF14A"/>
<path d="M33.9404 78.3779C35.7275 76.4433 40.08 75.7396 45.4238 75.0992C69.1671 72.2499 50.4014 73.3639 85.4996 68.2023C97.1901 66.4823 104.461 65.7115 110.135 65.1804C108.691 65.4987 107.446 65.8227 106.461 66.1544C101.044 68.022 99.5006 68.3576 94.6457 68.3576C94.2162 68.3576 93.7598 68.3537 93.2728 68.3499C87.1773 68.4093 55.6532 74.2249 52.3073 76.5008C51.92 76.7942 51.5557 76.9303 51.2719 76.9303C50.9651 76.9303 50.7523 76.7712 50.7024 76.4816C50.7024 76.4797 50.6929 76.4778 50.6756 76.4778C50.2672 76.4778 45.3912 77.0722 40.2736 77.6666C38.0974 77.9178 35.877 78.1708 33.9404 78.3779" fill="#FEF03D"/>
<path d="M77.2509 128.029C77.1205 128.029 77.0169 128.02 76.9364 128.002C75.0727 127.176 73.4832 110.878 73.5273 102.269C79.1625 101.632 84.7939 101.003 85.1774 100.986C85.2234 101.276 85.442 101.435 85.7584 101.435C86.0518 101.435 86.4295 101.297 86.8341 101.001C89.5913 99.2816 103.188 97.0919 107.069 96.438C111.707 95.6577 124.036 94.1295 128.699 94.1295C128.986 94.1295 129.245 94.1352 129.472 94.1467C131.498 94.258 133.005 94.3366 134.336 94.3366C137.066 94.3366 139.055 94.001 143.252 92.9043C151.079 90.8526 174.007 91.2035 184.444 89.7885C185.335 89.6677 185.958 89.6178 186.403 89.6178C187.364 89.6178 187.508 89.846 187.767 90.0722C188.025 90.3004 188.399 90.5286 189.822 90.5286C189.958 90.5286 190.106 90.5267 190.263 90.5209C191.983 90.473 198.328 90.2832 206.893 90.055C209.744 89.9783 215.887 89.938 221.325 89.938C224.274 89.938 227.014 89.9495 228.912 89.9745C241.746 90.1489 247.423 90.1432 265.721 91.681C273.544 92.3405 278.755 93.2091 278.993 93.7748C279.041 93.9473 279.148 94.0145 279.294 94.0145C279.576 94.0145 280.007 93.7575 280.452 93.5006C280.895 93.2417 281.353 92.9848 281.689 92.9848C281.841 92.9848 281.969 93.0385 282.057 93.1669C288.59 93.5255 296.154 94.1448 303.505 94.8754C302.65 99.4311 301.663 103.477 300.817 105.308C300.1 106.865 298.507 107.344 296.353 107.344C294.998 107.344 293.424 107.154 291.706 106.924C289.107 106.575 286.181 106.159 283.238 106.159C281.154 106.159 279.06 106.368 277.068 106.957C269.094 106.88 262.498 106.842 257.02 106.842C228.953 106.842 230.007 107.824 222.905 109.492C222.702 109.21 222.42 109.101 222.077 109.101C221.503 109.101 220.763 109.404 219.945 109.708C219.126 110.011 218.228 110.314 217.345 110.314C216.537 110.314 215.74 110.061 215.023 109.325C214.516 108.805 212.71 108.554 210.724 108.554C208.268 108.554 205.539 108.94 204.659 109.682C204.312 109.937 201.614 110.138 197.699 110.326C193.699 110.516 163.676 111.572 160.597 114.878C159.561 114.592 158.214 114.466 156.637 114.466C146.147 114.466 125.487 120.057 118.563 121.826C117.856 121.458 116.631 121.297 115.033 121.297C110.696 121.297 103.617 122.482 96.7375 123.924C92.0322 124.912 87.4189 125.995 83.818 126.818C80.6351 127.546 78.2345 128.029 77.2509 128.029" fill="#FEF474"/>
<path d="M73.5272 102.269C73.5387 100.081 73.6557 98.3919 73.8992 97.5751C74.2386 96.4361 74.7793 95.9817 75.9662 95.9817C76.2691 95.9817 76.6142 96.0105 77.0092 96.0661C77.0859 96.0814 77.1971 96.0891 77.3352 96.0891C80.3053 96.0891 96.4997 92.6742 98.1678 92.331C107.799 90.3541 117.093 88.5306 117.093 88.5306C117.164 88.6131 117.24 88.6476 117.321 88.6476C117.584 88.6476 117.892 88.2737 118.191 87.8998C118.489 87.524 118.774 87.1501 118.993 87.1501C119.075 87.1501 119.148 87.2038 119.21 87.3323C119.313 87.5125 119.877 87.5911 120.795 87.5911C125.894 87.5911 141.948 85.1656 151.146 83.9135C153.416 83.6048 155.884 83.2712 158.468 82.9242C164.585 83.1466 170.065 83.484 171.867 83.5818C172.866 83.6355 198.404 85.5625 202.995 85.5625C203.361 85.5625 203.595 85.551 203.67 85.5242C204.431 85.2097 205.947 85.0736 207.75 85.0736C212.095 85.0736 218.1 85.8597 219.168 86.805C220.393 87.8864 221.948 88.1951 223.53 88.1951C224.565 88.1951 225.614 88.0628 226.59 87.9305C227.564 87.7982 228.466 87.6678 229.209 87.6678C229.963 87.6678 230.554 87.802 230.891 88.2104C236.716 87.9248 239.443 87.641 242.961 87.641C248.355 87.641 255.606 88.3063 278.717 90.6475C286.927 91.4777 294.781 92.3348 303.783 93.3434C303.691 93.8591 303.599 94.3711 303.505 94.8754C296.154 94.1448 288.59 93.5255 282.057 93.1669C281.969 93.0385 281.84 92.9848 281.689 92.9848C281.353 92.9848 280.895 93.2417 280.452 93.5006C280.007 93.7575 279.576 94.0145 279.294 94.0145C279.148 94.0145 279.041 93.9473 278.993 93.7748C278.755 93.2091 273.544 92.3405 265.721 91.681C247.423 90.1432 241.746 90.1489 228.912 89.9745C227.014 89.9495 224.274 89.938 221.325 89.938C215.887 89.938 209.744 89.9783 206.893 90.055C198.328 90.2832 191.983 90.473 190.263 90.5209C190.106 90.5267 189.958 90.5286 189.822 90.5286C188.399 90.5286 188.025 90.3004 187.767 90.0722C187.508 89.846 187.364 89.6178 186.403 89.6178C185.958 89.6178 185.335 89.6677 184.444 89.7885C174.007 91.2035 151.079 90.8526 143.252 92.9043C139.055 94.001 137.066 94.3366 134.336 94.3366C133.005 94.3366 131.498 94.258 129.471 94.1467C129.245 94.1352 128.986 94.1295 128.699 94.1295C124.036 94.1295 111.707 95.6577 107.068 96.438C103.188 97.0919 89.5913 99.2816 86.8341 101.001C86.4295 101.297 86.0517 101.435 85.7584 101.435C85.442 101.435 85.2234 101.276 85.1774 100.986C84.7939 101.003 79.1625 101.632 73.5272 102.269" fill="#FEF14A"/>
<path d="M303.783 93.3434C294.781 92.3348 286.927 91.4777 278.717 90.6475C255.606 88.3063 248.355 87.641 242.961 87.641C239.443 87.641 236.716 87.9248 230.891 88.2105C230.554 87.8021 229.963 87.6678 229.209 87.6678C228.466 87.6678 227.564 87.7982 226.59 87.9305C225.614 88.0628 224.565 88.1951 223.53 88.1951C221.948 88.1951 220.393 87.8864 219.168 86.805C218.1 85.8597 212.095 85.0736 207.75 85.0736C205.947 85.0736 204.431 85.2097 203.67 85.5242C203.595 85.551 203.361 85.5625 202.995 85.5625C198.404 85.5625 172.866 83.6355 171.867 83.5818C170.065 83.4841 164.585 83.1466 158.469 82.9242C167.402 81.7296 177.746 80.397 186.233 79.5093C186.516 79.4805 186.756 79.4671 186.959 79.4671C187.761 79.4671 187.995 79.6722 188.183 79.8793C188.371 80.0845 188.511 80.2916 189.124 80.2916C189.467 80.2916 189.96 80.2263 190.694 80.0595C198.533 78.2859 215.945 78.6694 221.872 77.1067C224.656 76.3743 226.168 76.0349 227.871 76.0349C229.091 76.0349 230.406 76.2094 232.354 76.5373C233.042 76.6523 234.452 76.706 236.313 76.706C244.794 76.706 262.71 75.5958 265.096 74.2133C265.372 74.0235 265.623 73.9392 265.826 73.9392C266.137 73.9392 266.336 74.1405 266.342 74.4818C266.833 74.547 284.078 75.3331 284.162 75.8144C284.253 76.2017 284.531 76.4548 284.862 76.4548C285.012 76.4548 285.173 76.403 285.334 76.288C285.913 75.87 293.853 75.1932 299.578 75.1932C302.815 75.1932 305.346 75.4098 305.44 76.01C305.871 78.7231 305.01 86.3928 303.783 93.3434" fill="#FEF03D"/>
<path d="M360.073 59.177C359.634 59.177 359.104 59.016 358.428 58.713C356.593 57.7581 341.625 57.2193 328.221 57.2193C325.408 57.2193 322.666 57.2423 320.127 57.2903C320.064 57.179 319.982 57.1331 319.886 57.1331C319.644 57.1331 319.316 57.4302 318.998 57.7274C318.682 58.0265 318.373 58.3238 318.172 58.3238C318.078 58.3238 318.007 58.2605 317.968 58.1032C317.61 57.0314 310.903 56.669 301.975 56.669C287.2 56.669 266.334 57.6623 258.049 58.086C255.844 57.8732 253.929 57.6661 252.439 57.4724C252.307 57.4092 252.121 57.3689 251.833 57.3689C251.789 57.3689 251.741 57.3708 251.689 57.3727C250.855 57.2558 250.197 57.1464 249.754 57.0467C245.375 56.065 243.197 55.6969 240.235 55.6969C238.643 55.6969 236.823 55.8043 234.315 55.9788C233.493 56.0363 232.532 56.0612 231.455 56.0612C226.606 56.0612 219.406 55.5397 211.993 55.0181C204.578 54.4985 196.953 53.977 191.252 53.977C190.152 53.977 189.12 53.9961 188.179 54.0383C187.703 54.0594 187.297 54.071 186.948 54.071C184.354 54.071 184.934 53.5226 184.058 53.141C205.04 49.4596 229.267 45.4157 235 45.4157C235.715 45.4157 236.145 45.479 236.241 45.6132C236.31 45.736 236.396 45.7858 236.496 45.7858C236.774 45.7858 237.155 45.3889 237.554 44.992C237.951 44.5932 238.363 44.1963 238.701 44.1963C238.797 44.1963 238.887 44.2289 238.967 44.3017C238.967 44.3017 283.378 35.6561 289.694 35.6561C289.899 35.6561 290.066 35.6638 290.189 35.683C290.672 35.7367 291.096 35.7654 291.474 35.7654C292.992 35.7654 293.728 35.3071 294.263 34.1471C294.409 33.8365 294.543 33.4013 294.67 32.8605C296.388 32.6784 297.642 32.0898 298.202 30.7284C298.643 29.7045 299.093 28.0057 299.521 25.9195C307.411 25.5878 316.605 24.8285 324.75 24.2667C329.053 27.858 363.727 26.3989 366.799 27.8906C368.741 29.4974 363.7 54.4832 361.628 58.0515C361.183 58.8185 360.728 59.177 360.073 59.177" fill="#FEF474"/>
<path d="M294.67 32.8606C295.032 31.3017 295.308 28.8666 295.485 26.0518C296.781 26.0231 298.131 25.979 299.521 25.9195C299.093 28.0057 298.643 29.7045 298.202 30.7284C297.642 32.0898 296.388 32.6784 294.67 32.8606" fill="#FEF14A"/>
<path d="M184.058 53.141C183.68 52.978 183.034 52.8438 181.75 52.7997C169.777 52.3759 155.142 52.0404 141.442 51.7873C141.379 46.662 141.584 41.9203 142.144 39.79C142.847 37.0961 146.358 36.7778 150.845 36.6282C155.337 36.4787 160.779 36.5669 165.348 34.4578C168.138 34.151 170.742 33.8691 173.173 33.6121C173.373 33.6121 173.576 33.6121 173.777 33.6121C178.342 33.6121 183.238 33.7253 187.636 33.8404C192.035 33.9535 195.94 34.0685 198.525 34.0685C200.339 34.0685 201.503 34.011 201.733 33.8595C202.49 33.2958 204.458 33.0408 206.492 33.0408C208.965 33.0408 211.535 33.4185 212.135 34.0819C212.865 34.9409 213.722 35.2209 214.604 35.2209C215.442 35.2209 216.301 34.9658 217.091 34.7108C217.879 34.4558 218.598 34.2008 219.155 34.2008C219.528 34.2008 219.829 34.3158 220.031 34.6226L229.62 32.7858L274.441 32.966C276.606 32.2815 278.897 32.0552 281.169 32.0552C283.399 32.0552 285.61 32.2738 287.671 32.4924C289.732 32.7091 291.642 32.9277 293.268 32.9277C293.763 32.9277 294.231 32.9066 294.67 32.8605C294.543 33.4012 294.409 33.8365 294.263 34.1471C293.728 35.3071 292.992 35.7654 291.474 35.7654C291.096 35.7654 290.672 35.7366 290.189 35.683C290.066 35.6638 289.899 35.6561 289.694 35.6561C283.378 35.6561 238.967 44.3017 238.967 44.3017C238.887 44.2288 238.797 44.1963 238.701 44.1963C238.363 44.1963 237.951 44.5932 237.554 44.992C237.155 45.3889 236.774 45.7858 236.496 45.7858C236.396 45.7858 236.31 45.7359 236.241 45.6132C236.145 45.479 235.715 45.4157 235 45.4157C229.267 45.4157 205.04 49.4596 184.058 53.141" fill="#FEF14A"/>
<path d="M214.604 35.2209C213.722 35.2209 212.865 34.941 212.135 34.082C211.535 33.4186 208.965 33.0408 206.492 33.0408C204.458 33.0408 202.49 33.2958 201.733 33.8595C201.503 34.011 200.339 34.0686 198.525 34.0686C195.94 34.0686 192.035 33.9535 187.636 33.8404C183.238 33.7253 178.342 33.6122 173.777 33.6122C173.576 33.6122 173.373 33.6122 173.173 33.6122C220.073 28.6327 202.557 32.2278 219.308 27.8025C219.507 28.0652 219.776 28.1687 220.098 28.1687C220.673 28.1687 221.423 27.8427 222.255 27.5149C223.085 27.1889 223.998 26.8629 224.903 26.8629C225.701 26.8629 226.492 27.1179 227.215 27.8542C227.725 28.3719 229.512 28.6212 231.483 28.6212C233.942 28.6212 236.687 28.2358 237.598 27.5129C238.355 26.9109 257.89 26.9358 258.856 26.93C262.555 26.9109 269.914 26.769 273.59 26.5427C277.822 26.2819 280.999 25.7853 281.988 24.9628C283.961 25.7834 287.733 26.0883 292.499 26.0883C293.456 26.0883 294.453 26.0749 295.485 26.0518C295.308 28.8666 295.032 31.3017 294.67 32.8606C294.231 32.9066 293.763 32.9277 293.268 32.9277C291.642 32.9277 289.732 32.7091 287.671 32.4924C285.61 32.2739 283.399 32.0553 281.169 32.0553C278.897 32.0553 276.606 32.2815 274.441 32.966L229.62 32.7858L220.031 34.6227C219.829 34.3159 219.528 34.2008 219.154 34.2008C218.598 34.2008 217.879 34.4558 217.091 34.7109C216.301 34.9659 215.442 35.2209 214.604 35.2209" fill="#FEF03D"/>
<path d="M158.166 61.012C155.663 61.012 153.489 60.7953 152.843 60.3237C151.896 59.6315 150.841 59.3861 149.765 59.3861C148.45 59.3861 147.102 59.7542 145.877 60.1223C144.652 60.4885 143.551 60.8567 142.728 60.8567C142.36 60.8567 142.05 60.7819 141.806 60.6036C141.789 60.3639 141.772 60.1223 141.756 59.8769C143.214 59.5778 144.546 59.2729 145.708 58.9566C146.903 58.621 147.591 58.504 148.026 58.504C148.519 58.504 148.684 58.6555 148.889 58.807C149.094 58.9585 149.34 59.1099 149.997 59.1099C150.333 59.1099 150.778 59.0697 151.382 58.968C154.032 58.527 168.107 55.9405 184.058 53.141C184.934 53.5226 184.354 54.071 186.948 54.071C187.297 54.071 187.703 54.0595 188.179 54.0384C189.12 53.9962 190.152 53.9771 191.252 53.9771C196.953 53.9771 204.578 54.4986 211.993 55.0182C219.406 55.5397 226.606 56.0613 231.455 56.0613C232.532 56.0613 233.493 56.0363 234.316 55.9788C236.823 55.8043 238.643 55.697 240.235 55.697C243.197 55.697 245.375 56.0651 249.754 57.0468C250.197 57.1465 250.855 57.2558 251.689 57.3728C251.386 57.3862 250.984 57.436 250.445 57.5415C246.424 58.3276 239.757 58.5079 233.614 58.7936C232.197 58.575 231.039 58.3219 230.191 58.0285C228.092 59.1291 220.775 59.3247 211.958 59.3247C207.366 59.3247 202.364 59.271 197.484 59.2652C194.336 59.2595 191.204 59.1828 188.221 59.1828C187.721 59.1828 187.226 59.1847 186.735 59.1905C185.711 59.2001 168.347 59.2672 167.486 59.7638C166.104 60.5576 161.789 61.012 158.166 61.012V61.012ZM254.22 58.2778C253.258 58.2778 253.001 58.0515 252.815 57.8233C252.707 57.693 252.623 57.5607 252.439 57.4725C253.929 57.6661 255.844 57.8732 258.049 58.0861C256.239 58.18 255.029 58.2452 254.615 58.2663C254.471 58.2739 254.341 58.2778 254.22 58.2778" fill="#FEF14A"/>
<path d="M141.756 59.8769C141.584 57.2922 141.476 54.487 141.442 51.7873C155.142 52.0404 169.777 52.376 181.75 52.7997C183.034 52.8438 183.68 52.978 184.058 53.141C168.107 55.9404 154.032 58.527 151.382 58.968C150.778 59.0696 150.333 59.1099 149.997 59.1099C149.34 59.1099 149.094 58.9585 148.889 58.807C148.684 58.6555 148.519 58.504 148.026 58.504C147.591 58.504 146.903 58.621 145.708 58.9565C144.546 59.2729 143.214 59.5777 141.756 59.8769" fill="#FEF03D"/>
<path d="M144.341 69.7228C143.605 69.7228 143.139 69.6211 143.054 69.3796C142.519 67.8418 142.09 64.5189 141.806 60.6036C142.05 60.7819 142.36 60.8567 142.728 60.8567C143.551 60.8567 144.652 60.4885 145.877 60.1223C147.102 59.7541 148.45 59.386 149.765 59.386C150.841 59.386 151.896 59.6314 152.843 60.3236C153.489 60.7953 155.663 61.012 158.166 61.012C161.789 61.012 166.104 60.5576 167.486 59.7638C168.347 59.2671 185.711 59.2 186.735 59.1905C187.226 59.1847 187.72 59.1828 188.221 59.1828C191.204 59.1828 194.336 59.2595 197.484 59.2652C202.364 59.271 207.366 59.3247 211.958 59.3247C220.775 59.3247 228.092 59.1291 230.191 58.0285C231.039 58.3219 232.197 58.575 233.614 58.7935C228.441 59.0332 223.635 59.3477 221.099 60.1588C218.403 61.0178 216.992 61.3456 215.306 61.3456C214.215 61.3456 213.009 61.2076 211.264 60.9909C210.789 60.9314 210.166 60.9046 209.427 60.9046C202.04 60.9046 182.979 63.6829 180.793 65.608C180.523 65.8477 180.269 65.9589 180.068 65.9589C179.817 65.9589 179.642 65.7864 179.602 65.4757C179.602 65.4757 179.548 65.4738 179.447 65.4738C179.324 65.4738 179.132 65.4757 178.883 65.4891C178.628 65.5045 166.316 66.3366 163.431 66.3366C163.055 66.3366 162.84 66.3213 162.829 66.2906C162.7 65.9513 162.439 65.7422 162.161 65.7422C161.996 65.7422 161.824 65.8151 161.669 65.98C160.986 66.49 148.461 69.7228 144.341 69.7228" fill="#FEF03D"/>
</svg>
