<svg width="244" height="244" viewBox="0 0 244 244" fill="none" xmlns="http://www.w3.org/2000/svg">
<path d="M53.3621 96.0514L51.3704 95.5277L48.0449 94.6534C46.7865 94.3226 45.5523 95.2624 45.5365 96.5634L45.4467 103.956C45.4375 104.716 45.8593 105.415 46.5355 105.761L48.515 106.774C49.5109 107.284 50.7311 106.877 51.2226 105.872L54.6502 98.8644C55.2048 97.7303 54.583 96.3724 53.3621 96.0514Z" fill="#646464" stroke="#646464" stroke-width="3"/>
<path d="M82.3708 99.28L84.2243 98.3824L87.319 96.8836C88.49 96.3165 89.8822 97.0008 90.1484 98.2744L91.6611 105.511C91.8166 106.255 91.5374 107.022 90.9405 107.492L89.1933 108.868C88.3143 109.56 87.0386 109.396 86.3627 108.505L81.649 102.289C80.8862 101.283 81.2346 99.8303 82.3708 99.28Z" fill="#646464" stroke="#646464" stroke-width="3" stroke-linecap="square" stroke-linejoin="round"/>
<path d="M51.0545 90.1326C55.6045 91 61.9336 91 70.5 91C78.4651 91 84.496 91 88.961 90.3027C88.5178 89.7675 84.186 85 70.5 85C56.8659 85 51.6311 89.585 51.0545 90.1326Z" fill="#646464"/>
<path d="M58.1744 20C58.1744 20 56.854 22.5 59.354 23.5C61.854 24.5 69.354 24.5 70.354 24.5C70.854 24.5 78.854 24.5 81.354 23.5C83.854 22.5 82.3183 20 82.3183 20H58.1744Z" fill="#646464"/>
<path d="M58.1744 20C52.7544 20 52.7544 23.1224 52.2616 23.6429C51.7689 24.1633 47.8271 23.1224 46.8416 24.6837C45.8561 26.2449 45.5907 30.4692 46.8416 32.4898C48.0925 34.5104 49.798 34.051 52.2616 34.051C53.3959 34.051 54.5302 37.581 55.424 42M58.1744 20C58.1744 20 56.854 22.5 59.354 23.5C61.854 24.5 69.354 24.5 70.354 24.5C70.854 24.5 78.854 24.5 81.354 23.5C83.854 22.5 82.3183 20 82.3183 20M58.1744 20H82.3183M82.3183 20C87.9642 20 87.9642 23.1224 88.4775 23.6429C88.9907 24.1633 93.0968 23.1224 94.1234 24.6837C95.1499 26.2449 95.4264 30.4692 94.1234 32.4898C92.8203 34.5104 91.0438 34.051 88.4775 34.051C87.2959 34.051 86.1144 37.581 85.1833 42M64.854 63.5C62.354 63.5 59.854 61 60.354 58C60.854 55 63.854 53 63.854 52V44.5C63.854 42 57.189 42 57.189 42H55.424M64.854 63.5C67.354 63.5 66.854 61.5 70.354 61.5C73.854 61.5 73.354 63.5 75.854 63.5M64.854 63.5C64.854 68.8333 75.854 68.8333 75.854 63.5M75.854 63.5C78.354 63.5 80.854 61 80.354 58C79.854 55 76.854 53 76.854 52V44.5C76.854 42 83 42 83 42H85.1833M56.6094 50C45.6406 50 41 60.0001 41 75.5C41 85.0713 43.7088 88.7323 51.0545 90.1326M84 50C94.9688 50 100 60.0001 100 75.5C100 85.4875 97.0505 89.0395 88.961 90.3027M51 90.1859C51 90.1859 51.0178 90.1674 51.0545 90.1326M89 90.3514C89 90.3514 88.9874 90.3346 88.961 90.3027M51.0545 90.1326C55.6045 91 61.9336 91 70.5 91C78.4651 91 84.496 91 88.961 90.3027M51.0545 90.1326C51.6311 89.585 56.8659 85 70.5 85C84.186 85 88.5178 89.7675 88.961 90.3027M85.1833 42C84.0921 47.1791 83.3448 53.5793 83.3448 56.949C83.3448 63.1939 83.8581 64.9322 82.3183 67.3571C80.7785 69.7821 78.7255 71 74.6194 71H65.5654C61.6235 71 59.6526 69.7821 58.1744 67.3571C56.6962 64.9322 57.189 63.1939 57.189 56.949C57.189 53.5793 56.4716 47.1791 55.424 42" stroke="#646464" stroke-width="3"/>
<path d="M100.893 116.102C85.2363 111.872 64.5162 109.644 36 111.007" stroke="#00DC30" stroke-width="5" stroke-linecap="round" stroke-linejoin="round"/>
<rect x="60" y="31" width="5" height="9" rx="2.5" fill="#646464"/>
<path d="M65.0674 56C63.5674 57.5 63.4622 59.5 65.9622 59.5" stroke="#5F5D5D" stroke-width="3" stroke-linecap="round"/>
<path d="M75.8948 56C77.3948 57.5 77.5 59.5 75 59.5" stroke="#5F5D5D" stroke-width="3" stroke-linecap="round"/>
<path d="M58 33C58 32 58.5625 29 62.5 29C66.4375 29 67 32 67 33" stroke="#5F5F5F" stroke-width="3" stroke-linecap="round" stroke-linejoin="round"/>
<rect x="75" y="31" width="5" height="9" rx="2.5" fill="#646464"/>
<path d="M73 33C73 32 73.5625 29 77.5 29C81.4375 29 82 32 82 33" stroke="#5F5F5F" stroke-width="3" stroke-linecap="round" stroke-linejoin="round"/>
<rect x="61" y="32" width="3" height="4" rx="1.5" fill="white"/>
<rect x="76" y="32" width="3" height="4" rx="1.5" fill="white"/>
<g style="mix-blend-mode:multiply">
<circle cx="172" cy="172" r="172" fill="#EAEEFF"/>
</g>
<g style="mix-blend-mode:multiply">
<circle cx="172" cy="172" r="172" fill="#D9FFF8"/>
</g>
</svg>
