<svg width="106" height="106" viewBox="0 0 106 106" fill="none" xmlns="http://www.w3.org/2000/svg">
<path d="M106 52.3226C106 79.7744 87.5223 106 53 106C19.464 106 0 79.7744 0 52.3226C0 24.8708 24.6731 2 53 2C81.3269 2 106 24.8708 106 52.3226Z" fill="#EEDEE5"/>
<ellipse cx="53" cy="54" rx="50.9615" ry="50" fill="#FFE2F0"/>
<path d="M35.7769 87.2C34.9102 87.2 34.1102 87.0733 33.3769 86.82C32.6436 86.5667 32.0569 86.2467 31.6169 85.86C31.1769 85.46 30.9569 85.04 30.9569 84.6C30.9569 84.3733 31.0169 84.1333 31.1369 83.88C31.2569 83.6133 31.4169 83.3867 31.6169 83.2C31.8302 83.0133 32.0636 82.92 32.3169 82.92C32.5569 82.92 32.7769 82.9933 32.9769 83.14C33.1902 83.2867 33.4169 83.46 33.6569 83.66C33.9102 83.86 34.1969 84.0333 34.5169 84.18C34.8502 84.3267 35.2502 84.4 35.7169 84.4C36.0236 84.4 36.3236 84.36 36.6169 84.28C36.9236 84.1867 37.1702 84.0467 37.3569 83.86C37.5569 83.66 37.6569 83.4 37.6569 83.08C37.6569 82.68 37.5036 82.3467 37.1969 82.08C36.8902 81.8 36.4969 81.5467 36.0169 81.32C35.5369 81.08 35.0236 80.8333 34.4769 80.58C33.9436 80.3267 33.4369 80.0267 32.9569 79.68C32.4769 79.32 32.0836 78.88 31.7769 78.36C31.4702 77.8267 31.3169 77.1733 31.3169 76.4C31.3169 75.6533 31.4636 75.02 31.7569 74.5C32.0502 73.9667 32.4436 73.54 32.9369 73.22C33.4302 72.8867 33.9769 72.6467 34.5769 72.5C35.1902 72.34 35.8102 72.26 36.4369 72.26C36.7036 72.26 37.0569 72.28 37.4969 72.32C37.9369 72.36 38.3769 72.44 38.8169 72.56C39.2702 72.68 39.6502 72.86 39.9569 73.1C40.2636 73.3267 40.4169 73.6333 40.4169 74.02C40.4169 74.1933 40.3702 74.4133 40.2769 74.68C40.1969 74.9333 40.0636 75.16 39.8769 75.36C39.7036 75.56 39.4702 75.66 39.1769 75.66C38.9369 75.66 38.7102 75.6 38.4969 75.48C38.2969 75.3467 38.0369 75.22 37.7169 75.1C37.4102 74.9667 36.9836 74.9 36.4369 74.9C35.7302 74.9 35.2169 75.0267 34.8969 75.28C34.5902 75.52 34.4369 75.7933 34.4369 76.1C34.4369 76.4333 34.5902 76.7133 34.8969 76.94C35.2036 77.1667 35.5969 77.3867 36.0769 77.6C36.5569 77.8 37.0636 78.0333 37.5969 78.3C38.1436 78.5533 38.6569 78.8667 39.1369 79.24C39.6169 79.6133 40.0102 80.0867 40.3169 80.66C40.6236 81.22 40.7769 81.92 40.7769 82.76C40.7769 83.72 40.5569 84.5333 40.1169 85.2C39.6902 85.8533 39.1036 86.3533 38.3569 86.7C37.6102 87.0333 36.7502 87.2 35.7769 87.2ZM43.681 91.34C43.241 91.34 42.8743 91.24 42.581 91.04C42.301 90.84 42.161 90.62 42.161 90.38V78.42C42.161 78.14 42.301 77.9133 42.581 77.74C42.8743 77.5667 43.2276 77.48 43.641 77.48C44.0543 77.48 44.3943 77.5667 44.661 77.74C44.9276 77.9133 45.061 78.14 45.061 78.42V78.88C45.2876 78.4933 45.6343 78.1467 46.101 77.84C46.581 77.52 47.1343 77.36 47.761 77.36C48.441 77.36 49.0476 77.5533 49.581 77.94C50.1276 78.3133 50.5543 78.82 50.861 79.46C51.181 80.0867 51.341 80.7867 51.341 81.56V82.96C51.341 83.6933 51.181 84.3867 50.861 85.04C50.541 85.68 50.1143 86.2 49.581 86.6C49.061 87 48.4876 87.2 47.861 87.2C47.2743 87.2 46.741 87.04 46.261 86.72C45.781 86.3867 45.4476 86.0133 45.261 85.6V90.38C45.261 90.62 45.1076 90.84 44.801 91.04C44.4943 91.24 44.121 91.34 43.681 91.34ZM46.761 84.5C47.1476 84.5 47.4876 84.34 47.781 84.02C48.0876 83.7 48.241 83.3467 48.241 82.96V81.56C48.241 81.1733 48.0943 80.8267 47.801 80.52C47.5076 80.2133 47.1476 80.06 46.721 80.06C46.361 80.06 46.0276 80.1933 45.721 80.46C45.4143 80.7267 45.261 81.0933 45.261 81.56V83.22C45.261 83.3267 45.321 83.4867 45.441 83.7C45.5743 83.9 45.7543 84.0867 45.981 84.26C46.2076 84.42 46.4676 84.5 46.761 84.5ZM56.985 87.2C56.1717 87.2 55.4184 87.0067 54.725 86.62C54.045 86.22 53.4917 85.7 53.065 85.06C52.6517 84.4067 52.445 83.7067 52.445 82.96V81.56C52.445 80.8133 52.645 80.12 53.045 79.48C53.4584 78.84 54.0117 78.3267 54.705 77.94C55.3984 77.5533 56.1584 77.36 56.985 77.36C57.7984 77.36 58.5517 77.5533 59.245 77.94C59.9384 78.3133 60.4917 78.82 60.905 79.46C61.3317 80.0867 61.545 80.7867 61.545 81.56V82.96C61.545 83.6933 61.3317 84.3867 60.905 85.04C60.4917 85.68 59.9384 86.2 59.245 86.6C58.5517 87 57.7984 87.2 56.985 87.2ZM56.985 84.5C57.385 84.5 57.725 84.3467 58.005 84.04C58.2984 83.72 58.445 83.36 58.445 82.96V81.56C58.445 81.1733 58.2984 80.8267 58.005 80.52C57.725 80.2133 57.385 80.06 56.985 80.06C56.585 80.06 56.245 80.2133 55.965 80.52C55.685 80.8267 55.545 81.1733 55.545 81.56V82.96C55.545 83.36 55.685 83.72 55.965 84.04C56.245 84.3467 56.585 84.5 56.985 84.5ZM64.5008 87C64.0608 87 63.6941 86.9 63.4008 86.7C63.1208 86.5 62.9808 86.28 62.9808 86.04V78.42C62.9808 78.14 63.1208 77.9133 63.4008 77.74C63.6941 77.5667 64.0608 77.48 64.5008 77.48C64.8875 77.48 65.2141 77.5667 65.4808 77.74C65.7475 77.9133 65.8808 78.14 65.8808 78.42V79.16C66.0141 78.8667 66.2008 78.5867 66.4408 78.32C66.6941 78.04 66.9741 77.8133 67.2808 77.64C67.6008 77.4533 67.9275 77.36 68.2608 77.36H68.8408C69.1341 77.36 69.3875 77.4933 69.6008 77.76C69.8275 78.0267 69.9408 78.34 69.9408 78.7C69.9408 79.0733 69.8275 79.3933 69.6008 79.66C69.3875 79.9267 69.1341 80.06 68.8408 80.06H68.2608C67.9008 80.06 67.5541 80.1867 67.2208 80.44C66.8875 80.68 66.6141 81.02 66.4008 81.46C66.1875 81.9 66.0808 82.4267 66.0808 83.04V86.04C66.0808 86.28 65.9275 86.5 65.6208 86.7C65.3141 86.9 64.9408 87 64.5008 87ZM74.7319 87C73.4652 87 72.4919 86.7333 71.8119 86.2C71.1452 85.6533 70.8119 84.7933 70.8119 83.62V74.28C70.8119 74 70.9786 73.7733 71.3119 73.6C71.6452 73.4267 71.9919 73.34 72.3519 73.34C72.7386 73.34 73.0919 73.4267 73.4119 73.6C73.7452 73.7733 73.9119 74 73.9119 74.28V77.48H76.1719C76.4252 77.48 76.6119 77.6 76.7319 77.84C76.8652 78.0667 76.9319 78.3133 76.9319 78.58C76.9319 78.86 76.8652 79.1133 76.7319 79.34C76.6119 79.5667 76.4252 79.68 76.1719 79.68H73.9119V83.62C73.9119 83.9133 73.9719 84.12 74.0919 84.24C74.2119 84.3467 74.4252 84.4 74.7319 84.4H75.5919C76.0452 84.4 76.3786 84.54 76.5919 84.82C76.8052 85.0867 76.9119 85.38 76.9119 85.7C76.9119 86.0333 76.8052 86.3333 76.5919 86.6C76.3786 86.8667 76.0452 87 75.5919 87H74.7319Z" fill="#32537A"/>
<g style="mix-blend-mode:overlay">
<g clip-path="url(#clip0)">
<path d="M70.2305 30.4754C69.8657 29.1246 68.7789 28.0633 67.3956 27.6996C65.5791 27.2246 62.7441 26.6605 59.4304 26.5938L71.3326 38.2313C71.2718 35.0027 70.7094 32.2492 70.2305 30.4754V30.4754ZM34.7367 59.5246C35.1015 60.8754 36.1884 61.9367 37.5716 62.3004C39.3881 62.7754 42.2231 63.3395 45.5369 63.4062L33.6346 51.7688C33.6954 54.9973 34.2579 57.7508 34.7367 59.5246ZM33.9539 47.0336L50.3859 63.1094C60.4564 61.6695 69.2957 54.2996 71.021 42.9664L54.5813 26.8906C44.5108 28.3305 35.6715 35.7004 33.9539 47.0336ZM58.0699 37.8602C58.3055 37.6301 58.6931 37.6301 58.9288 37.8602L59.7876 38.6988C60.0232 38.9289 60.0232 39.3074 59.7876 39.5375L57.6367 41.6379L59.7876 43.7383C60.0232 43.9684 60.0232 44.3469 59.7876 44.577L58.9288 45.4156C58.6931 45.6457 58.3055 45.6457 58.0699 45.4156L55.919 43.3152L54.2013 45L56.3522 47.1004C56.5878 47.3305 56.5878 47.709 56.3522 47.9391L55.4934 48.7777C55.2578 49.0078 54.8701 49.0078 54.6345 48.7777L52.4836 46.6773L50.7659 48.3547L52.9168 50.4551C53.1525 50.6852 53.1525 51.0637 52.9168 51.2937L52.058 52.1324C51.8224 52.3625 51.4348 52.3625 51.1992 52.1324L49.0482 50.032L46.8973 52.1324C46.6617 52.3625 46.2741 52.3625 46.0385 52.1324L45.1796 51.2937C44.944 51.0637 44.944 50.6852 45.1796 50.4551L47.3306 48.3547L45.1796 46.2617C44.944 46.0316 44.944 45.6531 45.1796 45.423L46.0385 44.5844C46.2741 44.3543 46.6617 44.3543 46.8973 44.5844L49.0482 46.6848L50.7659 45.0074L48.615 42.907C48.3794 42.677 48.3794 42.2984 48.615 42.0684L49.4739 41.2297C49.7095 40.9996 50.0971 40.9996 50.3327 41.2297L52.4836 43.3301L54.2013 41.6527L52.0504 39.5523C51.8148 39.3223 51.8148 38.9438 52.0504 38.7137L52.9092 37.875C53.1449 37.6449 53.5325 37.6449 53.7681 37.875L55.919 39.9754L58.0699 37.8602V37.8602Z" fill="black"/>
</g>
</g>
<defs>
<clipPath id="clip0">
<rect x="33.6346" y="26" width="37.6979" height="38" fill="white"/>
</clipPath>
</defs>
</svg>
