<svg width="106" height="106" viewBox="0 0 106 106" fill="none" xmlns="http://www.w3.org/2000/svg">
<path d="M106 51.2903C106 79.27 87.5223 106 53 106C19.464 106 0 79.27 0 51.2903C0 23.3106 24.6731 0 53 0C81.3269 0 106 23.3106 106 51.2903Z" fill="#EEDEE5"/>
<circle cx="53" cy="52" r="50" fill="#FFE2F0"/>
<path d="M36.2 84.2C35.3333 84.2 34.5333 84.0733 33.8 83.82C33.0667 83.5667 32.48 83.2467 32.04 82.86C31.6 82.46 31.38 82.04 31.38 81.6C31.38 81.3733 31.44 81.1333 31.56 80.88C31.68 80.6133 31.84 80.3867 32.04 80.2C32.2533 80.0133 32.4867 79.92 32.74 79.92C32.98 79.92 33.2 79.9933 33.4 80.14C33.6133 80.2867 33.84 80.46 34.08 80.66C34.3333 80.86 34.62 81.0333 34.94 81.18C35.2733 81.3267 35.6733 81.4 36.14 81.4C36.4467 81.4 36.7467 81.36 37.04 81.28C37.3467 81.1867 37.5933 81.0467 37.78 80.86C37.98 80.66 38.08 80.4 38.08 80.08C38.08 79.68 37.9267 79.3467 37.62 79.08C37.3133 78.8 36.92 78.5467 36.44 78.32C35.96 78.08 35.4467 77.8333 34.9 77.58C34.3667 77.3267 33.86 77.0267 33.38 76.68C32.9 76.32 32.5067 75.88 32.2 75.36C31.8933 74.8267 31.74 74.1733 31.74 73.4C31.74 72.6533 31.8867 72.02 32.18 71.5C32.4733 70.9667 32.8667 70.54 33.36 70.22C33.8533 69.8867 34.4 69.6467 35 69.5C35.6133 69.34 36.2333 69.26 36.86 69.26C37.1267 69.26 37.48 69.28 37.92 69.32C38.36 69.36 38.8 69.44 39.24 69.56C39.6933 69.68 40.0733 69.86 40.38 70.1C40.6867 70.3267 40.84 70.6333 40.84 71.02C40.84 71.1933 40.7933 71.4133 40.7 71.68C40.62 71.9333 40.4867 72.16 40.3 72.36C40.1267 72.56 39.8933 72.66 39.6 72.66C39.36 72.66 39.1333 72.6 38.92 72.48C38.72 72.3467 38.46 72.22 38.14 72.1C37.8333 71.9667 37.4067 71.9 36.86 71.9C36.1533 71.9 35.64 72.0267 35.32 72.28C35.0133 72.52 34.86 72.7933 34.86 73.1C34.86 73.4333 35.0133 73.7133 35.32 73.94C35.6267 74.1667 36.02 74.3867 36.5 74.6C36.98 74.8 37.4867 75.0333 38.02 75.3C38.5667 75.5533 39.08 75.8667 39.56 76.24C40.04 76.6133 40.4333 77.0867 40.74 77.66C41.0467 78.22 41.2 78.92 41.2 79.76C41.2 80.72 40.98 81.5333 40.54 82.2C40.1133 82.8533 39.5267 83.3533 38.78 83.7C38.0333 84.0333 37.1733 84.2 36.2 84.2ZM44.1041 88.34C43.6641 88.34 43.2974 88.24 43.0041 88.04C42.7241 87.84 42.5841 87.62 42.5841 87.38V75.42C42.5841 75.14 42.7241 74.9133 43.0041 74.74C43.2974 74.5667 43.6507 74.48 44.0641 74.48C44.4774 74.48 44.8174 74.5667 45.0841 74.74C45.3507 74.9133 45.4841 75.14 45.4841 75.42V75.88C45.7107 75.4933 46.0574 75.1467 46.5241 74.84C47.0041 74.52 47.5574 74.36 48.1841 74.36C48.8641 74.36 49.4707 74.5533 50.0041 74.94C50.5507 75.3133 50.9774 75.82 51.2841 76.46C51.6041 77.0867 51.7641 77.7867 51.7641 78.56V79.96C51.7641 80.6933 51.6041 81.3867 51.2841 82.04C50.9641 82.68 50.5374 83.2 50.0041 83.6C49.4841 84 48.9107 84.2 48.2841 84.2C47.6974 84.2 47.1641 84.04 46.6841 83.72C46.2041 83.3867 45.8707 83.0133 45.6841 82.6V87.38C45.6841 87.62 45.5307 87.84 45.2241 88.04C44.9174 88.24 44.5441 88.34 44.1041 88.34ZM47.1841 81.5C47.5707 81.5 47.9107 81.34 48.2041 81.02C48.5107 80.7 48.6641 80.3467 48.6641 79.96V78.56C48.6641 78.1733 48.5174 77.8267 48.2241 77.52C47.9307 77.2133 47.5707 77.06 47.1441 77.06C46.7841 77.06 46.4507 77.1933 46.1441 77.46C45.8374 77.7267 45.6841 78.0933 45.6841 78.56V80.22C45.6841 80.3267 45.7441 80.4867 45.8641 80.7C45.9974 80.9 46.1774 81.0867 46.4041 81.26C46.6307 81.42 46.8907 81.5 47.1841 81.5ZM57.4081 84.2C56.5948 84.2 55.8415 84.0067 55.1481 83.62C54.4681 83.22 53.9148 82.7 53.4881 82.06C53.0748 81.4067 52.8681 80.7067 52.8681 79.96V78.56C52.8681 77.8133 53.0681 77.12 53.4681 76.48C53.8815 75.84 54.4348 75.3267 55.1281 74.94C55.8215 74.5533 56.5815 74.36 57.4081 74.36C58.2215 74.36 58.9748 74.5533 59.6681 74.94C60.3615 75.3133 60.9148 75.82 61.3281 76.46C61.7548 77.0867 61.9681 77.7867 61.9681 78.56V79.96C61.9681 80.6933 61.7548 81.3867 61.3281 82.04C60.9148 82.68 60.3615 83.2 59.6681 83.6C58.9748 84 58.2215 84.2 57.4081 84.2ZM57.4081 81.5C57.8081 81.5 58.1481 81.3467 58.4281 81.04C58.7215 80.72 58.8681 80.36 58.8681 79.96V78.56C58.8681 78.1733 58.7215 77.8267 58.4281 77.52C58.1481 77.2133 57.8081 77.06 57.4081 77.06C57.0081 77.06 56.6681 77.2133 56.3881 77.52C56.1081 77.8267 55.9681 78.1733 55.9681 78.56V79.96C55.9681 80.36 56.1081 80.72 56.3881 81.04C56.6681 81.3467 57.0081 81.5 57.4081 81.5ZM64.9239 84C64.4839 84 64.1172 83.9 63.8239 83.7C63.5439 83.5 63.4039 83.28 63.4039 83.04V75.42C63.4039 75.14 63.5439 74.9133 63.8239 74.74C64.1172 74.5667 64.4839 74.48 64.9239 74.48C65.3106 74.48 65.6372 74.5667 65.9039 74.74C66.1706 74.9133 66.3039 75.14 66.3039 75.42V76.16C66.4372 75.8667 66.6239 75.5867 66.8639 75.32C67.1172 75.04 67.3972 74.8133 67.7039 74.64C68.0239 74.4533 68.3506 74.36 68.6839 74.36H69.2639C69.5572 74.36 69.8106 74.4933 70.0239 74.76C70.2506 75.0267 70.3639 75.34 70.3639 75.7C70.3639 76.0733 70.2506 76.3933 70.0239 76.66C69.8106 76.9267 69.5572 77.06 69.2639 77.06H68.6839C68.3239 77.06 67.9772 77.1867 67.6439 77.44C67.3106 77.68 67.0372 78.02 66.8239 78.46C66.6106 78.9 66.5039 79.4267 66.5039 80.04V83.04C66.5039 83.28 66.3506 83.5 66.0439 83.7C65.7372 83.9 65.3639 84 64.9239 84ZM75.155 84C73.8883 84 72.915 83.7333 72.235 83.2C71.5683 82.6533 71.235 81.7933 71.235 80.62V71.28C71.235 71 71.4017 70.7733 71.735 70.6C72.0683 70.4267 72.415 70.34 72.775 70.34C73.1617 70.34 73.515 70.4267 73.835 70.6C74.1683 70.7733 74.335 71 74.335 71.28V74.48H76.595C76.8483 74.48 77.035 74.6 77.155 74.84C77.2883 75.0667 77.355 75.3133 77.355 75.58C77.355 75.86 77.2883 76.1133 77.155 76.34C77.035 76.5667 76.8483 76.68 76.595 76.68H74.335V80.62C74.335 80.9133 74.395 81.12 74.515 81.24C74.635 81.3467 74.8483 81.4 75.155 81.4H76.015C76.4683 81.4 76.8017 81.54 77.015 81.82C77.2283 82.0867 77.335 82.38 77.335 82.7C77.335 83.0333 77.2283 83.3333 77.015 83.6C76.8017 83.8667 76.4683 84 76.015 84H75.155Z" fill="#32537A"/>
<g style="mix-blend-mode:overlay">
<g clip-path="url(#clip0)">
<path d="M70.9054 26.4754C70.5475 25.1246 69.4811 24.0633 68.1239 23.6996C66.3417 23.2246 63.5603 22.6605 60.309 22.5938L71.9867 34.2313C71.927 31.0027 71.3752 28.2492 70.9054 26.4754V26.4754ZM36.0813 55.5246C36.4392 56.8754 37.5055 57.9367 38.8627 58.3004C40.6449 58.7754 43.4264 59.3395 46.6776 59.4062L35 47.7688C35.0597 50.9973 35.6115 53.7508 36.0813 55.5246ZM35.3132 43.0336L51.4352 59.1094C61.3157 57.6695 69.9882 50.2996 71.6809 38.9664L55.5515 22.8906C45.671 24.3305 36.9985 31.7004 35.3132 43.0336ZM58.9742 33.8602C59.2054 33.6301 59.5857 33.6301 59.8169 33.8602L60.6595 34.6988C60.8907 34.9289 60.8907 35.3074 60.6595 35.5375L58.5492 37.6379L60.6595 39.7383C60.8907 39.9684 60.8907 40.3469 60.6595 40.577L59.8169 41.4156C59.5857 41.6457 59.2054 41.6457 58.9742 41.4156L56.8639 39.3152L55.1786 41L57.2889 43.1004C57.5201 43.3305 57.5201 43.709 57.2889 43.9391L56.4463 44.7777C56.2151 45.0078 55.8348 45.0078 55.6037 44.7777L53.4933 42.6773L51.8081 44.3547L53.9184 46.4551C54.1495 46.6852 54.1495 47.0637 53.9184 47.2937L53.0757 48.1324C52.8446 48.3625 52.4643 48.3625 52.2331 48.1324L50.1228 46.032L48.0124 48.1324C47.7813 48.3625 47.401 48.3625 47.1698 48.1324L46.3272 47.2937C46.096 47.0637 46.096 46.6852 46.3272 46.4551L48.4375 44.3547L46.3272 42.2617C46.096 42.0316 46.096 41.6531 46.3272 41.423L47.1698 40.5844C47.401 40.3543 47.7813 40.3543 48.0124 40.5844L50.1228 42.6848L51.8081 41.0074L49.6977 38.907C49.4666 38.677 49.4666 38.2984 49.6977 38.0684L50.5404 37.2297C50.7715 36.9996 51.1518 36.9996 51.383 37.2297L53.4933 39.3301L55.1786 37.6527L53.0683 35.5523C52.8371 35.3223 52.8371 34.9438 53.0683 34.7137L53.9109 33.875C54.1421 33.6449 54.5224 33.6449 54.7536 33.875L56.8639 35.9754L58.9742 33.8602V33.8602Z" fill="black"/>
</g>
</g>
<defs>
<clipPath id="clip0">
<rect x="35" y="22" width="36.9867" height="38" fill="white"/>
</clipPath>
</defs>
</svg>
