<svg width="106" height="106" viewBox="0 0 106 106" fill="none" xmlns="http://www.w3.org/2000/svg">
<path d="M106 51.2903C106 79.27 87.5223 106 53 106C19.464 106 0 79.27 0 51.2903C0 23.3106 24.6731 0 53 0C81.3269 0 106 23.3106 106 51.2903Z" fill="#BEEBD6"/>
<circle cx="53" cy="52" r="50" fill="#D1FFEA"/>
<path d="M26.64 82C26.2533 82 25.8933 81.92 25.56 81.76C25.24 81.6 25.08 81.36 25.08 81.04V68.32C25.08 68.0667 25.1867 67.8467 25.4 67.66C25.6133 67.4733 25.8933 67.38 26.24 67.38H30.38C31.26 67.38 32.0533 67.5333 32.76 67.84C33.48 68.1333 34.0467 68.62 34.46 69.3C34.8867 69.9667 35.1 70.86 35.1 71.98V72.08C35.1 73.2 34.88 74.1 34.44 74.78C34.0133 75.46 33.4267 75.9533 32.68 76.26C31.9333 76.5667 31.1 76.72 30.18 76.72H28.2V81.04C28.2 81.36 28.0333 81.6 27.7 81.76C27.38 81.92 27.0267 82 26.64 82ZM28.2 74.32H30.18C30.74 74.32 31.18 74.16 31.5 73.84C31.82 73.5067 31.98 73 31.98 72.32V72.1C31.98 71.42 31.82 70.92 31.5 70.6C31.18 70.2667 30.74 70.1 30.18 70.1H28.2V74.32ZM40.0175 82.2C39.2042 82.2 38.4508 82.0067 37.7575 81.62C37.0775 81.22 36.5242 80.7 36.0975 80.06C35.6842 79.4067 35.4775 78.7067 35.4775 77.96V76.56C35.4775 75.8133 35.6775 75.12 36.0775 74.48C36.4908 73.84 37.0442 73.3267 37.7375 72.94C38.4308 72.5533 39.1908 72.36 40.0175 72.36C40.8308 72.36 41.5842 72.5533 42.2775 72.94C42.9708 73.3133 43.5242 73.82 43.9375 74.46C44.3642 75.0867 44.5775 75.7867 44.5775 76.56V77.96C44.5775 78.6933 44.3642 79.3867 43.9375 80.04C43.5242 80.68 42.9708 81.2 42.2775 81.6C41.5842 82 40.8308 82.2 40.0175 82.2ZM40.0175 79.5C40.4175 79.5 40.7575 79.3467 41.0375 79.04C41.3308 78.72 41.4775 78.36 41.4775 77.96V76.56C41.4775 76.1733 41.3308 75.8267 41.0375 75.52C40.7575 75.2133 40.4175 75.06 40.0175 75.06C39.6175 75.06 39.2775 75.2133 38.9975 75.52C38.7175 75.8267 38.5775 76.1733 38.5775 76.56V77.96C38.5775 78.36 38.7175 78.72 38.9975 79.04C39.2775 79.3467 39.6175 79.5 40.0175 79.5ZM47.7333 82C47.2799 82 46.9066 81.9 46.6133 81.7C46.3333 81.5 46.1933 81.28 46.1933 81.04V67.98C46.1933 67.7 46.3333 67.4733 46.6133 67.3C46.9066 67.1267 47.2799 67.04 47.7333 67.04C48.1599 67.04 48.5266 67.1267 48.8333 67.3C49.1399 67.4733 49.2933 67.7 49.2933 67.98V81.04C49.2933 81.28 49.1399 81.5 48.8333 81.7C48.5266 81.9 48.1599 82 47.7333 82ZM52.8072 82C52.3539 82 51.9805 81.9 51.6872 81.7C51.4072 81.5 51.2672 81.28 51.2672 81.04V73.42C51.2672 73.14 51.4072 72.9133 51.6872 72.74C51.9805 72.5667 52.3539 72.48 52.8072 72.48C53.2339 72.48 53.6005 72.5667 53.9072 72.74C54.2139 72.9133 54.3672 73.14 54.3672 73.42V81.04C54.3672 81.28 54.2139 81.5 53.9072 81.7C53.6005 81.9 53.2339 82 52.8072 82ZM52.8072 70.64C52.3539 70.64 51.9672 70.4933 51.6472 70.2C51.3272 69.9067 51.1672 69.5733 51.1672 69.2C51.1672 68.8133 51.3272 68.48 51.6472 68.2C51.9672 67.92 52.3539 67.78 52.8072 67.78C53.2605 67.78 53.6405 67.92 53.9472 68.2C54.2672 68.48 54.4272 68.8133 54.4272 69.2C54.4272 69.5733 54.2672 69.9067 53.9472 70.2C53.6405 70.4933 53.2605 70.64 52.8072 70.64ZM60.03 82C58.7633 82 57.79 81.7333 57.11 81.2C56.4433 80.6533 56.11 79.7933 56.11 78.62V69.28C56.11 69 56.2767 68.7733 56.61 68.6C56.9433 68.4267 57.29 68.34 57.65 68.34C58.0367 68.34 58.39 68.4267 58.71 68.6C59.0433 68.7733 59.21 69 59.21 69.28V72.48H61.47C61.7233 72.48 61.91 72.6 62.03 72.84C62.1633 73.0667 62.23 73.3133 62.23 73.58C62.23 73.86 62.1633 74.1133 62.03 74.34C61.91 74.5667 61.7233 74.68 61.47 74.68H59.21V78.62C59.21 78.9133 59.27 79.12 59.39 79.24C59.51 79.3467 59.7233 79.4 60.03 79.4H60.89C61.3433 79.4 61.6767 79.54 61.89 79.82C62.1033 80.0867 62.21 80.38 62.21 80.7C62.21 81.0333 62.1033 81.3333 61.89 81.6C61.6767 81.8667 61.3433 82 60.89 82H60.03ZM64.9752 82C64.5218 82 64.1485 81.9 63.8552 81.7C63.5752 81.5 63.4352 81.28 63.4352 81.04V73.42C63.4352 73.14 63.5752 72.9133 63.8552 72.74C64.1485 72.5667 64.5218 72.48 64.9752 72.48C65.4018 72.48 65.7685 72.5667 66.0752 72.74C66.3818 72.9133 66.5352 73.14 66.5352 73.42V81.04C66.5352 81.28 66.3818 81.5 66.0752 81.7C65.7685 81.9 65.4018 82 64.9752 82ZM64.9752 70.64C64.5218 70.64 64.1352 70.4933 63.8152 70.2C63.4952 69.9067 63.3352 69.5733 63.3352 69.2C63.3352 68.8133 63.4952 68.48 63.8152 68.2C64.1352 67.92 64.5218 67.78 64.9752 67.78C65.4285 67.78 65.8085 67.92 66.1152 68.2C66.4352 68.48 66.5952 68.8133 66.5952 69.2C66.5952 69.5733 66.4352 69.9067 66.1152 70.2C65.8085 70.4933 65.4285 70.64 64.9752 70.64ZM72.518 82.2C71.4646 82.2 70.598 82.0133 69.918 81.64C69.2513 81.2667 68.758 80.76 68.438 80.12C68.1313 79.48 67.978 78.76 67.978 77.96V76.6C67.978 75.8 68.1313 75.08 68.438 74.44C68.758 73.8 69.2513 73.2933 69.918 72.92C70.5846 72.5467 71.438 72.36 72.478 72.36C73.1313 72.36 73.7113 72.44 74.218 72.6C74.7246 72.7467 75.1246 72.9467 75.418 73.2C75.7113 73.4533 75.858 73.7267 75.858 74.02C75.858 74.2067 75.8046 74.42 75.698 74.66C75.6046 74.9 75.4646 75.1067 75.278 75.28C75.1046 75.4533 74.898 75.54 74.658 75.54C74.498 75.54 74.338 75.5 74.178 75.42C74.0313 75.34 73.8446 75.26 73.618 75.18C73.3913 75.1 73.098 75.06 72.738 75.06C72.138 75.06 71.7113 75.1933 71.458 75.46C71.2046 75.7267 71.078 76.1067 71.078 76.6V77.96C71.078 78.4533 71.2046 78.8333 71.458 79.1C71.7113 79.3667 72.1446 79.5 72.758 79.5C73.118 79.5 73.4046 79.4533 73.618 79.36C73.8313 79.2667 74.0113 79.18 74.158 79.1C74.318 79.0067 74.4846 78.96 74.658 78.96C74.938 78.96 75.178 79.04 75.378 79.2C75.578 79.36 75.7246 79.56 75.818 79.8C75.9246 80.0267 75.978 80.24 75.978 80.44C75.978 80.7333 75.8246 81.02 75.518 81.3C75.2113 81.5667 74.798 81.7867 74.278 81.96C73.758 82.12 73.1713 82.2 72.518 82.2ZM80.4856 82.2C79.7923 82.2 79.1523 82.1133 78.5656 81.94C77.9923 81.7667 77.5323 81.54 77.1856 81.26C76.8523 80.98 76.6856 80.68 76.6856 80.36C76.6856 80.2 76.7256 80.0133 76.8056 79.8C76.899 79.5867 77.019 79.4 77.1656 79.24C77.3256 79.08 77.5056 79 77.7056 79C77.919 79 78.1323 79.08 78.3456 79.24C78.559 79.3867 78.819 79.5333 79.1256 79.68C79.4456 79.8267 79.8723 79.9 80.4056 79.9C80.939 79.9 81.279 79.8267 81.4256 79.68C81.5723 79.52 81.6456 79.3733 81.6456 79.24C81.6456 79.0133 81.5323 78.84 81.3056 78.72C81.079 78.5867 80.7856 78.48 80.4256 78.4C80.079 78.3067 79.7056 78.2067 79.3056 78.1C78.9056 77.98 78.5256 77.82 78.1656 77.62C77.819 77.42 77.5323 77.1467 77.3056 76.8C77.079 76.4533 76.9656 76 76.9656 75.44C76.9656 74.9467 77.079 74.4667 77.3056 74C77.5456 73.52 77.939 73.1267 78.4856 72.82C79.0323 72.5133 79.779 72.36 80.7256 72.36C81.3123 72.36 81.859 72.42 82.3656 72.54C82.8856 72.66 83.3056 72.8333 83.6256 73.06C83.959 73.2733 84.1256 73.52 84.1256 73.8C84.1256 73.9333 84.079 74.12 83.9856 74.36C83.9056 74.5867 83.779 74.7933 83.6056 74.98C83.4456 75.1667 83.2456 75.26 83.0056 75.26C82.8323 75.26 82.639 75.2133 82.4256 75.12C82.2123 75.0133 81.9723 74.9133 81.7056 74.82C81.439 74.7133 81.1256 74.66 80.7656 74.66C80.3656 74.66 80.0723 74.7333 79.8856 74.88C79.7123 75.0133 79.6256 75.1533 79.6256 75.3C79.6256 75.4867 79.739 75.6333 79.9656 75.74C80.1923 75.8333 80.4856 75.9267 80.8456 76.02C81.2056 76.1 81.5856 76.2 81.9856 76.32C82.3856 76.4267 82.7656 76.5933 83.1256 76.82C83.4856 77.0333 83.779 77.3267 84.0056 77.7C84.2323 78.06 84.3456 78.5333 84.3456 79.12C84.3456 80.0533 84.0123 80.8 83.3456 81.36C82.6923 81.92 81.739 82.2 80.4856 82.2Z" fill="#32537A"/>
<g style="mix-blend-mode:overlay">
<g clip-path="url(#clip0)">
<path d="M74.2144 44.75H69.455V49.5H71.1207C71.5149 49.5 71.8347 49.7672 71.8347 50.0938V51.2812C71.8347 51.6078 71.5149 51.875 71.1207 51.875H34.4733C34.0792 51.875 33.7594 51.6078 33.7594 51.2812V50.0938C33.7594 49.7672 34.0792 49.5 34.4733 49.5H36.1391V44.75H31.3797C30.0634 44.75 29 45.8113 29 47.125V54.25C29 55.5637 30.0634 56.625 31.3797 56.625H74.2144C75.5306 56.625 76.5941 55.5637 76.5941 54.25V47.125C76.5941 45.8113 75.5306 44.75 74.2144 44.75ZM67.0752 49.5V25.7723C67.0752 24.4438 65.9969 23.375 64.6732 23.375H40.9283C39.5971 23.375 38.5188 24.4512 38.5188 25.7723V49.5H67.0752ZM44.706 35.9922L46.6024 34.1145C46.9147 33.8027 47.4204 33.8027 47.7327 34.1219L50.804 37.2094L57.8836 30.2031C58.196 29.8914 58.7017 29.8914 59.014 30.2105L60.8955 32.1031C61.2078 32.4148 61.2078 32.9195 60.888 33.2313L51.3469 42.6719C51.0346 42.9836 50.5289 42.9836 50.2165 42.6645L44.706 37.1203C44.3863 36.8086 44.3937 36.3039 44.706 35.9922V35.9922Z" fill="black"/>
</g>
</g>
<defs>
<clipPath id="clip0">
<rect x="29" y="21" width="47.5941" height="38" fill="white"/>
</clipPath>
</defs>
</svg>
