<svg width="106" height="106" viewBox="0 0 106 106" fill="none" xmlns="http://www.w3.org/2000/svg">
<path d="M106 52.3226C106 79.7744 87.5223 106 53 106C19.464 106 0 79.7744 0 52.3226C0 24.8708 24.6731 2 53 2C81.3269 2 106 24.8708 106 52.3226Z" fill="#BEEBD6"/>
<ellipse cx="53" cy="54" rx="50.9615" ry="50" fill="#D1FFEA"/>
<path d="M25.0631 85C24.6764 85 24.3164 84.92 23.9831 84.76C23.6631 84.6 23.5031 84.36 23.5031 84.04V71.32C23.5031 71.0667 23.6098 70.8467 23.8231 70.66C24.0364 70.4733 24.3164 70.38 24.6631 70.38H28.8031C29.6831 70.38 30.4764 70.5333 31.1831 70.84C31.9031 71.1333 32.4698 71.62 32.8831 72.3C33.3098 72.9667 33.5231 73.86 33.5231 74.98V75.08C33.5231 76.2 33.3031 77.1 32.8631 77.78C32.4364 78.46 31.8498 78.9533 31.1031 79.26C30.3564 79.5667 29.5231 79.72 28.6031 79.72H26.6231V84.04C26.6231 84.36 26.4564 84.6 26.1231 84.76C25.8031 84.92 25.4498 85 25.0631 85ZM26.6231 77.32H28.6031C29.1631 77.32 29.6031 77.16 29.9231 76.84C30.2431 76.5067 30.4031 76 30.4031 75.32V75.1C30.4031 74.42 30.2431 73.92 29.9231 73.6C29.6031 73.2667 29.1631 73.1 28.6031 73.1H26.6231V77.32ZM38.4406 85.2C37.6273 85.2 36.8739 85.0067 36.1806 84.62C35.5006 84.22 34.9473 83.7 34.5206 83.06C34.1073 82.4067 33.9006 81.7067 33.9006 80.96V79.56C33.9006 78.8133 34.1006 78.12 34.5006 77.48C34.9139 76.84 35.4673 76.3267 36.1606 75.94C36.8539 75.5533 37.6139 75.36 38.4406 75.36C39.2539 75.36 40.0073 75.5533 40.7006 75.94C41.3939 76.3133 41.9473 76.82 42.3606 77.46C42.7873 78.0867 43.0006 78.7867 43.0006 79.56V80.96C43.0006 81.6933 42.7873 82.3867 42.3606 83.04C41.9473 83.68 41.3939 84.2 40.7006 84.6C40.0073 85 39.2539 85.2 38.4406 85.2ZM38.4406 82.5C38.8406 82.5 39.1806 82.3467 39.4606 82.04C39.7539 81.72 39.9006 81.36 39.9006 80.96V79.56C39.9006 79.1733 39.7539 78.8267 39.4606 78.52C39.1806 78.2133 38.8406 78.06 38.4406 78.06C38.0406 78.06 37.7006 78.2133 37.4206 78.52C37.1406 78.8267 37.0006 79.1733 37.0006 79.56V80.96C37.0006 81.36 37.1406 81.72 37.4206 82.04C37.7006 82.3467 38.0406 82.5 38.4406 82.5ZM46.1564 85C45.703 85 45.3297 84.9 45.0364 84.7C44.7564 84.5 44.6164 84.28 44.6164 84.04V70.98C44.6164 70.7 44.7564 70.4733 45.0364 70.3C45.3297 70.1267 45.703 70.04 46.1564 70.04C46.583 70.04 46.9497 70.1267 47.2564 70.3C47.563 70.4733 47.7164 70.7 47.7164 70.98V84.04C47.7164 84.28 47.563 84.5 47.2564 84.7C46.9497 84.9 46.583 85 46.1564 85ZM51.2303 85C50.777 85 50.4036 84.9 50.1103 84.7C49.8303 84.5 49.6903 84.28 49.6903 84.04V76.42C49.6903 76.14 49.8303 75.9133 50.1103 75.74C50.4036 75.5667 50.777 75.48 51.2303 75.48C51.657 75.48 52.0236 75.5667 52.3303 75.74C52.6369 75.9133 52.7903 76.14 52.7903 76.42V84.04C52.7903 84.28 52.6369 84.5 52.3303 84.7C52.0236 84.9 51.657 85 51.2303 85ZM51.2303 73.64C50.777 73.64 50.3903 73.4933 50.0703 73.2C49.7503 72.9067 49.5903 72.5733 49.5903 72.2C49.5903 71.8133 49.7503 71.48 50.0703 71.2C50.3903 70.92 50.777 70.78 51.2303 70.78C51.6836 70.78 52.0636 70.92 52.3703 71.2C52.6903 71.48 52.8503 71.8133 52.8503 72.2C52.8503 72.5733 52.6903 72.9067 52.3703 73.2C52.0636 73.4933 51.6836 73.64 51.2303 73.64ZM58.4531 85C57.1864 85 56.2131 84.7333 55.5331 84.2C54.8664 83.6533 54.5331 82.7933 54.5331 81.62V72.28C54.5331 72 54.6998 71.7733 55.0331 71.6C55.3664 71.4267 55.7131 71.34 56.0731 71.34C56.4598 71.34 56.8131 71.4267 57.1331 71.6C57.4664 71.7733 57.6331 72 57.6331 72.28V75.48H59.8931C60.1464 75.48 60.3331 75.6 60.4531 75.84C60.5864 76.0667 60.6531 76.3133 60.6531 76.58C60.6531 76.86 60.5864 77.1133 60.4531 77.34C60.3331 77.5667 60.1464 77.68 59.8931 77.68H57.6331V81.62C57.6331 81.9133 57.6931 82.12 57.8131 82.24C57.9331 82.3467 58.1464 82.4 58.4531 82.4H59.3131C59.7664 82.4 60.0998 82.54 60.3131 82.82C60.5264 83.0867 60.6331 83.38 60.6331 83.7C60.6331 84.0333 60.5264 84.3333 60.3131 84.6C60.0998 84.8667 59.7664 85 59.3131 85H58.4531ZM63.3983 85C62.9449 85 62.5716 84.9 62.2783 84.7C61.9983 84.5 61.8583 84.28 61.8583 84.04V76.42C61.8583 76.14 61.9983 75.9133 62.2783 75.74C62.5716 75.5667 62.9449 75.48 63.3983 75.48C63.8249 75.48 64.1916 75.5667 64.4983 75.74C64.8049 75.9133 64.9583 76.14 64.9583 76.42V84.04C64.9583 84.28 64.8049 84.5 64.4983 84.7C64.1916 84.9 63.8249 85 63.3983 85ZM63.3983 73.64C62.9449 73.64 62.5583 73.4933 62.2383 73.2C61.9183 72.9067 61.7583 72.5733 61.7583 72.2C61.7583 71.8133 61.9183 71.48 62.2383 71.2C62.5583 70.92 62.9449 70.78 63.3983 70.78C63.8516 70.78 64.2316 70.92 64.5383 71.2C64.8583 71.48 65.0183 71.8133 65.0183 72.2C65.0183 72.5733 64.8583 72.9067 64.5383 73.2C64.2316 73.4933 63.8516 73.64 63.3983 73.64ZM70.9411 85.2C69.8877 85.2 69.0211 85.0133 68.3411 84.64C67.6744 84.2667 67.1811 83.76 66.8611 83.12C66.5544 82.48 66.4011 81.76 66.4011 80.96V79.6C66.4011 78.8 66.5544 78.08 66.8611 77.44C67.1811 76.8 67.6744 76.2933 68.3411 75.92C69.0077 75.5467 69.8611 75.36 70.9011 75.36C71.5544 75.36 72.1344 75.44 72.6411 75.6C73.1477 75.7467 73.5477 75.9467 73.8411 76.2C74.1344 76.4533 74.2811 76.7267 74.2811 77.02C74.2811 77.2067 74.2277 77.42 74.1211 77.66C74.0277 77.9 73.8877 78.1067 73.7011 78.28C73.5277 78.4533 73.3211 78.54 73.0811 78.54C72.9211 78.54 72.7611 78.5 72.6011 78.42C72.4544 78.34 72.2677 78.26 72.0411 78.18C71.8144 78.1 71.5211 78.06 71.1611 78.06C70.5611 78.06 70.1344 78.1933 69.8811 78.46C69.6277 78.7267 69.5011 79.1067 69.5011 79.6V80.96C69.5011 81.4533 69.6277 81.8333 69.8811 82.1C70.1344 82.3667 70.5677 82.5 71.1811 82.5C71.5411 82.5 71.8277 82.4533 72.0411 82.36C72.2544 82.2667 72.4344 82.18 72.5811 82.1C72.7411 82.0067 72.9077 81.96 73.0811 81.96C73.3611 81.96 73.6011 82.04 73.8011 82.2C74.0011 82.36 74.1477 82.56 74.2411 82.8C74.3477 83.0267 74.4011 83.24 74.4011 83.44C74.4011 83.7333 74.2477 84.02 73.9411 84.3C73.6344 84.5667 73.2211 84.7867 72.7011 84.96C72.1811 85.12 71.5944 85.2 70.9411 85.2ZM78.9087 85.2C78.2154 85.2 77.5754 85.1133 76.9887 84.94C76.4154 84.7667 75.9554 84.54 75.6087 84.26C75.2754 83.98 75.1087 83.68 75.1087 83.36C75.1087 83.2 75.1487 83.0133 75.2287 82.8C75.3221 82.5867 75.4421 82.4 75.5887 82.24C75.7487 82.08 75.9287 82 76.1287 82C76.3421 82 76.5554 82.08 76.7687 82.24C76.9821 82.3867 77.2421 82.5333 77.5487 82.68C77.8687 82.8267 78.2954 82.9 78.8287 82.9C79.3621 82.9 79.7021 82.8267 79.8487 82.68C79.9954 82.52 80.0687 82.3733 80.0687 82.24C80.0687 82.0133 79.9554 81.84 79.7287 81.72C79.5021 81.5867 79.2087 81.48 78.8487 81.4C78.5021 81.3067 78.1287 81.2067 77.7287 81.1C77.3287 80.98 76.9487 80.82 76.5887 80.62C76.2421 80.42 75.9554 80.1467 75.7287 79.8C75.5021 79.4533 75.3887 79 75.3887 78.44C75.3887 77.9467 75.5021 77.4667 75.7287 77C75.9687 76.52 76.3621 76.1267 76.9087 75.82C77.4554 75.5133 78.2021 75.36 79.1487 75.36C79.7354 75.36 80.2821 75.42 80.7887 75.54C81.3087 75.66 81.7287 75.8333 82.0487 76.06C82.3821 76.2733 82.5487 76.52 82.5487 76.8C82.5487 76.9333 82.5021 77.12 82.4087 77.36C82.3287 77.5867 82.2021 77.7933 82.0287 77.98C81.8687 78.1667 81.6687 78.26 81.4287 78.26C81.2554 78.26 81.0621 78.2133 80.8487 78.12C80.6354 78.0133 80.3954 77.9133 80.1287 77.82C79.8621 77.7133 79.5487 77.66 79.1887 77.66C78.7887 77.66 78.4954 77.7333 78.3087 77.88C78.1354 78.0133 78.0487 78.1533 78.0487 78.3C78.0487 78.4867 78.1621 78.6333 78.3887 78.74C78.6154 78.8333 78.9087 78.9267 79.2687 79.02C79.6287 79.1 80.0087 79.2 80.4087 79.32C80.8087 79.4267 81.1887 79.5933 81.5487 79.82C81.9087 80.0333 82.2021 80.3267 82.4287 80.7C82.6554 81.06 82.7687 81.5333 82.7687 82.12C82.7687 83.0533 82.4354 83.8 81.7687 84.36C81.1154 84.92 80.1621 85.2 78.9087 85.2Z" fill="#32537A"/>
<g style="mix-blend-mode:overlay">
<g clip-path="url(#clip0)">
<path d="M73.6032 47.75H68.7522V52.5H70.45C70.8518 52.5 71.1777 52.7672 71.1777 53.0938V54.2812C71.1777 54.6078 70.8518 54.875 70.45 54.875H33.0979C32.6961 54.875 32.3702 54.6078 32.3702 54.2812V53.0938C32.3702 52.7672 32.6961 52.5 33.0979 52.5H34.7957V47.75H29.9448C28.6032 47.75 27.5193 48.8113 27.5193 50.125V57.25C27.5193 58.5637 28.6032 59.625 29.9448 59.625H73.6032C74.9447 59.625 76.0286 58.5637 76.0286 57.25V50.125C76.0286 48.8113 74.9447 47.75 73.6032 47.75ZM66.3268 52.5V28.7723C66.3268 27.4438 65.2277 26.375 63.8785 26.375H39.6769C38.3202 26.375 37.2212 27.4512 37.2212 28.7723V52.5H66.3268ZM43.5274 38.9922L45.4602 37.1145C45.7785 36.8027 46.2939 36.8027 46.6123 37.1219L49.7426 40.2094L56.9584 33.2031C57.2767 32.8914 57.7921 32.8914 58.1105 33.2105L60.0281 35.1031C60.3465 35.4148 60.3465 35.9195 60.0205 36.2313L50.2959 45.6719C49.9776 45.9836 49.4622 45.9836 49.1438 45.6645L43.5274 40.1203C43.2014 39.8086 43.209 39.3039 43.5274 38.9922V38.9922Z" fill="black"/>
</g>
</g>
<defs>
<clipPath id="clip0">
<rect x="27.5193" y="24" width="48.5093" height="38" fill="white"/>
</clipPath>
</defs>
</svg>
