<svg width="106" height="106" viewBox="0 0 106 106" fill="none" xmlns="http://www.w3.org/2000/svg">
<path d="M106 52.3226C106 79.7744 87.5223 106 53 106C19.464 106 0 79.7744 0 52.3226C0 24.8708 24.6731 2 53 2C81.3269 2 106 24.8708 106 52.3226Z" fill="#BEEBD6"/>
<ellipse cx="53" cy="54" rx="50.9615" ry="50" fill="#D1FFEA"/>
<path d="M18.44 83C18.0267 83 17.6933 82.9067 17.44 82.72C17.2 82.5333 17.08 82.3133 17.08 82.06V69.34C17.08 69.02 17.22 68.78 17.5 68.62C17.7933 68.46 18.1067 68.38 18.44 68.38H22.54C23.2067 68.38 23.8467 68.48 24.46 68.68C25.0733 68.88 25.5733 69.24 25.96 69.76C26.3467 70.2667 26.54 70.9933 26.54 71.94C26.54 72.7533 26.3867 73.4267 26.08 73.96C25.7867 74.48 25.3733 74.8533 24.84 75.08C25.2533 75.2267 25.6133 75.4267 25.92 75.68C26.2267 75.92 26.4667 76.2467 26.64 76.66C26.8133 77.0733 26.9 77.6133 26.9 78.28V78.7C26.9 79.7533 26.72 80.5933 26.36 81.22C26.0133 81.8467 25.5333 82.3 24.92 82.58C24.32 82.86 23.64 83 22.88 83H18.44ZM20.18 80.28H22.18C22.6867 80.28 23.08 80.1333 23.36 79.84C23.64 79.5467 23.78 79.08 23.78 78.44V78.12C23.78 77.44 23.64 76.9667 23.36 76.7C23.08 76.42 22.6867 76.28 22.18 76.28H20.18V80.28ZM20.18 73.88H22.28C22.6667 73.88 22.9533 73.7333 23.14 73.44C23.3267 73.1467 23.42 72.8333 23.42 72.5C23.42 72.1533 23.3267 71.8333 23.14 71.54C22.9533 71.2467 22.6667 71.1 22.28 71.1H20.18V73.88ZM32.8053 83.2C31.9786 83.2 31.2186 83.0067 30.5253 82.62C29.832 82.22 29.2786 81.7 28.8653 81.06C28.452 80.42 28.2453 79.7333 28.2453 79V74.44C28.2453 74.2 28.3986 73.98 28.7053 73.78C29.012 73.58 29.3786 73.48 29.8053 73.48C30.2186 73.48 30.5786 73.58 30.8853 73.78C31.192 73.98 31.3453 74.2 31.3453 74.44V79C31.3453 79.3733 31.4853 79.72 31.7653 80.04C32.0586 80.3467 32.4053 80.5 32.8053 80.5C33.2053 80.5 33.5453 80.3467 33.8253 80.04C34.1053 79.72 34.2453 79.3733 34.2453 79V74.42C34.2453 74.1667 34.3986 73.9467 34.7053 73.76C35.0253 73.5733 35.392 73.48 35.8053 73.48C36.2586 73.48 36.6253 73.5733 36.9053 73.76C37.1986 73.9467 37.3453 74.1667 37.3453 74.42V79C37.3453 79.7467 37.1386 80.44 36.7253 81.08C36.312 81.72 35.7586 82.2333 35.0653 82.62C34.3853 83.0067 33.632 83.2 32.8053 83.2ZM42.3684 83.2C41.6751 83.2 41.0351 83.1133 40.4484 82.94C39.8751 82.7667 39.4151 82.54 39.0684 82.26C38.7351 81.98 38.5684 81.68 38.5684 81.36C38.5684 81.2 38.6084 81.0133 38.6884 80.8C38.7818 80.5867 38.9018 80.4 39.0484 80.24C39.2084 80.08 39.3884 80 39.5884 80C39.8018 80 40.0151 80.08 40.2284 80.24C40.4418 80.3867 40.7018 80.5333 41.0084 80.68C41.3284 80.8267 41.7551 80.9 42.2884 80.9C42.8218 80.9 43.1618 80.8267 43.3084 80.68C43.4551 80.52 43.5284 80.3733 43.5284 80.24C43.5284 80.0133 43.4151 79.84 43.1884 79.72C42.9618 79.5867 42.6684 79.48 42.3084 79.4C41.9618 79.3067 41.5884 79.2067 41.1884 79.1C40.7884 78.98 40.4084 78.82 40.0484 78.62C39.7018 78.42 39.4151 78.1467 39.1884 77.8C38.9618 77.4533 38.8484 77 38.8484 76.44C38.8484 75.9467 38.9618 75.4667 39.1884 75C39.4284 74.52 39.8218 74.1267 40.3684 73.82C40.9151 73.5133 41.6618 73.36 42.6084 73.36C43.1951 73.36 43.7418 73.42 44.2484 73.54C44.7684 73.66 45.1884 73.8333 45.5084 74.06C45.8418 74.2733 46.0084 74.52 46.0084 74.8C46.0084 74.9333 45.9618 75.12 45.8684 75.36C45.7884 75.5867 45.6618 75.7933 45.4884 75.98C45.3284 76.1667 45.1284 76.26 44.8884 76.26C44.7151 76.26 44.5218 76.2133 44.3084 76.12C44.0951 76.0133 43.8551 75.9133 43.5884 75.82C43.3218 75.7133 43.0084 75.66 42.6484 75.66C42.2484 75.66 41.9551 75.7333 41.7684 75.88C41.5951 76.0133 41.5084 76.1533 41.5084 76.3C41.5084 76.4867 41.6218 76.6333 41.8484 76.74C42.0751 76.8333 42.3684 76.9267 42.7284 77.02C43.0884 77.1 43.4684 77.2 43.8684 77.32C44.2684 77.4267 44.6484 77.5933 45.0084 77.82C45.3684 78.0333 45.6618 78.3267 45.8884 78.7C46.1151 79.06 46.2284 79.5333 46.2284 80.12C46.2284 81.0533 45.8951 81.8 45.2284 82.36C44.5751 82.92 43.6218 83.2 42.3684 83.2ZM49.1627 83C48.7093 83 48.336 82.9 48.0427 82.7C47.7627 82.5 47.6227 82.28 47.6227 82.04V74.42C47.6227 74.14 47.7627 73.9133 48.0427 73.74C48.336 73.5667 48.7093 73.48 49.1627 73.48C49.5893 73.48 49.956 73.5667 50.2627 73.74C50.5693 73.9133 50.7227 74.14 50.7227 74.42V82.04C50.7227 82.28 50.5693 82.5 50.2627 82.7C49.956 82.9 49.5893 83 49.1627 83ZM49.1627 71.64C48.7093 71.64 48.3227 71.4933 48.0027 71.2C47.6827 70.9067 47.5227 70.5733 47.5227 70.2C47.5227 69.8133 47.6827 69.48 48.0027 69.2C48.3227 68.92 48.7093 68.78 49.1627 68.78C49.616 68.78 49.996 68.92 50.3027 69.2C50.6227 69.48 50.7827 69.8133 50.7827 70.2C50.7827 70.5733 50.6227 70.9067 50.3027 71.2C49.996 71.4933 49.616 71.64 49.1627 71.64ZM54.0455 83C53.5921 83 53.2188 82.9 52.9255 82.7C52.6455 82.5 52.5055 82.28 52.5055 82.04V74.42C52.5055 74.14 52.6455 73.9133 52.9255 73.74C53.2188 73.5667 53.5921 73.48 54.0455 73.48C54.4188 73.48 54.7388 73.5667 55.0055 73.74C55.2721 73.9133 55.4055 74.14 55.4055 74.42V74.88C55.5921 74.4933 55.9188 74.1467 56.3855 73.84C56.8521 73.52 57.4188 73.36 58.0855 73.36C58.6988 73.36 59.2588 73.5533 59.7655 73.94C60.2855 74.3133 60.6988 74.82 61.0055 75.46C61.3255 76.0867 61.4855 76.7867 61.4855 77.56V82.04C61.4855 82.36 61.3188 82.6 60.9855 82.76C60.6655 82.92 60.3121 83 59.9255 83C59.5655 83 59.2188 82.92 58.8855 82.76C58.5521 82.6 58.3855 82.36 58.3855 82.04V77.56C58.3855 77.1733 58.2455 76.8267 57.9655 76.52C57.6855 76.2133 57.3455 76.06 56.9455 76.06C56.6121 76.06 56.3055 76.1933 56.0255 76.46C55.7455 76.7267 55.6055 77.0933 55.6055 77.56V82.04C55.6055 82.28 55.4521 82.5 55.1455 82.7C54.8388 82.9 54.4721 83 54.0455 83ZM67.8891 83.2C66.9024 83.2 66.0291 83.0267 65.2691 82.68C64.5091 82.32 63.9091 81.82 63.4691 81.18C63.0424 80.54 62.8291 79.8 62.8291 78.96V77.5C62.8291 76.7533 63.0357 76.0667 63.4491 75.44C63.8624 74.8133 64.4157 74.3133 65.1091 73.94C65.8024 73.5533 66.5757 73.36 67.4291 73.36C68.2024 73.36 68.9091 73.52 69.5491 73.84C70.2024 74.16 70.7291 74.6067 71.1291 75.18C71.5291 75.74 71.7291 76.4 71.7291 77.16C71.7291 77.76 71.6291 78.1933 71.4291 78.46C71.2424 78.7133 70.9957 78.8733 70.6891 78.94C70.3957 78.9933 70.0957 79.02 69.7891 79.02H65.9291V79.14C65.9291 79.6333 66.1157 80.0333 66.4891 80.34C66.8624 80.6333 67.3557 80.78 67.9691 80.78C68.3824 80.78 68.7357 80.72 69.0291 80.6C69.3224 80.4667 69.5824 80.34 69.8091 80.22C70.0357 80.1 70.2557 80.04 70.4691 80.04C70.7091 80.04 70.9157 80.12 71.0891 80.28C71.2624 80.44 71.3891 80.6267 71.4691 80.84C71.5624 81.0533 71.6091 81.24 71.6091 81.4C71.6091 81.6533 71.4557 81.92 71.1491 82.2C70.8424 82.48 70.4091 82.72 69.8491 82.92C69.3024 83.1067 68.6491 83.2 67.8891 83.2ZM65.9291 77.28H68.4091C68.5557 77.28 68.6624 77.2467 68.7291 77.18C68.7957 77.1133 68.8291 76.9867 68.8291 76.8C68.8291 76.4 68.6757 76.1 68.3691 75.9C68.0757 75.7 67.7424 75.6 67.3691 75.6C67.0091 75.6 66.6757 75.7 66.3691 75.9C66.0757 76.1 65.9291 76.4 65.9291 76.8V77.28ZM76.4309 83.2C75.7376 83.2 75.0976 83.1133 74.5109 82.94C73.9376 82.7667 73.4776 82.54 73.1309 82.26C72.7976 81.98 72.6309 81.68 72.6309 81.36C72.6309 81.2 72.6709 81.0133 72.7509 80.8C72.8443 80.5867 72.9643 80.4 73.1109 80.24C73.2709 80.08 73.4509 80 73.6509 80C73.8643 80 74.0776 80.08 74.2909 80.24C74.5043 80.3867 74.7643 80.5333 75.0709 80.68C75.3909 80.8267 75.8176 80.9 76.3509 80.9C76.8843 80.9 77.2243 80.8267 77.3709 80.68C77.5176 80.52 77.5909 80.3733 77.5909 80.24C77.5909 80.0133 77.4776 79.84 77.2509 79.72C77.0243 79.5867 76.7309 79.48 76.3709 79.4C76.0243 79.3067 75.6509 79.2067 75.2509 79.1C74.8509 78.98 74.4709 78.82 74.1109 78.62C73.7643 78.42 73.4776 78.1467 73.2509 77.8C73.0243 77.4533 72.9109 77 72.9109 76.44C72.9109 75.9467 73.0243 75.4667 73.2509 75C73.4909 74.52 73.8843 74.1267 74.4309 73.82C74.9776 73.5133 75.7243 73.36 76.6709 73.36C77.2576 73.36 77.8043 73.42 78.3109 73.54C78.8309 73.66 79.2509 73.8333 79.5709 74.06C79.9043 74.2733 80.0709 74.52 80.0709 74.8C80.0709 74.9333 80.0243 75.12 79.9309 75.36C79.8509 75.5867 79.7243 75.7933 79.5509 75.98C79.3909 76.1667 79.1909 76.26 78.9509 76.26C78.7776 76.26 78.5843 76.2133 78.3709 76.12C78.1576 76.0133 77.9176 75.9133 77.6509 75.82C77.3843 75.7133 77.0709 75.66 76.7109 75.66C76.3109 75.66 76.0176 75.7333 75.8309 75.88C75.6576 76.0133 75.5709 76.1533 75.5709 76.3C75.5709 76.4867 75.6843 76.6333 75.9109 76.74C76.1376 76.8333 76.4309 76.9267 76.7909 77.02C77.1509 77.1 77.5309 77.2 77.9309 77.32C78.3309 77.4267 78.7109 77.5933 79.0709 77.82C79.4309 78.0333 79.7243 78.3267 79.9509 78.7C80.1776 79.06 80.2909 79.5333 80.2909 80.12C80.2909 81.0533 79.9576 81.8 79.2909 82.36C78.6376 82.92 77.6843 83.2 76.4309 83.2ZM85.0052 83.2C84.3118 83.2 83.6718 83.1133 83.0852 82.94C82.5118 82.7667 82.0518 82.54 81.7052 82.26C81.3718 81.98 81.2052 81.68 81.2052 81.36C81.2052 81.2 81.2452 81.0133 81.3252 80.8C81.4185 80.5867 81.5385 80.4 81.6852 80.24C81.8452 80.08 82.0252 80 82.2252 80C82.4385 80 82.6518 80.08 82.8652 80.24C83.0785 80.3867 83.3385 80.5333 83.6452 80.68C83.9652 80.8267 84.3918 80.9 84.9252 80.9C85.4585 80.9 85.7985 80.8267 85.9452 80.68C86.0918 80.52 86.1652 80.3733 86.1652 80.24C86.1652 80.0133 86.0518 79.84 85.8252 79.72C85.5985 79.5867 85.3052 79.48 84.9452 79.4C84.5985 79.3067 84.2252 79.2067 83.8252 79.1C83.4252 78.98 83.0452 78.82 82.6852 78.62C82.3385 78.42 82.0518 78.1467 81.8252 77.8C81.5985 77.4533 81.4852 77 81.4852 76.44C81.4852 75.9467 81.5985 75.4667 81.8252 75C82.0652 74.52 82.4585 74.1267 83.0052 73.82C83.5518 73.5133 84.2985 73.36 85.2452 73.36C85.8318 73.36 86.3785 73.42 86.8852 73.54C87.4052 73.66 87.8252 73.8333 88.1452 74.06C88.4785 74.2733 88.6452 74.52 88.6452 74.8C88.6452 74.9333 88.5985 75.12 88.5052 75.36C88.4252 75.5867 88.2985 75.7933 88.1252 75.98C87.9652 76.1667 87.7652 76.26 87.5252 76.26C87.3518 76.26 87.1585 76.2133 86.9452 76.12C86.7318 76.0133 86.4918 75.9133 86.2252 75.82C85.9585 75.7133 85.6452 75.66 85.2852 75.66C84.8852 75.66 84.5918 75.7333 84.4052 75.88C84.2318 76.0133 84.1452 76.1533 84.1452 76.3C84.1452 76.4867 84.2585 76.6333 84.4852 76.74C84.7118 76.8333 85.0052 76.9267 85.3652 77.02C85.7252 77.1 86.1052 77.2 86.5052 77.32C86.9052 77.4267 87.2852 77.5933 87.6452 77.82C88.0052 78.0333 88.2985 78.3267 88.5252 78.7C88.7518 79.06 88.8652 79.5333 88.8652 80.12C88.8652 81.0533 88.5318 81.8 87.8652 82.36C87.2118 82.92 86.2585 83.2 85.0052 83.2Z" fill="#32537A"/>
<g style="mix-blend-mode:overlay">
<path d="M57.75 49.9375C57.75 50.5936 57.2186 51.125 56.5625 51.125H49.4375C48.7814 51.125 48.25 50.5936 48.25 49.9375V46.375H34V57.0625C34 58.9625 35.6625 60.625 37.5625 60.625H68.4375C70.3375 60.625 72 58.9625 72 57.0625V46.375H57.75V49.9375ZM68.4375 34.5H62.5V30.9375C62.5 29.0375 60.8375 27.375 58.9375 27.375H47.0625C45.1625 27.375 43.5 29.0375 43.5 30.9375V34.5H37.5625C35.6625 34.5 34 36.1625 34 38.0625V44H72V38.0625C72 36.1625 70.3375 34.5 68.4375 34.5ZM57.75 34.5H48.25V32.125H57.75V34.5Z" fill="black"/>
</g>
</svg>
