<svg width="106" height="106" viewBox="0 0 106 106" fill="none" xmlns="http://www.w3.org/2000/svg">
<path d="M106 51.2903C106 79.27 87.5223 106 53 106C19.464 106 0 79.27 0 51.2903C0 23.3106 24.6731 0 53 0C81.3269 0 106 23.3106 106 51.2903Z" fill="#BEEBD6"/>
<circle cx="53" cy="52" r="50" fill="#D1FFEA"/>
<path d="M18.44 78C18.0267 78 17.6933 77.9067 17.44 77.72C17.2 77.5333 17.08 77.3133 17.08 77.06V64.34C17.08 64.02 17.22 63.78 17.5 63.62C17.7933 63.46 18.1067 63.38 18.44 63.38H22.54C23.2067 63.38 23.8467 63.48 24.46 63.68C25.0733 63.88 25.5733 64.24 25.96 64.76C26.3467 65.2667 26.54 65.9933 26.54 66.94C26.54 67.7533 26.3867 68.4267 26.08 68.96C25.7867 69.48 25.3733 69.8533 24.84 70.08C25.2533 70.2267 25.6133 70.4267 25.92 70.68C26.2267 70.92 26.4667 71.2467 26.64 71.66C26.8133 72.0733 26.9 72.6133 26.9 73.28V73.7C26.9 74.7533 26.72 75.5933 26.36 76.22C26.0133 76.8467 25.5333 77.3 24.92 77.58C24.32 77.86 23.64 78 22.88 78H18.44ZM20.18 75.28H22.18C22.6867 75.28 23.08 75.1333 23.36 74.84C23.64 74.5467 23.78 74.08 23.78 73.44V73.12C23.78 72.44 23.64 71.9667 23.36 71.7C23.08 71.42 22.6867 71.28 22.18 71.28H20.18V75.28ZM20.18 68.88H22.28C22.6667 68.88 22.9533 68.7333 23.14 68.44C23.3267 68.1467 23.42 67.8333 23.42 67.5C23.42 67.1533 23.3267 66.8333 23.14 66.54C22.9533 66.2467 22.6667 66.1 22.28 66.1H20.18V68.88ZM32.8053 78.2C31.9786 78.2 31.2186 78.0067 30.5253 77.62C29.832 77.22 29.2786 76.7 28.8653 76.06C28.452 75.42 28.2453 74.7333 28.2453 74V69.44C28.2453 69.2 28.3986 68.98 28.7053 68.78C29.012 68.58 29.3786 68.48 29.8053 68.48C30.2186 68.48 30.5786 68.58 30.8853 68.78C31.192 68.98 31.3453 69.2 31.3453 69.44V74C31.3453 74.3733 31.4853 74.72 31.7653 75.04C32.0586 75.3467 32.4053 75.5 32.8053 75.5C33.2053 75.5 33.5453 75.3467 33.8253 75.04C34.1053 74.72 34.2453 74.3733 34.2453 74V69.42C34.2453 69.1667 34.3986 68.9467 34.7053 68.76C35.0253 68.5733 35.392 68.48 35.8053 68.48C36.2586 68.48 36.6253 68.5733 36.9053 68.76C37.1986 68.9467 37.3453 69.1667 37.3453 69.42V74C37.3453 74.7467 37.1386 75.44 36.7253 76.08C36.312 76.72 35.7586 77.2333 35.0653 77.62C34.3853 78.0067 33.632 78.2 32.8053 78.2ZM42.3684 78.2C41.6751 78.2 41.0351 78.1133 40.4484 77.94C39.8751 77.7667 39.4151 77.54 39.0684 77.26C38.7351 76.98 38.5684 76.68 38.5684 76.36C38.5684 76.2 38.6084 76.0133 38.6884 75.8C38.7818 75.5867 38.9018 75.4 39.0484 75.24C39.2084 75.08 39.3884 75 39.5884 75C39.8018 75 40.0151 75.08 40.2284 75.24C40.4418 75.3867 40.7018 75.5333 41.0084 75.68C41.3284 75.8267 41.7551 75.9 42.2884 75.9C42.8218 75.9 43.1618 75.8267 43.3084 75.68C43.4551 75.52 43.5284 75.3733 43.5284 75.24C43.5284 75.0133 43.4151 74.84 43.1884 74.72C42.9618 74.5867 42.6684 74.48 42.3084 74.4C41.9618 74.3067 41.5884 74.2067 41.1884 74.1C40.7884 73.98 40.4084 73.82 40.0484 73.62C39.7018 73.42 39.4151 73.1467 39.1884 72.8C38.9618 72.4533 38.8484 72 38.8484 71.44C38.8484 70.9467 38.9618 70.4667 39.1884 70C39.4284 69.52 39.8218 69.1267 40.3684 68.82C40.9151 68.5133 41.6618 68.36 42.6084 68.36C43.1951 68.36 43.7418 68.42 44.2484 68.54C44.7684 68.66 45.1884 68.8333 45.5084 69.06C45.8418 69.2733 46.0084 69.52 46.0084 69.8C46.0084 69.9333 45.9618 70.12 45.8684 70.36C45.7884 70.5867 45.6618 70.7933 45.4884 70.98C45.3284 71.1667 45.1284 71.26 44.8884 71.26C44.7151 71.26 44.5218 71.2133 44.3084 71.12C44.0951 71.0133 43.8551 70.9133 43.5884 70.82C43.3218 70.7133 43.0084 70.66 42.6484 70.66C42.2484 70.66 41.9551 70.7333 41.7684 70.88C41.5951 71.0133 41.5084 71.1533 41.5084 71.3C41.5084 71.4867 41.6218 71.6333 41.8484 71.74C42.0751 71.8333 42.3684 71.9267 42.7284 72.02C43.0884 72.1 43.4684 72.2 43.8684 72.32C44.2684 72.4267 44.6484 72.5933 45.0084 72.82C45.3684 73.0333 45.6618 73.3267 45.8884 73.7C46.1151 74.06 46.2284 74.5333 46.2284 75.12C46.2284 76.0533 45.8951 76.8 45.2284 77.36C44.5751 77.92 43.6218 78.2 42.3684 78.2ZM49.1627 78C48.7093 78 48.336 77.9 48.0427 77.7C47.7627 77.5 47.6227 77.28 47.6227 77.04V69.42C47.6227 69.14 47.7627 68.9133 48.0427 68.74C48.336 68.5667 48.7093 68.48 49.1627 68.48C49.5893 68.48 49.956 68.5667 50.2627 68.74C50.5693 68.9133 50.7227 69.14 50.7227 69.42V77.04C50.7227 77.28 50.5693 77.5 50.2627 77.7C49.956 77.9 49.5893 78 49.1627 78ZM49.1627 66.64C48.7093 66.64 48.3227 66.4933 48.0027 66.2C47.6827 65.9067 47.5227 65.5733 47.5227 65.2C47.5227 64.8133 47.6827 64.48 48.0027 64.2C48.3227 63.92 48.7093 63.78 49.1627 63.78C49.616 63.78 49.996 63.92 50.3027 64.2C50.6227 64.48 50.7827 64.8133 50.7827 65.2C50.7827 65.5733 50.6227 65.9067 50.3027 66.2C49.996 66.4933 49.616 66.64 49.1627 66.64ZM54.0455 78C53.5921 78 53.2188 77.9 52.9255 77.7C52.6455 77.5 52.5055 77.28 52.5055 77.04V69.42C52.5055 69.14 52.6455 68.9133 52.9255 68.74C53.2188 68.5667 53.5921 68.48 54.0455 68.48C54.4188 68.48 54.7388 68.5667 55.0055 68.74C55.2721 68.9133 55.4055 69.14 55.4055 69.42V69.88C55.5921 69.4933 55.9188 69.1467 56.3855 68.84C56.8521 68.52 57.4188 68.36 58.0855 68.36C58.6988 68.36 59.2588 68.5533 59.7655 68.94C60.2855 69.3133 60.6988 69.82 61.0055 70.46C61.3255 71.0867 61.4855 71.7867 61.4855 72.56V77.04C61.4855 77.36 61.3188 77.6 60.9855 77.76C60.6655 77.92 60.3121 78 59.9255 78C59.5655 78 59.2188 77.92 58.8855 77.76C58.5521 77.6 58.3855 77.36 58.3855 77.04V72.56C58.3855 72.1733 58.2455 71.8267 57.9655 71.52C57.6855 71.2133 57.3455 71.06 56.9455 71.06C56.6121 71.06 56.3055 71.1933 56.0255 71.46C55.7455 71.7267 55.6055 72.0933 55.6055 72.56V77.04C55.6055 77.28 55.4521 77.5 55.1455 77.7C54.8388 77.9 54.4721 78 54.0455 78ZM67.8891 78.2C66.9024 78.2 66.0291 78.0267 65.2691 77.68C64.5091 77.32 63.9091 76.82 63.4691 76.18C63.0424 75.54 62.8291 74.8 62.8291 73.96V72.5C62.8291 71.7533 63.0357 71.0667 63.4491 70.44C63.8624 69.8133 64.4157 69.3133 65.1091 68.94C65.8024 68.5533 66.5757 68.36 67.4291 68.36C68.2024 68.36 68.9091 68.52 69.5491 68.84C70.2024 69.16 70.7291 69.6067 71.1291 70.18C71.5291 70.74 71.7291 71.4 71.7291 72.16C71.7291 72.76 71.6291 73.1933 71.4291 73.46C71.2424 73.7133 70.9957 73.8733 70.6891 73.94C70.3957 73.9933 70.0957 74.02 69.7891 74.02H65.9291V74.14C65.9291 74.6333 66.1157 75.0333 66.4891 75.34C66.8624 75.6333 67.3557 75.78 67.9691 75.78C68.3824 75.78 68.7357 75.72 69.0291 75.6C69.3224 75.4667 69.5824 75.34 69.8091 75.22C70.0357 75.1 70.2557 75.04 70.4691 75.04C70.7091 75.04 70.9157 75.12 71.0891 75.28C71.2624 75.44 71.3891 75.6267 71.4691 75.84C71.5624 76.0533 71.6091 76.24 71.6091 76.4C71.6091 76.6533 71.4557 76.92 71.1491 77.2C70.8424 77.48 70.4091 77.72 69.8491 77.92C69.3024 78.1067 68.6491 78.2 67.8891 78.2ZM65.9291 72.28H68.4091C68.5557 72.28 68.6624 72.2467 68.7291 72.18C68.7957 72.1133 68.8291 71.9867 68.8291 71.8C68.8291 71.4 68.6757 71.1 68.3691 70.9C68.0757 70.7 67.7424 70.6 67.3691 70.6C67.0091 70.6 66.6757 70.7 66.3691 70.9C66.0757 71.1 65.9291 71.4 65.9291 71.8V72.28ZM76.4309 78.2C75.7376 78.2 75.0976 78.1133 74.5109 77.94C73.9376 77.7667 73.4776 77.54 73.1309 77.26C72.7976 76.98 72.6309 76.68 72.6309 76.36C72.6309 76.2 72.6709 76.0133 72.7509 75.8C72.8443 75.5867 72.9643 75.4 73.1109 75.24C73.2709 75.08 73.4509 75 73.6509 75C73.8643 75 74.0776 75.08 74.2909 75.24C74.5043 75.3867 74.7643 75.5333 75.0709 75.68C75.3909 75.8267 75.8176 75.9 76.3509 75.9C76.8843 75.9 77.2243 75.8267 77.3709 75.68C77.5176 75.52 77.5909 75.3733 77.5909 75.24C77.5909 75.0133 77.4776 74.84 77.2509 74.72C77.0243 74.5867 76.7309 74.48 76.3709 74.4C76.0243 74.3067 75.6509 74.2067 75.2509 74.1C74.8509 73.98 74.4709 73.82 74.1109 73.62C73.7643 73.42 73.4776 73.1467 73.2509 72.8C73.0243 72.4533 72.9109 72 72.9109 71.44C72.9109 70.9467 73.0243 70.4667 73.2509 70C73.4909 69.52 73.8843 69.1267 74.4309 68.82C74.9776 68.5133 75.7243 68.36 76.6709 68.36C77.2576 68.36 77.8043 68.42 78.3109 68.54C78.8309 68.66 79.2509 68.8333 79.5709 69.06C79.9043 69.2733 80.0709 69.52 80.0709 69.8C80.0709 69.9333 80.0243 70.12 79.9309 70.36C79.8509 70.5867 79.7243 70.7933 79.5509 70.98C79.3909 71.1667 79.1909 71.26 78.9509 71.26C78.7776 71.26 78.5843 71.2133 78.3709 71.12C78.1576 71.0133 77.9176 70.9133 77.6509 70.82C77.3843 70.7133 77.0709 70.66 76.7109 70.66C76.3109 70.66 76.0176 70.7333 75.8309 70.88C75.6576 71.0133 75.5709 71.1533 75.5709 71.3C75.5709 71.4867 75.6843 71.6333 75.9109 71.74C76.1376 71.8333 76.4309 71.9267 76.7909 72.02C77.1509 72.1 77.5309 72.2 77.9309 72.32C78.3309 72.4267 78.7109 72.5933 79.0709 72.82C79.4309 73.0333 79.7243 73.3267 79.9509 73.7C80.1776 74.06 80.2909 74.5333 80.2909 75.12C80.2909 76.0533 79.9576 76.8 79.2909 77.36C78.6376 77.92 77.6843 78.2 76.4309 78.2ZM85.0052 78.2C84.3118 78.2 83.6718 78.1133 83.0852 77.94C82.5118 77.7667 82.0518 77.54 81.7052 77.26C81.3718 76.98 81.2052 76.68 81.2052 76.36C81.2052 76.2 81.2452 76.0133 81.3252 75.8C81.4185 75.5867 81.5385 75.4 81.6852 75.24C81.8452 75.08 82.0252 75 82.2252 75C82.4385 75 82.6518 75.08 82.8652 75.24C83.0785 75.3867 83.3385 75.5333 83.6452 75.68C83.9652 75.8267 84.3918 75.9 84.9252 75.9C85.4585 75.9 85.7985 75.8267 85.9452 75.68C86.0918 75.52 86.1652 75.3733 86.1652 75.24C86.1652 75.0133 86.0518 74.84 85.8252 74.72C85.5985 74.5867 85.3052 74.48 84.9452 74.4C84.5985 74.3067 84.2252 74.2067 83.8252 74.1C83.4252 73.98 83.0452 73.82 82.6852 73.62C82.3385 73.42 82.0518 73.1467 81.8252 72.8C81.5985 72.4533 81.4852 72 81.4852 71.44C81.4852 70.9467 81.5985 70.4667 81.8252 70C82.0652 69.52 82.4585 69.1267 83.0052 68.82C83.5518 68.5133 84.2985 68.36 85.2452 68.36C85.8318 68.36 86.3785 68.42 86.8852 68.54C87.4052 68.66 87.8252 68.8333 88.1452 69.06C88.4785 69.2733 88.6452 69.52 88.6452 69.8C88.6452 69.9333 88.5985 70.12 88.5052 70.36C88.4252 70.5867 88.2985 70.7933 88.1252 70.98C87.9652 71.1667 87.7652 71.26 87.5252 71.26C87.3518 71.26 87.1585 71.2133 86.9452 71.12C86.7318 71.0133 86.4918 70.9133 86.2252 70.82C85.9585 70.7133 85.6452 70.66 85.2852 70.66C84.8852 70.66 84.5918 70.7333 84.4052 70.88C84.2318 71.0133 84.1452 71.1533 84.1452 71.3C84.1452 71.4867 84.2585 71.6333 84.4852 71.74C84.7118 71.8333 85.0052 71.9267 85.3652 72.02C85.7252 72.1 86.1052 72.2 86.5052 72.32C86.9052 72.4267 87.2852 72.5933 87.6452 72.82C88.0052 73.0333 88.2985 73.3267 88.5252 73.7C88.7518 74.06 88.8652 74.5333 88.8652 75.12C88.8652 76.0533 88.5318 76.8 87.8652 77.36C87.2118 77.92 86.2585 78.2 85.0052 78.2Z" fill="#32537A"/>
<g style="mix-blend-mode:overlay">
<path d="M57.75 44.9375C57.75 45.5936 57.2186 46.125 56.5625 46.125H49.4375C48.7814 46.125 48.25 45.5936 48.25 44.9375V41.375H34V52.0625C34 53.9625 35.6625 55.625 37.5625 55.625H68.4375C70.3375 55.625 72 53.9625 72 52.0625V41.375H57.75V44.9375ZM68.4375 29.5H62.5V25.9375C62.5 24.0375 60.8375 22.375 58.9375 22.375H47.0625C45.1625 22.375 43.5 24.0375 43.5 25.9375V29.5H37.5625C35.6625 29.5 34 31.1625 34 33.0625V39H72V33.0625C72 31.1625 70.3375 29.5 68.4375 29.5ZM57.75 29.5H48.25V27.125H57.75V29.5Z" fill="black"/>
</g>
</svg>
