<svg width="106" height="106" viewBox="0 0 106 106" fill="none" xmlns="http://www.w3.org/2000/svg">
<path d="M106 52.3226C106 79.7744 87.5223 106 53 106C19.464 106 0 79.7744 0 52.3226C0 24.8708 24.6731 2 53 2C81.3269 2 106 24.8708 106 52.3226Z" fill="#B3D5FF"/>
<ellipse cx="53" cy="54" rx="50.9615" ry="50" fill="#D3E7FF"/>
<path d="M26.2 86.2C25.3333 86.2 24.5333 86.0733 23.8 85.82C23.0667 85.5667 22.48 85.2467 22.04 84.86C21.6 84.46 21.38 84.04 21.38 83.6C21.38 83.3733 21.44 83.1333 21.56 82.88C21.68 82.6133 21.84 82.3867 22.04 82.2C22.2533 82.0133 22.4867 81.92 22.74 81.92C22.98 81.92 23.2 81.9933 23.4 82.14C23.6133 82.2867 23.84 82.46 24.08 82.66C24.3333 82.86 24.62 83.0333 24.94 83.18C25.2733 83.3267 25.6733 83.4 26.14 83.4C26.4467 83.4 26.7467 83.36 27.04 83.28C27.3467 83.1867 27.5933 83.0467 27.78 82.86C27.98 82.66 28.08 82.4 28.08 82.08C28.08 81.68 27.9267 81.3467 27.62 81.08C27.3133 80.8 26.92 80.5467 26.44 80.32C25.96 80.08 25.4467 79.8333 24.9 79.58C24.3667 79.3267 23.86 79.0267 23.38 78.68C22.9 78.32 22.5067 77.88 22.2 77.36C21.8933 76.8267 21.74 76.1733 21.74 75.4C21.74 74.6533 21.8867 74.02 22.18 73.5C22.4733 72.9667 22.8667 72.54 23.36 72.22C23.8533 71.8867 24.4 71.6467 25 71.5C25.6133 71.34 26.2333 71.26 26.86 71.26C27.1267 71.26 27.48 71.28 27.92 71.32C28.36 71.36 28.8 71.44 29.24 71.56C29.6933 71.68 30.0733 71.86 30.38 72.1C30.6867 72.3267 30.84 72.6333 30.84 73.02C30.84 73.1933 30.7933 73.4133 30.7 73.68C30.62 73.9333 30.4867 74.16 30.3 74.36C30.1267 74.56 29.8933 74.66 29.6 74.66C29.36 74.66 29.1333 74.6 28.92 74.48C28.72 74.3467 28.46 74.22 28.14 74.1C27.8333 73.9667 27.4067 73.9 26.86 73.9C26.1533 73.9 25.64 74.0267 25.32 74.28C25.0133 74.52 24.86 74.7933 24.86 75.1C24.86 75.4333 25.0133 75.7133 25.32 75.94C25.6267 76.1667 26.02 76.3867 26.5 76.6C26.98 76.8 27.4867 77.0333 28.02 77.3C28.5667 77.5533 29.08 77.8667 29.56 78.24C30.04 78.6133 30.4333 79.0867 30.74 79.66C31.0467 80.22 31.2 80.92 31.2 81.76C31.2 82.72 30.98 83.5333 30.54 84.2C30.1133 84.8533 29.5267 85.3533 28.78 85.7C28.0333 86.0333 27.1733 86.2 26.2 86.2ZM36.7641 86.2C35.7107 86.2 34.8441 86.0133 34.1641 85.64C33.4974 85.2667 33.0041 84.76 32.6841 84.12C32.3774 83.48 32.2241 82.76 32.2241 81.96V80.6C32.2241 79.8 32.3774 79.08 32.6841 78.44C33.0041 77.8 33.4974 77.2933 34.1641 76.92C34.8307 76.5467 35.6841 76.36 36.7241 76.36C37.3774 76.36 37.9574 76.44 38.4641 76.6C38.9707 76.7467 39.3707 76.9467 39.6641 77.2C39.9574 77.4533 40.1041 77.7267 40.1041 78.02C40.1041 78.2067 40.0507 78.42 39.9441 78.66C39.8507 78.9 39.7107 79.1067 39.5241 79.28C39.3507 79.4533 39.1441 79.54 38.9041 79.54C38.7441 79.54 38.5841 79.5 38.4241 79.42C38.2774 79.34 38.0907 79.26 37.8641 79.18C37.6374 79.1 37.3441 79.06 36.9841 79.06C36.3841 79.06 35.9574 79.1933 35.7041 79.46C35.4507 79.7267 35.3241 80.1067 35.3241 80.6V81.96C35.3241 82.4533 35.4507 82.8333 35.7041 83.1C35.9574 83.3667 36.3907 83.5 37.0041 83.5C37.3641 83.5 37.6507 83.4533 37.8641 83.36C38.0774 83.2667 38.2574 83.18 38.4041 83.1C38.5641 83.0067 38.7307 82.96 38.9041 82.96C39.1841 82.96 39.4241 83.04 39.6241 83.2C39.8241 83.36 39.9707 83.56 40.0641 83.8C40.1707 84.0267 40.2241 84.24 40.2241 84.44C40.2241 84.7333 40.0707 85.02 39.7641 85.3C39.4574 85.5667 39.0441 85.7867 38.5241 85.96C38.0041 86.12 37.4174 86.2 36.7641 86.2ZM42.9517 86C42.4984 86 42.1251 85.9 41.8317 85.7C41.5517 85.5 41.4117 85.28 41.4117 85.04V77.42C41.4117 77.14 41.5517 76.9133 41.8317 76.74C42.1251 76.5667 42.4984 76.48 42.9517 76.48C43.3784 76.48 43.7451 76.5667 44.0517 76.74C44.3584 76.9133 44.5117 77.14 44.5117 77.42V85.04C44.5117 85.28 44.3584 85.5 44.0517 85.7C43.7451 85.9 43.3784 86 42.9517 86ZM42.9517 74.64C42.4984 74.64 42.1117 74.4933 41.7917 74.2C41.4717 73.9067 41.3117 73.5733 41.3117 73.2C41.3117 72.8133 41.4717 72.48 41.7917 72.2C42.1117 71.92 42.4984 71.78 42.9517 71.78C43.4051 71.78 43.7851 71.92 44.0917 72.2C44.4117 72.48 44.5717 72.8133 44.5717 73.2C44.5717 73.5733 44.4117 73.9067 44.0917 74.2C43.7851 74.4933 43.4051 74.64 42.9517 74.64ZM50.9945 86.2C50.0079 86.2 49.1345 86.0267 48.3745 85.68C47.6145 85.32 47.0145 84.82 46.5745 84.18C46.1479 83.54 45.9345 82.8 45.9345 81.96V80.5C45.9345 79.7533 46.1412 79.0667 46.5545 78.44C46.9679 77.8133 47.5212 77.3133 48.2145 76.94C48.9079 76.5533 49.6812 76.36 50.5345 76.36C51.3079 76.36 52.0145 76.52 52.6545 76.84C53.3079 77.16 53.8345 77.6067 54.2345 78.18C54.6345 78.74 54.8345 79.4 54.8345 80.16C54.8345 80.76 54.7345 81.1933 54.5345 81.46C54.3479 81.7133 54.1012 81.8733 53.7945 81.94C53.5012 81.9933 53.2012 82.02 52.8945 82.02H49.0345V82.14C49.0345 82.6333 49.2212 83.0333 49.5945 83.34C49.9679 83.6333 50.4612 83.78 51.0745 83.78C51.4879 83.78 51.8412 83.72 52.1345 83.6C52.4279 83.4667 52.6879 83.34 52.9145 83.22C53.1412 83.1 53.3612 83.04 53.5745 83.04C53.8145 83.04 54.0212 83.12 54.1945 83.28C54.3679 83.44 54.4945 83.6267 54.5745 83.84C54.6679 84.0533 54.7145 84.24 54.7145 84.4C54.7145 84.6533 54.5612 84.92 54.2545 85.2C53.9479 85.48 53.5145 85.72 52.9545 85.92C52.4079 86.1067 51.7545 86.2 50.9945 86.2ZM49.0345 80.28H51.5145C51.6612 80.28 51.7679 80.2467 51.8345 80.18C51.9012 80.1133 51.9345 79.9867 51.9345 79.8C51.9345 79.4 51.7812 79.1 51.4745 78.9C51.1812 78.7 50.8479 78.6 50.4745 78.6C50.1145 78.6 49.7812 78.7 49.4745 78.9C49.1812 79.1 49.0345 79.4 49.0345 79.8V80.28ZM57.7564 86C57.3031 86 56.9297 85.9 56.6364 85.7C56.3564 85.5 56.2164 85.28 56.2164 85.04V77.42C56.2164 77.14 56.3564 76.9133 56.6364 76.74C56.9297 76.5667 57.3031 76.48 57.7564 76.48C58.1297 76.48 58.4497 76.5667 58.7164 76.74C58.9831 76.9133 59.1164 77.14 59.1164 77.42V77.88C59.3031 77.4933 59.6297 77.1467 60.0964 76.84C60.5631 76.52 61.1297 76.36 61.7964 76.36C62.4097 76.36 62.9697 76.5533 63.4764 76.94C63.9964 77.3133 64.4097 77.82 64.7164 78.46C65.0364 79.0867 65.1964 79.7867 65.1964 80.56V85.04C65.1964 85.36 65.0297 85.6 64.6964 85.76C64.3764 85.92 64.0231 86 63.6364 86C63.2764 86 62.9297 85.92 62.5964 85.76C62.2631 85.6 62.0964 85.36 62.0964 85.04V80.56C62.0964 80.1733 61.9564 79.8267 61.6764 79.52C61.3964 79.2133 61.0564 79.06 60.6564 79.06C60.3231 79.06 60.0164 79.1933 59.7364 79.46C59.4564 79.7267 59.3164 80.0933 59.3164 80.56V85.04C59.3164 85.28 59.1631 85.5 58.8564 85.7C58.5497 85.9 58.1831 86 57.7564 86ZM71.1 86.2C70.0467 86.2 69.18 86.0133 68.5 85.64C67.8333 85.2667 67.34 84.76 67.02 84.12C66.7133 83.48 66.56 82.76 66.56 81.96V80.6C66.56 79.8 66.7133 79.08 67.02 78.44C67.34 77.8 67.8333 77.2933 68.5 76.92C69.1667 76.5467 70.02 76.36 71.06 76.36C71.7133 76.36 72.2933 76.44 72.8 76.6C73.3067 76.7467 73.7067 76.9467 74 77.2C74.2933 77.4533 74.44 77.7267 74.44 78.02C74.44 78.2067 74.3867 78.42 74.28 78.66C74.1867 78.9 74.0467 79.1067 73.86 79.28C73.6867 79.4533 73.48 79.54 73.24 79.54C73.08 79.54 72.92 79.5 72.76 79.42C72.6133 79.34 72.4267 79.26 72.2 79.18C71.9733 79.1 71.68 79.06 71.32 79.06C70.72 79.06 70.2933 79.1933 70.04 79.46C69.7867 79.7267 69.66 80.1067 69.66 80.6V81.96C69.66 82.4533 69.7867 82.8333 70.04 83.1C70.2933 83.3667 70.7267 83.5 71.34 83.5C71.7 83.5 71.9867 83.4533 72.2 83.36C72.4133 83.2667 72.5933 83.18 72.74 83.1C72.9 83.0067 73.0667 82.96 73.24 82.96C73.52 82.96 73.76 83.04 73.96 83.2C74.16 83.36 74.3067 83.56 74.4 83.8C74.5067 84.0267 74.56 84.24 74.56 84.44C74.56 84.7333 74.4067 85.02 74.1 85.3C73.7933 85.5667 73.38 85.7867 72.86 85.96C72.34 86.12 71.7533 86.2 71.1 86.2ZM80.3695 86.2C79.3829 86.2 78.5095 86.0267 77.7495 85.68C76.9895 85.32 76.3895 84.82 75.9495 84.18C75.5229 83.54 75.3095 82.8 75.3095 81.96V80.5C75.3095 79.7533 75.5162 79.0667 75.9295 78.44C76.3429 77.8133 76.8962 77.3133 77.5895 76.94C78.2829 76.5533 79.0562 76.36 79.9095 76.36C80.6829 76.36 81.3895 76.52 82.0295 76.84C82.6829 77.16 83.2095 77.6067 83.6095 78.18C84.0095 78.74 84.2095 79.4 84.2095 80.16C84.2095 80.76 84.1095 81.1933 83.9095 81.46C83.7229 81.7133 83.4762 81.8733 83.1695 81.94C82.8762 81.9933 82.5762 82.02 82.2695 82.02H78.4095V82.14C78.4095 82.6333 78.5962 83.0333 78.9695 83.34C79.3429 83.6333 79.8362 83.78 80.4495 83.78C80.8629 83.78 81.2162 83.72 81.5095 83.6C81.8029 83.4667 82.0629 83.34 82.2895 83.22C82.5162 83.1 82.7362 83.04 82.9495 83.04C83.1895 83.04 83.3962 83.12 83.5695 83.28C83.7429 83.44 83.8695 83.6267 83.9495 83.84C84.0429 84.0533 84.0895 84.24 84.0895 84.4C84.0895 84.6533 83.9362 84.92 83.6295 85.2C83.3229 85.48 82.8895 85.72 82.3295 85.92C81.7829 86.1067 81.1295 86.2 80.3695 86.2ZM78.4095 80.28H80.8895C81.0362 80.28 81.1429 80.2467 81.2095 80.18C81.2762 80.1133 81.3095 79.9867 81.3095 79.8C81.3095 79.4 81.1562 79.1 80.8495 78.9C80.5562 78.7 80.2229 78.6 79.8495 78.6C79.4895 78.6 79.1562 78.7 78.8495 78.9C78.5562 79.1 78.4095 79.4 78.4095 79.8V80.28Z" fill="#32537A"/>
<g style="mix-blend-mode:overlay">
<path d="M53.4999 39.5C53.0055 39.5001 52.5222 39.6468 52.1112 39.9216C51.7001 40.1964 51.3798 40.5869 51.1907 41.0437C51.0015 41.5005 50.9521 42.0032 51.0486 42.4881C51.1452 42.973 51.3833 43.4184 51.733 43.768C52.0826 44.1176 52.5281 44.3556 53.013 44.452C53.498 44.5484 54.0006 44.4989 54.4574 44.3096C54.9142 44.1204 55.3046 43.8 55.5792 43.3889C55.8539 42.9778 56.0005 42.4944 56.0005 42C55.9992 41.3373 55.7353 40.7021 55.2666 40.2335C54.7979 39.7649 54.1627 39.5012 53.4999 39.5V39.5ZM70.2321 32C69.3823 30.4766 67.0673 28.0352 61.1481 28.7285C59.4681 24.7246 56.9089 22 53.4999 22C50.091 22 47.5319 24.7246 45.8518 28.7285C39.9326 28.0449 37.6177 30.4766 36.7679 32C35.4883 34.2949 35.5957 37.7129 38.7311 42C35.5957 46.2871 35.4883 49.7051 36.7679 52C39.0437 56.0918 44.709 55.4082 45.8518 55.2715C47.5319 59.2754 50.091 62 53.4999 62C56.9089 62 59.4681 59.2754 61.1481 55.2715C62.291 55.4082 67.9562 56.0918 70.2321 52C71.5117 49.7051 71.4043 46.2871 68.2687 42C71.4043 37.7129 71.5117 34.2949 70.2321 32H70.2321ZM40.9483 49.5C40.6358 48.9336 40.9386 47.5664 42.1205 45.7305C42.6578 46.2383 43.2243 46.7363 43.83 47.2246C43.9569 48.2988 44.1425 49.3438 44.3573 50.3594C42.4332 50.4277 41.2415 50.0176 40.9483 49.5ZM43.83 36.7754C43.2243 37.2637 42.6578 37.7617 42.1205 38.2695C40.9386 36.4336 40.6358 35.0664 40.9483 34.5C41.2122 34.0215 42.2279 33.6016 43.9081 33.6016C44.0448 33.6016 44.2108 33.6309 44.3573 33.6309C44.1327 34.6758 43.9569 35.7207 43.83 36.7754V36.7754ZM53.4999 27C54.2423 27 55.2387 28.0547 56.147 29.9102C55.2679 30.2031 54.3889 30.5352 53.4999 30.916C52.6111 30.5352 51.732 30.2031 50.8528 29.9102C51.7613 28.0547 52.7576 27 53.4999 27ZM53.4999 57C52.7576 57 51.7613 55.9453 50.8528 54.0898C51.732 53.7969 52.6111 53.4648 53.4999 53.084C54.3889 53.4648 55.268 53.7969 56.147 54.0898C55.2387 55.9453 54.2423 57 53.4999 57ZM53.4999 48.25C52.2638 48.25 51.0554 47.8834 50.0276 47.1967C48.9998 46.5099 48.1987 45.5338 47.7257 44.3918C47.2526 43.2497 47.1289 41.9931 47.37 40.7807C47.6112 39.5683 48.2064 38.4547 49.0805 37.5806C49.9546 36.7065 51.0682 36.1112 52.2806 35.8701C53.493 35.6289 54.7497 35.7527 55.8917 36.2258C57.0337 36.6988 58.0098 37.4999 58.6966 38.5277C59.3834 39.5555 59.7499 40.7639 59.7499 42C59.7499 43.6576 59.0914 45.2473 57.9193 46.4194C56.7472 47.5915 55.1575 48.25 53.4999 48.25V48.25ZM66.0515 49.5C65.7683 50.0176 64.5668 50.4277 62.6425 50.3594C62.8575 49.3438 63.0431 48.2988 63.17 47.2246C63.7756 46.7363 64.3422 46.2383 64.8793 45.7305C66.0613 47.5664 66.364 48.9336 66.0515 49.5ZM64.8793 38.2695C64.3422 37.7617 63.7756 37.2637 63.17 36.7754C63.0431 35.7207 62.8673 34.6758 62.6425 33.6309C62.789 33.6309 62.9552 33.6016 63.0919 33.6016C64.7719 33.6016 65.7878 34.0215 66.0515 34.5C66.364 35.0664 66.0613 36.4336 64.8793 38.2695Z" fill="black"/>
</g>
</svg>
