<svg width="106" height="106" viewBox="0 0 106 106" fill="none" xmlns="http://www.w3.org/2000/svg">
<path d="M106 51.2903C106 79.27 87.5223 106 53 106C19.464 106 0 79.27 0 51.2903C0 23.3106 24.6731 0 53 0C81.3269 0 106 23.3106 106 51.2903Z" fill="#B3D5FF"/>
<circle cx="53" cy="52" r="50" fill="#D3E7FF"/>
<path d="M27.2 85.2C26.3333 85.2 25.5333 85.0733 24.8 84.82C24.0667 84.5667 23.48 84.2467 23.04 83.86C22.6 83.46 22.38 83.04 22.38 82.6C22.38 82.3733 22.44 82.1333 22.56 81.88C22.68 81.6133 22.84 81.3867 23.04 81.2C23.2533 81.0133 23.4867 80.92 23.74 80.92C23.98 80.92 24.2 80.9933 24.4 81.14C24.6133 81.2867 24.84 81.46 25.08 81.66C25.3333 81.86 25.62 82.0333 25.94 82.18C26.2733 82.3267 26.6733 82.4 27.14 82.4C27.4467 82.4 27.7467 82.36 28.04 82.28C28.3467 82.1867 28.5933 82.0467 28.78 81.86C28.98 81.66 29.08 81.4 29.08 81.08C29.08 80.68 28.9267 80.3467 28.62 80.08C28.3133 79.8 27.92 79.5467 27.44 79.32C26.96 79.08 26.4467 78.8333 25.9 78.58C25.3667 78.3267 24.86 78.0267 24.38 77.68C23.9 77.32 23.5067 76.88 23.2 76.36C22.8933 75.8267 22.74 75.1733 22.74 74.4C22.74 73.6533 22.8867 73.02 23.18 72.5C23.4733 71.9667 23.8667 71.54 24.36 71.22C24.8533 70.8867 25.4 70.6467 26 70.5C26.6133 70.34 27.2333 70.26 27.86 70.26C28.1267 70.26 28.48 70.28 28.92 70.32C29.36 70.36 29.8 70.44 30.24 70.56C30.6933 70.68 31.0733 70.86 31.38 71.1C31.6867 71.3267 31.84 71.6333 31.84 72.02C31.84 72.1933 31.7933 72.4133 31.7 72.68C31.62 72.9333 31.4867 73.16 31.3 73.36C31.1267 73.56 30.8933 73.66 30.6 73.66C30.36 73.66 30.1333 73.6 29.92 73.48C29.72 73.3467 29.46 73.22 29.14 73.1C28.8333 72.9667 28.4067 72.9 27.86 72.9C27.1533 72.9 26.64 73.0267 26.32 73.28C26.0133 73.52 25.86 73.7933 25.86 74.1C25.86 74.4333 26.0133 74.7133 26.32 74.94C26.6267 75.1667 27.02 75.3867 27.5 75.6C27.98 75.8 28.4867 76.0333 29.02 76.3C29.5667 76.5533 30.08 76.8667 30.56 77.24C31.04 77.6133 31.4333 78.0867 31.74 78.66C32.0467 79.22 32.2 79.92 32.2 80.76C32.2 81.72 31.98 82.5333 31.54 83.2C31.1133 83.8533 30.5267 84.3533 29.78 84.7C29.0333 85.0333 28.1733 85.2 27.2 85.2ZM37.7641 85.2C36.7107 85.2 35.8441 85.0133 35.1641 84.64C34.4974 84.2667 34.0041 83.76 33.6841 83.12C33.3774 82.48 33.2241 81.76 33.2241 80.96V79.6C33.2241 78.8 33.3774 78.08 33.6841 77.44C34.0041 76.8 34.4974 76.2933 35.1641 75.92C35.8307 75.5467 36.6841 75.36 37.7241 75.36C38.3774 75.36 38.9574 75.44 39.4641 75.6C39.9707 75.7467 40.3707 75.9467 40.6641 76.2C40.9574 76.4533 41.1041 76.7267 41.1041 77.02C41.1041 77.2067 41.0507 77.42 40.9441 77.66C40.8507 77.9 40.7107 78.1067 40.5241 78.28C40.3507 78.4533 40.1441 78.54 39.9041 78.54C39.7441 78.54 39.5841 78.5 39.4241 78.42C39.2774 78.34 39.0907 78.26 38.8641 78.18C38.6374 78.1 38.3441 78.06 37.9841 78.06C37.3841 78.06 36.9574 78.1933 36.7041 78.46C36.4507 78.7267 36.3241 79.1067 36.3241 79.6V80.96C36.3241 81.4533 36.4507 81.8333 36.7041 82.1C36.9574 82.3667 37.3907 82.5 38.0041 82.5C38.3641 82.5 38.6507 82.4533 38.8641 82.36C39.0774 82.2667 39.2574 82.18 39.4041 82.1C39.5641 82.0067 39.7307 81.96 39.9041 81.96C40.1841 81.96 40.4241 82.04 40.6241 82.2C40.8241 82.36 40.9707 82.56 41.0641 82.8C41.1707 83.0267 41.2241 83.24 41.2241 83.44C41.2241 83.7333 41.0707 84.02 40.7641 84.3C40.4574 84.5667 40.0441 84.7867 39.5241 84.96C39.0041 85.12 38.4174 85.2 37.7641 85.2ZM43.9517 85C43.4984 85 43.1251 84.9 42.8317 84.7C42.5517 84.5 42.4117 84.28 42.4117 84.04V76.42C42.4117 76.14 42.5517 75.9133 42.8317 75.74C43.1251 75.5667 43.4984 75.48 43.9517 75.48C44.3784 75.48 44.7451 75.5667 45.0517 75.74C45.3584 75.9133 45.5117 76.14 45.5117 76.42V84.04C45.5117 84.28 45.3584 84.5 45.0517 84.7C44.7451 84.9 44.3784 85 43.9517 85ZM43.9517 73.64C43.4984 73.64 43.1117 73.4933 42.7917 73.2C42.4717 72.9067 42.3117 72.5733 42.3117 72.2C42.3117 71.8133 42.4717 71.48 42.7917 71.2C43.1117 70.92 43.4984 70.78 43.9517 70.78C44.4051 70.78 44.7851 70.92 45.0917 71.2C45.4117 71.48 45.5717 71.8133 45.5717 72.2C45.5717 72.5733 45.4117 72.9067 45.0917 73.2C44.7851 73.4933 44.4051 73.64 43.9517 73.64ZM51.9945 85.2C51.0079 85.2 50.1345 85.0267 49.3745 84.68C48.6145 84.32 48.0145 83.82 47.5745 83.18C47.1479 82.54 46.9345 81.8 46.9345 80.96V79.5C46.9345 78.7533 47.1412 78.0667 47.5545 77.44C47.9679 76.8133 48.5212 76.3133 49.2145 75.94C49.9079 75.5533 50.6812 75.36 51.5345 75.36C52.3079 75.36 53.0145 75.52 53.6545 75.84C54.3079 76.16 54.8345 76.6067 55.2345 77.18C55.6345 77.74 55.8345 78.4 55.8345 79.16C55.8345 79.76 55.7345 80.1933 55.5345 80.46C55.3479 80.7133 55.1012 80.8733 54.7945 80.94C54.5012 80.9933 54.2012 81.02 53.8945 81.02H50.0345V81.14C50.0345 81.6333 50.2212 82.0333 50.5945 82.34C50.9679 82.6333 51.4612 82.78 52.0745 82.78C52.4879 82.78 52.8412 82.72 53.1345 82.6C53.4279 82.4667 53.6879 82.34 53.9145 82.22C54.1412 82.1 54.3612 82.04 54.5745 82.04C54.8145 82.04 55.0212 82.12 55.1945 82.28C55.3679 82.44 55.4945 82.6267 55.5745 82.84C55.6679 83.0533 55.7145 83.24 55.7145 83.4C55.7145 83.6533 55.5612 83.92 55.2545 84.2C54.9479 84.48 54.5145 84.72 53.9545 84.92C53.4079 85.1067 52.7545 85.2 51.9945 85.2ZM50.0345 79.28H52.5145C52.6612 79.28 52.7679 79.2467 52.8345 79.18C52.9012 79.1133 52.9345 78.9867 52.9345 78.8C52.9345 78.4 52.7812 78.1 52.4745 77.9C52.1812 77.7 51.8479 77.6 51.4745 77.6C51.1145 77.6 50.7812 77.7 50.4745 77.9C50.1812 78.1 50.0345 78.4 50.0345 78.8V79.28ZM58.7564 85C58.3031 85 57.9297 84.9 57.6364 84.7C57.3564 84.5 57.2164 84.28 57.2164 84.04V76.42C57.2164 76.14 57.3564 75.9133 57.6364 75.74C57.9297 75.5667 58.3031 75.48 58.7564 75.48C59.1297 75.48 59.4497 75.5667 59.7164 75.74C59.9831 75.9133 60.1164 76.14 60.1164 76.42V76.88C60.3031 76.4933 60.6297 76.1467 61.0964 75.84C61.5631 75.52 62.1297 75.36 62.7964 75.36C63.4097 75.36 63.9697 75.5533 64.4764 75.94C64.9964 76.3133 65.4097 76.82 65.7164 77.46C66.0364 78.0867 66.1964 78.7867 66.1964 79.56V84.04C66.1964 84.36 66.0297 84.6 65.6964 84.76C65.3764 84.92 65.0231 85 64.6364 85C64.2764 85 63.9297 84.92 63.5964 84.76C63.2631 84.6 63.0964 84.36 63.0964 84.04V79.56C63.0964 79.1733 62.9564 78.8267 62.6764 78.52C62.3964 78.2133 62.0564 78.06 61.6564 78.06C61.3231 78.06 61.0164 78.1933 60.7364 78.46C60.4564 78.7267 60.3164 79.0933 60.3164 79.56V84.04C60.3164 84.28 60.1631 84.5 59.8564 84.7C59.5497 84.9 59.1831 85 58.7564 85ZM72.1 85.2C71.0467 85.2 70.18 85.0133 69.5 84.64C68.8333 84.2667 68.34 83.76 68.02 83.12C67.7133 82.48 67.56 81.76 67.56 80.96V79.6C67.56 78.8 67.7133 78.08 68.02 77.44C68.34 76.8 68.8333 76.2933 69.5 75.92C70.1667 75.5467 71.02 75.36 72.06 75.36C72.7133 75.36 73.2933 75.44 73.8 75.6C74.3067 75.7467 74.7067 75.9467 75 76.2C75.2933 76.4533 75.44 76.7267 75.44 77.02C75.44 77.2067 75.3867 77.42 75.28 77.66C75.1867 77.9 75.0467 78.1067 74.86 78.28C74.6867 78.4533 74.48 78.54 74.24 78.54C74.08 78.54 73.92 78.5 73.76 78.42C73.6133 78.34 73.4267 78.26 73.2 78.18C72.9733 78.1 72.68 78.06 72.32 78.06C71.72 78.06 71.2933 78.1933 71.04 78.46C70.7867 78.7267 70.66 79.1067 70.66 79.6V80.96C70.66 81.4533 70.7867 81.8333 71.04 82.1C71.2933 82.3667 71.7267 82.5 72.34 82.5C72.7 82.5 72.9867 82.4533 73.2 82.36C73.4133 82.2667 73.5933 82.18 73.74 82.1C73.9 82.0067 74.0667 81.96 74.24 81.96C74.52 81.96 74.76 82.04 74.96 82.2C75.16 82.36 75.3067 82.56 75.4 82.8C75.5067 83.0267 75.56 83.24 75.56 83.44C75.56 83.7333 75.4067 84.02 75.1 84.3C74.7933 84.5667 74.38 84.7867 73.86 84.96C73.34 85.12 72.7533 85.2 72.1 85.2ZM81.3695 85.2C80.3829 85.2 79.5095 85.0267 78.7495 84.68C77.9895 84.32 77.3895 83.82 76.9495 83.18C76.5229 82.54 76.3095 81.8 76.3095 80.96V79.5C76.3095 78.7533 76.5162 78.0667 76.9295 77.44C77.3429 76.8133 77.8962 76.3133 78.5895 75.94C79.2829 75.5533 80.0562 75.36 80.9095 75.36C81.6829 75.36 82.3895 75.52 83.0295 75.84C83.6829 76.16 84.2095 76.6067 84.6095 77.18C85.0095 77.74 85.2095 78.4 85.2095 79.16C85.2095 79.76 85.1095 80.1933 84.9095 80.46C84.7229 80.7133 84.4762 80.8733 84.1695 80.94C83.8762 80.9933 83.5762 81.02 83.2695 81.02H79.4095V81.14C79.4095 81.6333 79.5962 82.0333 79.9695 82.34C80.3429 82.6333 80.8362 82.78 81.4495 82.78C81.8629 82.78 82.2162 82.72 82.5095 82.6C82.8029 82.4667 83.0629 82.34 83.2895 82.22C83.5162 82.1 83.7362 82.04 83.9495 82.04C84.1895 82.04 84.3962 82.12 84.5695 82.28C84.7429 82.44 84.8695 82.6267 84.9495 82.84C85.0429 83.0533 85.0895 83.24 85.0895 83.4C85.0895 83.6533 84.9362 83.92 84.6295 84.2C84.3229 84.48 83.8895 84.72 83.3295 84.92C82.7829 85.1067 82.1295 85.2 81.3695 85.2ZM79.4095 79.28H81.8895C82.0362 79.28 82.1429 79.2467 82.2095 79.18C82.2762 79.1133 82.3095 78.9867 82.3095 78.8C82.3095 78.4 82.1562 78.1 81.8495 77.9C81.5562 77.7 81.2229 77.6 80.8495 77.6C80.4895 77.6 80.1562 77.7 79.8495 77.9C79.5562 78.1 79.4095 78.4 79.4095 78.8V79.28Z" fill="#32537A"/>
<g style="mix-blend-mode:overlay">
<path d="M53.4999 35.5C53.0055 35.5001 52.5222 35.6468 52.1112 35.9216C51.7001 36.1964 51.3798 36.5869 51.1907 37.0437C51.0015 37.5005 50.9521 38.0032 51.0486 38.4881C51.1452 38.973 51.3833 39.4184 51.733 39.768C52.0826 40.1176 52.5281 40.3556 53.013 40.452C53.498 40.5484 54.0006 40.4989 54.4574 40.3096C54.9142 40.1204 55.3046 39.8 55.5792 39.3889C55.8539 38.9778 56.0005 38.4944 56.0005 38C55.9992 37.3373 55.7353 36.7021 55.2666 36.2335C54.7979 35.7649 54.1627 35.5012 53.4999 35.5V35.5ZM70.2321 28C69.3823 26.4766 67.0673 24.0352 61.1481 24.7285C59.4681 20.7246 56.9089 18 53.4999 18C50.091 18 47.5319 20.7246 45.8518 24.7285C39.9326 24.0449 37.6177 26.4766 36.7679 28C35.4883 30.2949 35.5957 33.7129 38.7311 38C35.5957 42.2871 35.4883 45.7051 36.7679 48C39.0437 52.0918 44.709 51.4082 45.8518 51.2715C47.5319 55.2754 50.091 58 53.4999 58C56.9089 58 59.4681 55.2754 61.1481 51.2715C62.291 51.4082 67.9562 52.0918 70.2321 48C71.5117 45.7051 71.4043 42.2871 68.2687 38C71.4043 33.7129 71.5117 30.2949 70.2321 28H70.2321ZM40.9483 45.5C40.6358 44.9336 40.9386 43.5664 42.1205 41.7305C42.6578 42.2383 43.2243 42.7363 43.83 43.2246C43.9569 44.2988 44.1425 45.3438 44.3573 46.3594C42.4332 46.4277 41.2415 46.0176 40.9483 45.5ZM43.83 32.7754C43.2243 33.2637 42.6578 33.7617 42.1205 34.2695C40.9386 32.4336 40.6358 31.0664 40.9483 30.5C41.2122 30.0215 42.2279 29.6016 43.9081 29.6016C44.0448 29.6016 44.2108 29.6309 44.3573 29.6309C44.1327 30.6758 43.9569 31.7207 43.83 32.7754V32.7754ZM53.4999 23C54.2423 23 55.2387 24.0547 56.147 25.9102C55.2679 26.2031 54.3889 26.5352 53.4999 26.916C52.6111 26.5352 51.732 26.2031 50.8528 25.9102C51.7613 24.0547 52.7576 23 53.4999 23ZM53.4999 53C52.7576 53 51.7613 51.9453 50.8528 50.0898C51.732 49.7969 52.6111 49.4648 53.4999 49.084C54.3889 49.4648 55.268 49.7969 56.147 50.0898C55.2387 51.9453 54.2423 53 53.4999 53ZM53.4999 44.25C52.2638 44.25 51.0554 43.8834 50.0276 43.1967C48.9998 42.5099 48.1987 41.5338 47.7257 40.3918C47.2526 39.2497 47.1289 37.9931 47.37 36.7807C47.6112 35.5683 48.2064 34.4547 49.0805 33.5806C49.9546 32.7065 51.0682 32.1112 52.2806 31.8701C53.493 31.6289 54.7497 31.7527 55.8917 32.2258C57.0337 32.6988 58.0098 33.4999 58.6966 34.5277C59.3834 35.5555 59.7499 36.7639 59.7499 38C59.7499 39.6576 59.0914 41.2473 57.9193 42.4194C56.7472 43.5915 55.1575 44.25 53.4999 44.25V44.25ZM66.0515 45.5C65.7683 46.0176 64.5668 46.4277 62.6425 46.3594C62.8575 45.3438 63.0431 44.2988 63.17 43.2246C63.7756 42.7363 64.3422 42.2383 64.8793 41.7305C66.0613 43.5664 66.364 44.9336 66.0515 45.5ZM64.8793 34.2695C64.3422 33.7617 63.7756 33.2637 63.17 32.7754C63.0431 31.7207 62.8673 30.6758 62.6425 29.6309C62.789 29.6309 62.9552 29.6016 63.0919 29.6016C64.7719 29.6016 65.7878 30.0215 66.0515 30.5C66.364 31.0664 66.0613 32.4336 64.8793 34.2695Z" fill="black"/>
</g>
</svg>
