<svg width="106" height="106" viewBox="0 0 106 106" fill="none" xmlns="http://www.w3.org/2000/svg">
<path d="M106 52.3226C106 79.7744 87.5223 106 53 106C19.464 106 0 79.7744 0 52.3226C0 24.8708 24.6731 2 53 2C81.3269 2 106 24.8708 106 52.3226Z" fill="#B3D5FF"/>
<ellipse cx="53" cy="54" rx="50.9615" ry="50" fill="#D3E7FF"/>
<path d="M39.0546 85C38.668 85 38.308 84.92 37.9746 84.76C37.6546 84.6 37.4946 84.36 37.4946 84.04V73.18H34.7346C34.4413 73.18 34.208 73.04 34.0346 72.76C33.8746 72.4667 33.7946 72.1333 33.7946 71.76C33.7946 71.4267 33.868 71.1133 34.0146 70.82C34.1613 70.5267 34.4013 70.38 34.7346 70.38H43.3746C43.708 70.38 43.948 70.5267 44.0946 70.82C44.2413 71.1133 44.3146 71.4267 44.3146 71.76C44.3146 72.1333 44.2346 72.4667 44.0746 72.76C43.9146 73.04 43.6813 73.18 43.3746 73.18H40.6146V84.04C40.6146 84.36 40.448 84.6 40.1146 84.76C39.7946 84.92 39.4413 85 39.0546 85ZM48.18 85.2C47.1933 85.2 46.32 85.0267 45.56 84.68C44.8 84.32 44.2 83.82 43.76 83.18C43.3333 82.54 43.12 81.8 43.12 80.96V79.5C43.12 78.7533 43.3266 78.0667 43.74 77.44C44.1533 76.8133 44.7066 76.3133 45.4 75.94C46.0933 75.5533 46.8666 75.36 47.72 75.36C48.4933 75.36 49.2 75.52 49.84 75.84C50.4933 76.16 51.02 76.6067 51.42 77.18C51.82 77.74 52.02 78.4 52.02 79.16C52.02 79.76 51.92 80.1933 51.72 80.46C51.5333 80.7133 51.2866 80.8733 50.98 80.94C50.6866 80.9933 50.3866 81.02 50.08 81.02H46.22V81.14C46.22 81.6333 46.4066 82.0333 46.78 82.34C47.1533 82.6333 47.6466 82.78 48.26 82.78C48.6733 82.78 49.0266 82.72 49.32 82.6C49.6133 82.4667 49.8733 82.34 50.1 82.22C50.3266 82.1 50.5466 82.04 50.76 82.04C51 82.04 51.2066 82.12 51.38 82.28C51.5533 82.44 51.68 82.6267 51.76 82.84C51.8533 83.0533 51.9 83.24 51.9 83.4C51.9 83.6533 51.7466 83.92 51.44 84.2C51.1333 84.48 50.7 84.72 50.14 84.92C49.5933 85.1067 48.94 85.2 48.18 85.2ZM46.22 79.28H48.7C48.8466 79.28 48.9533 79.2467 49.02 79.18C49.0866 79.1133 49.12 78.9867 49.12 78.8C49.12 78.4 48.9666 78.1 48.66 77.9C48.3666 77.7 48.0333 77.6 47.66 77.6C47.3 77.6 46.9666 77.7 46.66 77.9C46.3666 78.1 46.22 78.4 46.22 78.8V79.28ZM57.6018 85.2C56.5485 85.2 55.6818 85.0133 55.0018 84.64C54.3352 84.2667 53.8418 83.76 53.5218 83.12C53.2152 82.48 53.0618 81.76 53.0618 80.96V79.6C53.0618 78.8 53.2152 78.08 53.5218 77.44C53.8418 76.8 54.3352 76.2933 55.0018 75.92C55.6685 75.5467 56.5218 75.36 57.5618 75.36C58.2152 75.36 58.7952 75.44 59.3018 75.6C59.8085 75.7467 60.2085 75.9467 60.5018 76.2C60.7952 76.4533 60.9418 76.7267 60.9418 77.02C60.9418 77.2067 60.8885 77.42 60.7818 77.66C60.6885 77.9 60.5485 78.1067 60.3618 78.28C60.1885 78.4533 59.9818 78.54 59.7418 78.54C59.5818 78.54 59.4218 78.5 59.2618 78.42C59.1152 78.34 58.9285 78.26 58.7018 78.18C58.4752 78.1 58.1818 78.06 57.8218 78.06C57.2218 78.06 56.7952 78.1933 56.5418 78.46C56.2885 78.7267 56.1618 79.1067 56.1618 79.6V80.96C56.1618 81.4533 56.2885 81.8333 56.5418 82.1C56.7952 82.3667 57.2285 82.5 57.8418 82.5C58.2018 82.5 58.4885 82.4533 58.7018 82.36C58.9152 82.2667 59.0952 82.18 59.2418 82.1C59.4018 82.0067 59.5685 81.96 59.7418 81.96C60.0218 81.96 60.2618 82.04 60.4618 82.2C60.6618 82.36 60.8085 82.56 60.9018 82.8C61.0085 83.0267 61.0618 83.24 61.0618 83.44C61.0618 83.7333 60.9085 84.02 60.6018 84.3C60.2952 84.5667 59.8818 84.7867 59.3618 84.96C58.8418 85.12 58.2552 85.2 57.6018 85.2ZM63.8095 85C63.3562 85 62.9828 84.9 62.6895 84.7C62.4095 84.5 62.2695 84.28 62.2695 84.04V70.98C62.2695 70.7 62.4095 70.4733 62.6895 70.3C62.9828 70.1267 63.3562 70.04 63.8095 70.04C64.2362 70.04 64.6028 70.1267 64.9095 70.3C65.2162 70.4733 65.3695 70.7 65.3695 70.98V76.88C65.5562 76.4933 65.8628 76.1467 66.2895 75.84C66.7162 75.52 67.2362 75.36 67.8495 75.36C68.4628 75.36 69.0228 75.5533 69.5295 75.94C70.0495 76.3133 70.4628 76.82 70.7695 77.46C71.0895 78.0867 71.2495 78.7867 71.2495 79.56V84.04C71.2495 84.36 71.0828 84.6 70.7495 84.76C70.4295 84.92 70.0762 85 69.6895 85C69.3295 85 68.9828 84.92 68.6495 84.76C68.3162 84.6 68.1495 84.36 68.1495 84.04V79.56C68.1495 79.1733 68.0028 78.8267 67.7095 78.52C67.4295 78.2133 67.0962 78.06 66.7095 78.06C66.3762 78.06 66.0695 78.1933 65.7895 78.46C65.5095 78.7267 65.3695 79.0933 65.3695 79.56V84.04C65.3695 84.28 65.2162 84.5 64.9095 84.7C64.6028 84.9 64.2362 85 63.8095 85Z" fill="#32537A"/>
<g style="mix-blend-mode:overlay">
<g clip-path="url(#clip0)">
<path d="M59.4031 61C61.1434 61 62.7388 60.0663 63.6075 58.576C64.823 56.4919 65.5219 54.0791 65.5219 51.5C65.5219 48.8192 64.7652 46.3188 63.4618 44.1805L66.7232 40.9565L67.4274 41.6526C67.8966 42.1165 68.6572 42.1165 69.1264 41.6526L69.9748 40.8125C70.444 40.3486 70.444 39.5968 69.9748 39.1329L66.0189 35.2223C65.5497 34.7585 64.7892 34.7585 64.3199 35.2223L63.4708 36.0617C63.0016 36.5256 63.0016 37.2774 63.4708 37.7413L64.175 38.4375L61.2163 41.3624C60.3484 40.5186 59.3746 39.7794 58.3145 39.1722V27.7307L59.5135 27.7292C60.1757 27.7285 60.7125 27.1978 60.7132 26.5432L60.7162 24.189C60.717 23.5321 60.1779 22.9992 59.5135 23L42.7007 23.0193C42.0385 23.02 41.5017 23.5507 41.501 24.2053L41.498 26.5603C41.4972 27.2171 42.0363 27.7492 42.7007 27.7485L43.8997 27.747V39.1715C39.5955 41.6363 36.6923 46.2282 36.6923 51.5C36.6923 54.0791 37.3912 56.4927 38.6067 58.576C39.4761 60.0663 41.0715 61 42.8111 61H59.4031ZM45.706 42.2546L47.5034 41.2251V27.7433L54.7108 27.7351V41.2251L56.5082 42.2546C58.3708 43.3211 59.8206 44.9064 60.7545 46.75H41.4597C42.3944 44.9064 43.8434 43.3211 45.706 42.2546Z" fill="black"/>
</g>
</g>
<defs>
<clipPath id="clip0">
<rect x="36.6923" y="23" width="33.6346" height="38" fill="white"/>
</clipPath>
</defs>
</svg>
