<svg width="106" height="106" viewBox="0 0 106 106" fill="none" xmlns="http://www.w3.org/2000/svg">
<path d="M106 51.2903C106 79.27 87.5223 106 53 106C19.464 106 0 79.27 0 51.2903C0 23.3106 24.6731 0 53 0C81.3269 0 106 23.3106 106 51.2903Z" fill="#B3D5FF"/>
<circle cx="53" cy="52" r="50" fill="#D3E7FF"/>
<path d="M38.42 83C38.0333 83 37.6733 82.92 37.34 82.76C37.02 82.6 36.86 82.36 36.86 82.04V71.18H34.1C33.8067 71.18 33.5733 71.04 33.4 70.76C33.24 70.4667 33.16 70.1333 33.16 69.76C33.16 69.4267 33.2333 69.1133 33.38 68.82C33.5267 68.5267 33.7667 68.38 34.1 68.38H42.74C43.0733 68.38 43.3133 68.5267 43.46 68.82C43.6067 69.1133 43.68 69.4267 43.68 69.76C43.68 70.1333 43.6 70.4667 43.44 70.76C43.28 71.04 43.0467 71.18 42.74 71.18H39.98V82.04C39.98 82.36 39.8133 82.6 39.48 82.76C39.16 82.92 38.8067 83 38.42 83ZM47.5453 83.2C46.5586 83.2 45.6853 83.0267 44.9253 82.68C44.1653 82.32 43.5653 81.82 43.1253 81.18C42.6986 80.54 42.4853 79.8 42.4853 78.96V77.5C42.4853 76.7533 42.692 76.0667 43.1053 75.44C43.5186 74.8133 44.072 74.3133 44.7653 73.94C45.4586 73.5533 46.232 73.36 47.0853 73.36C47.8586 73.36 48.5653 73.52 49.2053 73.84C49.8586 74.16 50.3853 74.6067 50.7853 75.18C51.1853 75.74 51.3853 76.4 51.3853 77.16C51.3853 77.76 51.2853 78.1933 51.0853 78.46C50.8986 78.7133 50.652 78.8733 50.3453 78.94C50.052 78.9933 49.752 79.02 49.4453 79.02H45.5853V79.14C45.5853 79.6333 45.772 80.0333 46.1453 80.34C46.5186 80.6333 47.012 80.78 47.6253 80.78C48.0386 80.78 48.392 80.72 48.6853 80.6C48.9786 80.4667 49.2386 80.34 49.4653 80.22C49.692 80.1 49.912 80.04 50.1253 80.04C50.3653 80.04 50.572 80.12 50.7453 80.28C50.9186 80.44 51.0453 80.6267 51.1253 80.84C51.2186 81.0533 51.2653 81.24 51.2653 81.4C51.2653 81.6533 51.112 81.92 50.8053 82.2C50.4986 82.48 50.0653 82.72 49.5053 82.92C48.9586 83.1067 48.3053 83.2 47.5453 83.2ZM45.5853 77.28H48.0653C48.212 77.28 48.3186 77.2467 48.3853 77.18C48.452 77.1133 48.4853 76.9867 48.4853 76.8C48.4853 76.4 48.332 76.1 48.0253 75.9C47.732 75.7 47.3986 75.6 47.0253 75.6C46.6653 75.6 46.332 75.7 46.0253 75.9C45.732 76.1 45.5853 76.4 45.5853 76.8V77.28ZM56.9672 83.2C55.9139 83.2 55.0472 83.0133 54.3672 82.64C53.7005 82.2667 53.2072 81.76 52.8872 81.12C52.5805 80.48 52.4272 79.76 52.4272 78.96V77.6C52.4272 76.8 52.5805 76.08 52.8872 75.44C53.2072 74.8 53.7005 74.2933 54.3672 73.92C55.0339 73.5467 55.8872 73.36 56.9272 73.36C57.5805 73.36 58.1605 73.44 58.6672 73.6C59.1739 73.7467 59.5739 73.9467 59.8672 74.2C60.1605 74.4533 60.3072 74.7267 60.3072 75.02C60.3072 75.2067 60.2539 75.42 60.1472 75.66C60.0539 75.9 59.9139 76.1067 59.7272 76.28C59.5539 76.4533 59.3472 76.54 59.1072 76.54C58.9472 76.54 58.7872 76.5 58.6272 76.42C58.4805 76.34 58.2939 76.26 58.0672 76.18C57.8405 76.1 57.5472 76.06 57.1872 76.06C56.5872 76.06 56.1605 76.1933 55.9072 76.46C55.6539 76.7267 55.5272 77.1067 55.5272 77.6V78.96C55.5272 79.4533 55.6539 79.8333 55.9072 80.1C56.1605 80.3667 56.5939 80.5 57.2072 80.5C57.5672 80.5 57.8539 80.4533 58.0672 80.36C58.2805 80.2667 58.4605 80.18 58.6072 80.1C58.7672 80.0067 58.9339 79.96 59.1072 79.96C59.3872 79.96 59.6272 80.04 59.8272 80.2C60.0272 80.36 60.1739 80.56 60.2672 80.8C60.3739 81.0267 60.4272 81.24 60.4272 81.44C60.4272 81.7333 60.2739 82.02 59.9672 82.3C59.6605 82.5667 59.2472 82.7867 58.7272 82.96C58.2072 83.12 57.6205 83.2 56.9672 83.2ZM63.1748 83C62.7215 83 62.3482 82.9 62.0548 82.7C61.7748 82.5 61.6348 82.28 61.6348 82.04V68.98C61.6348 68.7 61.7748 68.4733 62.0548 68.3C62.3482 68.1267 62.7215 68.04 63.1748 68.04C63.6015 68.04 63.9682 68.1267 64.2748 68.3C64.5815 68.4733 64.7348 68.7 64.7348 68.98V74.88C64.9215 74.4933 65.2282 74.1467 65.6548 73.84C66.0815 73.52 66.6015 73.36 67.2148 73.36C67.8282 73.36 68.3882 73.5533 68.8948 73.94C69.4148 74.3133 69.8282 74.82 70.1348 75.46C70.4548 76.0867 70.6148 76.7867 70.6148 77.56V82.04C70.6148 82.36 70.4482 82.6 70.1148 82.76C69.7948 82.92 69.4415 83 69.0548 83C68.6948 83 68.3482 82.92 68.0148 82.76C67.6815 82.6 67.5148 82.36 67.5148 82.04V77.56C67.5148 77.1733 67.3682 76.8267 67.0748 76.52C66.7948 76.2133 66.4615 76.06 66.0748 76.06C65.7415 76.06 65.4348 76.1933 65.1548 76.46C64.8748 76.7267 64.7348 77.0933 64.7348 77.56V82.04C64.7348 82.28 64.5815 82.5 64.2748 82.7C63.9682 82.9 63.6015 83 63.1748 83Z" fill="#32537A"/>
<g style="mix-blend-mode:overlay">
<g clip-path="url(#clip0)">
<path d="M58.2824 59C59.9898 59 61.5551 58.0663 62.4074 56.576C63.5999 54.4919 64.2857 52.0791 64.2857 49.5C64.2857 46.8192 63.5432 44.3188 62.2645 42.1805L65.4643 38.9565L66.1552 39.6526C66.6156 40.1165 67.3618 40.1165 67.8222 39.6526L68.6545 38.8125C69.1149 38.3486 69.1149 37.5968 68.6545 37.1329L64.7733 33.2223C64.313 32.7585 63.5668 32.7585 63.1064 33.2223L62.2733 34.0617C61.8129 34.5256 61.8129 35.2774 62.2733 35.7413L62.9642 36.4375L60.0613 39.3624C59.2098 38.5186 58.2544 37.7794 57.2143 37.1722V25.7307L58.3906 25.7292C59.0403 25.7285 59.567 25.1978 59.5677 24.5432L59.5707 22.189C59.5714 21.5321 59.0425 20.9992 58.3906 21L41.8951 21.0193C41.2454 21.02 40.7187 21.5507 40.718 22.2053L40.715 24.5603C40.7143 25.2171 41.2432 25.7492 41.8951 25.7485L43.0714 25.747V37.1715C38.8485 39.6363 36 44.2282 36 49.5C36 52.0791 36.6858 54.4927 37.8783 56.576C38.7313 58.0663 40.2966 59 42.0033 59H58.2824ZM44.8437 40.2546L46.6071 39.2251V25.7433L53.6786 25.7351V39.2251L55.442 40.2546C57.2695 41.3211 58.6919 42.9064 59.6083 44.75H40.6775C41.5945 42.9064 43.0162 41.3211 44.8437 40.2546Z" fill="black"/>
</g>
</g>
<defs>
<clipPath id="clip0">
<rect x="36" y="21" width="33" height="38" fill="white"/>
</clipPath>
</defs>
</svg>
