<svg width="235" height="192" viewBox="0 0 235 192" fill="none" xmlns="http://www.w3.org/2000/svg">
<rect x="95.6322" y="22.4707" width="18.3913" height="22.4688" rx="9.19565" fill="#AC43FF"/>
<path d="M104.613 82.728C104.613 86.8132 103.591 89.8771 108.7 89.8771" stroke="#F819FD" stroke-width="4" stroke-linecap="round" stroke-linejoin="round"/>
<path d="M133.138 82.5237C133.138 86.6089 134.16 89.6729 129.051 89.6729" stroke="#F819FD" stroke-width="4" stroke-linecap="round" stroke-linejoin="round"/>
<rect x="124.241" y="22.4707" width="18.3913" height="22.4688" rx="9.19565" fill="#AC43FF"/>
<path d="M85.3262 155.611L83.6855 155.235L78.5113 154.048C74.9103 153.222 71.4246 155.815 71.1807 159.501L70.2097 174.172C70.0515 176.562 71.3306 178.817 73.4634 179.908L74.5282 180.453C77.5111 181.978 81.1665 180.766 82.6462 177.76L89.3674 164.106C91.0769 160.634 89.0991 156.476 85.3262 155.611Z" stroke="#BC32FD" stroke-width="4"/>
<path d="M158.14 154.592L159.005 154.485L163.95 153.874C167.46 153.44 170.583 156.119 170.686 159.653L171.141 175.198C171.214 177.676 169.755 179.943 167.469 180.904L167.232 181.003C164.147 182.299 160.597 180.821 159.343 177.717L153.314 162.792C151.837 159.137 154.227 155.076 158.14 154.592Z" stroke="#BC32FD" stroke-width="4"/>
<path d="M93.9452 6.1297C82.8694 6.1297 82.8694 12.5077 81.8625 13.5707C80.8556 14.6337 72.8005 12.5077 70.7868 15.6967C68.773 18.8857 68.2305 27.5143 70.7868 31.6416C73.343 35.7689 76.8281 34.8306 81.8625 34.8306C86.897 34.8306 91.9314 68.8465 91.9314 81.6025C91.9314 94.3584 90.9245 97.9091 93.9452 102.862C96.9658 107.816 100.993 110.303 109.048 110.303H127.55C135.941 110.303 140.136 107.816 143.283 102.862C146.429 97.9091 145.38 94.3584 145.38 81.6025C145.38 68.8465 150.625 34.8306 155.869 34.8306C161.113 34.8306 164.743 35.7689 167.406 31.6416C170.069 27.5143 169.504 18.8857 167.406 15.6967C165.308 12.5077 156.918 14.6337 155.869 13.5707C154.82 12.5077 154.82 6.1297 143.283 6.1297M93.9452 6.1297C93.9452 6.1297 91.2469 11.2363 96.3556 13.2789C101.464 15.3215 116.79 15.3215 118.834 15.3215C119.856 15.3215 136.203 15.3215 141.312 13.2789C146.421 11.2363 143.283 6.1297 143.283 6.1297M93.9452 6.1297H143.283M88.3248 51.0674C88.3248 51.0674 105.551 51.0674 105.551 56.1739V71.4936C105.551 73.5362 99.4208 77.6214 98.3991 83.7493C97.3773 89.8772 102.486 94.9837 107.595 94.9837M107.595 94.9837C112.703 94.9837 111.682 90.8985 118.834 90.8985C125.986 90.8985 124.964 94.9837 130.073 94.9837M107.595 94.9837C107.595 105.878 130.073 105.878 130.073 94.9837M149.137 51.0674C149.137 51.0674 132.116 51.0674 132.116 56.1739V71.4936C132.116 73.5362 138.247 77.6214 139.269 83.7493C140.29 89.8772 135.182 94.9837 130.073 94.9837M90.747 67.4083C68.3326 67.4084 58.8496 87.8347 58.8496 119.495C58.8496 151.156 73.3664 151.156 119.132 151.156C164.898 151.156 179.415 151.156 179.415 119.495C179.415 87.8347 169.134 67.4084 146.719 67.4083M79.2844 149.493C79.2844 149.493 89.5018 138.9 119.132 138.9C148.763 138.9 156.937 149.831 156.937 149.831" stroke="#BC32FD" stroke-width="4"/>
<ellipse cx="136.502" cy="30.6411" rx="4.08696" ry="4.08524" fill="white"/>
<ellipse cx="107.893" cy="30.6411" rx="4.08696" ry="4.08524" fill="white"/>
<path d="M97.6757 152.177C97.6757 157.284 100.945 167.497 114.023 167.497C127.102 167.497 126.284 167.497 124.241 167.497" stroke="#BC32FD" stroke-width="4"/>
<path d="M141.759 152.177C141.759 157.284 138.489 167.497 125.411 167.497C112.333 167.497 113.15 167.497 115.194 167.497" stroke="#BC32FD" stroke-width="4"/>
<line x1="2" y1="-2" x2="5.36477" y2="-2" transform="matrix(-0.554861 0.831943 -0.832158 -0.554539 103.806 165.454)" stroke="#BC32FD" stroke-width="4" stroke-linecap="round" stroke-linejoin="round"/>
<line x1="2" y1="-2" x2="6.66792" y2="-2" transform="matrix(0.707255 0.706958 -0.707255 0.706958 132.415 167.497)" stroke="#BC32FD" stroke-width="4" stroke-linecap="round" stroke-linejoin="round"/>
<line x1="120.11" y1="169.497" x2="120.11" y2="173.667" stroke="#BC32FD" stroke-width="4" stroke-linecap="round" stroke-linejoin="round"/>
<g clip-path="url(#clip0)">
<path d="M210.042 33.4147L207.727 31.9936L208.382 29.3579C208.463 29.0358 208.345 28.6966 208.082 28.4934C207.82 28.2901 207.462 28.261 207.17 28.4191L204.781 29.713L202.825 27.8277C202.586 27.5972 202.234 27.5296 201.926 27.6553C201.619 27.781 201.414 28.0762 201.406 28.4081L201.332 31.123L198.721 31.8733C198.402 31.965 198.167 32.2365 198.122 32.5654C198.077 32.8944 198.231 33.2188 198.514 33.3924L200.829 34.8135L200.174 37.4492C200.093 37.7713 200.211 38.1105 200.474 38.3137C200.736 38.517 201.094 38.5461 201.386 38.388L203.775 37.0941L205.731 38.9794C205.89 39.133 206.1 39.2142 206.313 39.2142C206.42 39.2142 206.527 39.1938 206.63 39.1519C206.937 39.0262 207.142 38.731 207.151 38.3991L207.224 35.6841L209.835 34.9338C210.155 34.8421 210.389 34.5706 210.434 34.2417C210.479 33.9128 210.325 33.5883 210.042 33.4147ZM206.171 34.2432C205.82 34.3441 205.575 34.6607 205.565 35.0257L205.526 36.4546L204.497 35.4625C204.337 35.3081 204.127 35.2277 203.915 35.2277C203.779 35.2277 203.642 35.2609 203.516 35.3289L202.259 36.0097L202.604 34.6228C202.692 34.2685 202.54 33.8978 202.229 33.7067L201.011 32.959L202.385 32.5641C202.736 32.4632 202.981 32.1466 202.991 31.7816L203.03 30.3529L204.059 31.3449C204.322 31.5985 204.719 31.6523 205.04 31.4785L206.297 30.7977L205.952 32.1846C205.864 32.539 206.015 32.9096 206.327 33.1007L207.545 33.8485L206.171 34.2432Z" fill="#FA78FD"/>
<path d="M196.603 29.7036L188.395 26.9021C187.957 26.7525 187.481 26.9863 187.331 27.4242C187.182 27.8621 187.416 28.3382 187.854 28.4878L196.061 31.2892C196.151 31.3198 196.243 31.3344 196.332 31.3344C196.681 31.3344 197.007 31.1153 197.125 30.7671C197.275 30.3292 197.041 29.853 196.603 29.7036Z" fill="#FA78FD"/>
<path d="M202.76 24.469L199.665 13.8386C199.535 13.3942 199.07 13.1389 198.626 13.2682C198.181 13.3975 197.926 13.8625 198.055 14.3068L201.151 24.9374C201.257 25.3035 201.592 25.5413 201.955 25.5413C202.033 25.5413 202.111 25.5305 202.19 25.5077C202.634 25.3783 202.89 24.9134 202.76 24.469Z" fill="#FA78FD"/>
<path d="M217.407 16.458C217.041 16.1747 216.515 16.2415 216.231 16.6074L209.101 25.8111C208.817 26.1768 208.884 26.703 209.25 26.9863C209.403 27.1045 209.583 27.1618 209.763 27.1618C210.013 27.1618 210.261 27.0501 210.426 26.837L217.556 17.6334C217.84 17.2675 217.773 16.7413 217.407 16.458Z" fill="#FA78FD"/>
<path d="M208.119 16.1641C207.667 16.0634 207.219 16.348 207.118 16.7997L204.966 26.4592C204.866 26.9109 205.15 27.3585 205.602 27.459C205.664 27.4728 205.725 27.4794 205.785 27.4794C206.169 27.4794 206.516 27.2137 206.603 26.8234L208.755 17.1639C208.855 16.7123 208.57 16.2647 208.119 16.1641Z" fill="#FA78FD"/>
<path d="M199.456 26.7179L195.218 21.9506C194.91 21.6048 194.38 21.5735 194.034 21.8808C193.688 22.1881 193.657 22.7177 193.964 23.0636L198.202 27.8309C198.368 28.0173 198.598 28.1122 198.829 28.1122C199.027 28.1122 199.226 28.0424 199.386 27.9006C199.732 27.5933 199.763 27.0637 199.456 26.7179Z" fill="#FA78FD"/>
<path d="M196.665 34.0051C196.628 33.5438 196.225 33.1997 195.763 33.2358L190.936 33.6172C190.474 33.6536 190.13 34.0571 190.166 34.5183C190.201 34.9571 190.568 35.2902 191.001 35.2902C191.023 35.2902 191.045 35.2893 191.068 35.2875L195.895 34.9062C196.357 34.8698 196.701 34.4664 196.665 34.0051Z" fill="#FA78FD"/>
<path d="M199.921 8.42593C199.833 7.72945 199.478 7.10904 198.923 6.67908C197.776 5.79159 196.121 6.00193 195.233 7.1478C194.345 8.29401 194.556 9.94837 195.702 10.836C196.168 11.1965 196.728 11.3868 197.307 11.3868C197.419 11.3868 197.531 11.3798 197.644 11.3653C198.341 11.2769 198.961 10.9223 199.392 10.3671C199.822 9.81197 200.01 9.12253 199.921 8.42593ZM198.066 9.34114C197.91 9.54243 197.685 9.671 197.433 9.70306C197.18 9.73512 196.93 9.66698 196.729 9.51115C196.527 9.35521 196.399 9.13035 196.366 8.87778C196.334 8.6251 196.403 8.37522 196.559 8.17404C196.746 7.93186 197.028 7.80485 197.314 7.80485C197.517 7.80485 197.723 7.86986 197.896 8.00402C198.098 8.15996 198.226 8.38483 198.258 8.63739C198.29 8.88996 198.222 9.13984 198.066 9.34114Z" fill="#FA78FD"/>
<path d="M185.5 25.577C185.411 24.8806 185.057 24.2601 184.501 23.8302C183.946 23.4002 183.256 23.2121 182.56 23.3008C181.863 23.3893 181.242 23.7438 180.812 24.299C180.382 24.8542 180.194 25.5435 180.282 26.24C180.371 26.9365 180.726 27.5569 181.281 27.9869C181.747 28.3473 182.306 28.5377 182.886 28.5377C182.998 28.5376 183.11 28.5305 183.223 28.5162C183.92 28.4278 184.54 28.0732 184.97 27.518C185.401 26.9629 185.589 26.2735 185.5 25.577ZM183.645 26.492C183.489 26.6932 183.264 26.8219 183.011 26.8539C182.759 26.8859 182.509 26.8179 182.307 26.6619C182.106 26.5062 181.977 26.2812 181.945 26.0287C181.913 25.7761 181.981 25.5262 182.137 25.3249C182.293 25.1236 182.518 24.9951 182.771 24.963C182.812 24.9579 182.853 24.9553 182.893 24.9553C183.103 24.9553 183.306 25.0243 183.475 25.155C183.676 25.311 183.805 25.5358 183.837 25.7883C183.869 26.0408 183.801 26.2908 183.645 26.492Z" fill="#FA78FD"/>
<path d="M221.795 10.794C221.24 10.364 220.55 10.176 219.853 10.2646C219.157 10.3531 218.536 10.7076 218.106 11.2628C217.676 11.818 217.487 12.5073 217.576 13.2038C217.665 13.9005 218.019 14.5209 218.575 14.9507C219.053 15.3208 219.619 15.5 220.182 15.5C220.968 15.5 221.746 15.1499 222.264 14.4819C223.152 13.336 222.942 11.6816 221.795 10.794ZM220.939 13.4562C220.617 13.8718 220.017 13.948 219.601 13.6262C219.4 13.4703 219.271 13.2454 219.239 12.9929C219.207 12.7402 219.275 12.4903 219.431 12.289C219.587 12.0877 219.812 11.9592 220.065 11.9271C220.106 11.9218 220.146 11.9194 220.187 11.9194C220.397 11.9194 220.6 11.9884 220.769 12.119C221.184 12.4408 221.261 13.0407 220.939 13.4562Z" fill="#FA78FD"/>
<path d="M214.549 47.1479L209.782 39.9054C209.527 39.5189 209.008 39.4118 208.621 39.666C208.234 39.9204 208.127 40.4398 208.381 40.8264L213.148 48.069C213.309 48.3136 213.577 48.4463 213.849 48.4463C214.007 48.4463 214.167 48.4016 214.309 48.3083C214.696 48.0541 214.803 47.5346 214.549 47.1479Z" fill="#FA78FD"/>
<path d="M224.383 32.9733L213.312 32.6373C212.848 32.6247 212.463 32.9867 212.449 33.4493C212.435 33.9118 212.798 34.2981 213.261 34.3122L224.332 34.6482C224.341 34.6484 224.349 34.6487 224.358 34.6487C224.809 34.6487 225.182 34.2901 225.195 33.8363C225.209 33.3736 224.846 32.9874 224.383 32.9733Z" fill="#FA78FD"/>
<path d="M220.015 25.3735C219.805 24.9614 219.3 24.7979 218.888 25.0082L210.07 29.5076C209.658 29.718 209.494 30.2226 209.705 30.6347C209.853 30.9248 210.147 31.0918 210.452 31.0918C210.58 31.0918 210.71 31.0623 210.832 31L219.65 26.5006C220.062 26.2903 220.226 25.7857 220.015 25.3735Z" fill="#FA78FD"/>
<path d="M217.638 39.3068L211.96 36.3981C211.548 36.187 211.043 36.3497 210.832 36.7614C210.621 37.1733 210.784 37.6781 211.196 37.8892L216.873 40.7979C216.996 40.8607 217.126 40.8903 217.255 40.8903C217.559 40.8903 217.853 40.724 218.002 40.4345C218.213 40.0227 218.05 39.5179 217.638 39.3068Z" fill="#FA78FD"/>
<path d="M207.409 46.3697L206.571 41.602C206.491 41.1462 206.056 40.8418 205.6 40.9219C205.144 41.002 204.84 41.4364 204.92 41.8921L205.758 46.6598C205.83 47.0665 206.183 47.3527 206.583 47.3527C206.631 47.3527 206.68 47.3484 206.729 47.3398C207.185 47.2597 207.489 46.8253 207.409 46.3697Z" fill="#FA78FD"/>
<path d="M231.503 31.9005C230.948 31.4705 230.258 31.2825 229.561 31.3711C228.865 31.4596 228.244 31.8141 227.814 32.3693C227.384 32.9245 227.196 33.6138 227.284 34.3103C227.373 35.0069 227.727 35.6273 228.283 36.0571C228.748 36.4176 229.308 36.608 229.888 36.608C229.999 36.608 230.112 36.6009 230.225 36.5866C230.921 36.498 231.542 36.1436 231.972 35.5884C232.86 34.4424 232.65 32.788 231.503 31.9005ZM230.647 34.5625C230.491 34.7638 230.266 34.8923 230.013 34.9244C229.76 34.9565 229.51 34.8884 229.309 34.7325C229.108 34.5766 228.979 34.3517 228.947 34.0992C228.915 33.8466 228.983 33.5966 229.139 33.3954C229.295 33.1941 229.52 33.0656 229.773 33.0335C229.813 33.0282 229.854 33.0258 229.895 33.0258C230.105 33.0258 230.308 33.0948 230.477 33.2254C230.892 33.547 230.969 34.147 230.647 34.5625Z" fill="#FA78FD"/>
<path d="M218.498 50.1481C217.352 49.2606 215.697 49.4708 214.809 50.6168C213.921 51.7628 214.131 53.4171 215.278 54.3048C215.743 54.6652 216.303 54.8556 216.883 54.8556C216.994 54.8556 217.107 54.8485 217.22 54.8341C217.917 54.7457 218.537 54.3911 218.967 53.8359C219.855 52.6899 219.645 51.0357 218.498 50.1481ZM217.642 52.81C217.486 53.0113 217.261 53.1399 217.008 53.172C216.756 53.204 216.506 53.1359 216.304 52.98C215.889 52.6583 215.812 52.0585 216.134 51.6429C216.29 51.4416 216.515 51.3132 216.768 51.281C217.021 51.2487 217.271 51.3171 217.472 51.4729C217.888 51.7947 217.964 52.3945 217.642 52.81Z" fill="#FA78FD"/>
<path d="M198.568 39.4966C198.236 39.1746 197.705 39.1832 197.383 39.5155C196.967 39.9456 187.127 50.1863 182.527 62.1851C182.361 62.6172 182.577 63.1017 183.01 63.2672C183.108 63.305 183.21 63.323 183.309 63.323C183.647 63.323 183.964 63.1182 184.092 62.7848C188.567 51.1129 198.488 40.7842 198.588 40.6812C198.909 40.3486 198.901 39.8183 198.568 39.4966Z" fill="#FA78FD"/>
</g>
<g clip-path="url(#clip1)">
<path d="M39.4548 8.1497C39.1289 8.6614 39.327 9.24154 39.7731 9.5877C40.5388 10.182 40.6779 11.5732 40.5198 12.5001C40.2817 13.896 39.2911 15.0227 38.3759 16.039C37.2902 17.2447 36.2211 18.5026 35.7475 20.0879C35.2709 21.6832 35.4286 23.4323 35.9235 25.0034C36.4806 26.7719 37.4328 28.348 38.4161 29.906C38.7161 30.3812 39.2999 30.6165 39.8238 30.3394C40.2923 30.0916 40.5585 29.4098 40.2571 28.9322C38.6778 26.4304 36.5938 23.1324 37.9578 20.0881C38.6017 18.6507 39.8478 17.5693 40.8268 16.3695C41.8331 15.1362 42.5796 13.6733 42.6469 12.0585C42.7135 10.4578 42.1846 8.83425 40.893 7.8319C40.4487 7.48684 39.7367 7.70675 39.4548 8.1497Z" fill="#FA78FD"/>
<path d="M19.8462 34.4542C18.8325 33.1122 17.7492 31.6809 16.218 30.896C14.7328 30.1347 13.0258 30.0538 11.4339 30.5213C9.59804 31.0605 8.04955 32.1868 6.52355 33.2993C6.06881 33.6308 6.11133 34.3895 6.46141 34.7705C6.87825 35.2243 7.47732 35.1652 7.93316 34.8329C10.2811 33.1211 13.4514 31.0527 16.1367 33.3437C18.5214 35.3783 19.7822 39.1498 23.2001 39.7792C24.8469 40.0824 26.5744 39.582 27.4937 38.1064C28.2029 36.9678 26.446 35.8481 25.7369 36.9862C25.1626 37.9083 23.9436 37.967 23.0146 37.5635C21.6659 36.9775 20.708 35.5952 19.8462 34.4542Z" fill="#FA78FD"/>
<path d="M26.6616 20.9156C25.2888 20.6696 23.8598 21.0493 22.7874 21.9439C22.19 22.4424 21.7677 23.0549 21.5013 23.7261C20.4841 23.0404 19.6493 22.0861 19.2224 20.9354C19.0272 20.4091 18.5664 20.0193 17.9705 20.1591C17.4757 20.2752 16.9974 20.88 17.1942 21.4105C17.9226 23.3738 19.3421 24.9723 21.1553 25.9467C21.228 27.391 21.8266 28.8399 22.8071 29.8705C25.4422 32.6405 29.5146 32.6568 32.9651 31.7485C34.2586 31.408 33.7906 29.3782 32.4895 29.7208C30.2388 30.3132 27.6693 30.6056 25.5596 29.3947C24.5358 28.8071 23.6987 27.8584 23.3655 26.769C24.4845 27.0184 25.6574 27.0438 26.7793 26.805C28.3365 26.4735 29.8729 25.407 29.6081 23.6245C29.3944 22.1855 28.0208 21.1592 26.6616 20.9156ZM27.3523 23.553C27.9586 24.3327 26.9404 24.6422 26.3035 24.7772C25.4364 24.9611 24.5238 24.924 23.6692 24.7044C23.5807 24.6816 23.4927 24.655 23.4046 24.6285C23.4216 24.5801 23.4389 24.5317 23.4584 24.4834C24.0298 23.0629 26.3124 22.2159 27.3523 23.553Z" fill="#FA78FD"/>
<path d="M30.625 17.7076C30.2308 18.988 32.2201 19.6029 32.6151 18.3203C33.0092 17.0399 31.0199 16.4251 30.625 17.7076Z" fill="#FA78FD"/>
<path d="M28.1272 15.5796C27.7329 16.86 29.7223 17.4748 30.1172 16.1923C30.5114 14.9119 28.5221 14.297 28.1272 15.5796Z" fill="#FA78FD"/>
<path d="M31.2656 14.4173C30.8714 15.6977 32.8608 16.3126 33.2557 15.0301C33.6499 13.7496 31.6605 13.1348 31.2656 14.4173Z" fill="#FA78FD"/>
<path d="M12.9287 45.0081C12.5344 46.2886 14.5238 46.9035 14.9187 45.6209C15.313 44.3404 13.3236 43.7255 12.9287 45.0081Z" fill="#FA78FD"/>
<path d="M10.431 42.8802C10.0368 44.1607 12.0261 44.7755 12.421 43.493C12.8152 42.2124 10.8259 41.5976 10.431 42.8802Z" fill="#FA78FD"/>
<path d="M13.5694 41.7179C13.1751 42.9983 15.1645 43.6132 15.5594 42.3307C15.9536 41.0502 13.9642 40.4354 13.5694 41.7179Z" fill="#FA78FD"/>
<path d="M43.7983 33.4915L26.5113 42.6354C26.2154 42.792 26.0127 43.0811 25.9669 43.4129C25.9211 43.7445 26.0374 44.078 26.2798 44.3091L28.2939 46.2299L48.6227 65.6147C48.9469 65.9239 49.4326 65.9912 49.8287 65.7817C50.0786 65.6496 50.2574 65.4259 50.3369 65.1676C50.3834 65.0168 50.3959 64.8541 50.3688 64.6912L45.3129 34.2416C45.2582 33.9113 45.0478 33.6275 44.7477 33.479C44.4475 33.3302 44.0944 33.335 43.7983 33.4915ZM47.8032 61.956L40.5119 55.0031L46.7014 55.3193L47.8032 61.956ZM44.6575 43.0097L40.0052 43.4321C39.4324 43.4842 39.0103 43.9904 39.0624 44.5631C39.1145 45.1357 39.6211 45.5578 40.1939 45.5058L44.9994 45.0695L46.3521 53.2164L38.2014 52.8001L31.3903 46.3052L34.4253 46.0297C34.8588 45.9902 35.2061 45.6906 35.3267 45.299C35.3654 45.1732 35.3808 45.0379 35.3681 44.8987C35.316 44.326 34.8094 43.9039 34.2366 43.9559L29.3884 44.3961L28.7636 43.8001L43.495 36.008L44.6575 43.0097Z" fill="#FA78FD"/>
<path d="M47.4284 14.2842C46.7449 16.5041 47.9955 18.8663 50.2161 19.5501C52.4373 20.234 54.8005 18.9844 55.484 16.7645C56.1677 14.544 54.9167 12.1812 52.6956 11.4973C50.4749 10.8136 48.1121 12.0637 47.4284 14.2842ZM53.4932 16.1515C53.1476 17.2741 51.9523 17.9059 50.8289 17.56C49.706 17.2142 49.0736 16.0196 49.4192 14.8971C49.765 13.7741 50.9599 13.1416 52.0828 13.4874C53.2063 13.8333 53.839 15.0284 53.4932 16.1515Z" fill="#FA78FD"/>
<path d="M19.077 6.72342L13.8414 9.49276C13.5973 9.62197 13.4144 9.84276 13.3332 10.1067C13.2519 10.3706 13.2789 10.6559 13.4082 10.9L16.1796 16.1337C16.4487 16.6418 17.079 16.8357 17.5873 16.567L22.8216 13.7984C23.0758 13.6639 23.2514 13.4391 23.3298 13.1846C23.4082 12.93 23.3894 12.6454 23.255 12.3913L20.4848 7.157C20.3557 6.91276 20.1347 6.73001 19.8707 6.6487C19.6066 6.56751 19.3211 6.59444 19.077 6.72342ZM20.927 12.4445L17.5333 14.2394L15.7365 10.8463L19.1309 9.05087L20.927 12.4445Z" fill="#FA78FD"/>
<path d="M36.2189 44.517C35.8247 45.7974 37.814 46.4123 38.2089 45.1298C38.6032 43.8493 36.6138 43.2345 36.2189 44.517Z" fill="#FA78FD"/>
</g>
<path d="M57 188.543C57 188.543 86.5 184.543 121 185.043C155.5 185.543 185.5 188.543 185.5 188.543" stroke="#65FD87" stroke-width="6" stroke-linecap="round" stroke-linejoin="round"/>
<defs>
<clipPath id="clip0">
<rect x="177.783" y="6.1297" width="57.2174" height="57.1934" fill="white"/>
</clipPath>
<clipPath id="clip1">
<rect y="50.7585" width="53.1101" height="53.1285" transform="rotate(-72.8863 0 50.7585)" fill="white"/>
</clipPath>
</defs>
</svg>
