<svg width="244" height="50" viewBox="0 0 244 50" fill="none" xmlns="http://www.w3.org/2000/svg">
<rect y="0.692963" width="244" height="49.307" rx="10" fill="#CECECE"/>
<rect width="244" height="44.3763" rx="8" fill="#E2E2E2"/>
<path d="M28.064 14.7211C26.464 14.7211 25.488 14.9371 25.136 15.3691C24.32 16.3611 23.912 18.5051 23.912 21.8011C23.912 23.3691 24.056 24.6891 24.344 25.7611C24.648 26.8171 24.992 27.5371 25.376 27.9211C25.776 28.3051 26.368 28.4971 27.152 28.4971C27.936 28.4971 28.712 28.3851 29.48 28.1611C30.264 27.9371 30.864 27.7131 31.28 27.4891L31.928 27.1531L32.624 28.7371C32.464 28.8491 32.24 28.9851 31.952 29.1451C31.68 29.3051 31.096 29.5211 30.2 29.7931C29.304 30.0651 28.4 30.2011 27.488 30.2011C23.648 30.2011 21.728 27.3771 21.728 21.7291C21.728 17.7291 22.56 15.1211 24.224 13.9051C24.752 13.5211 25.304 13.2571 25.88 13.1131C26.472 12.9691 27.36 12.8971 28.544 12.8971C29.744 12.8971 30.872 13.0251 31.928 13.2811L31.688 15.0091C30.216 14.8171 29.008 14.7211 28.064 14.7211ZM38.0242 29.8891H36.0322V11.8171H38.0242V16.7851C39.8322 16.0011 41.2402 15.6091 42.2482 15.6091C43.6082 15.6091 44.5522 16.0171 45.0802 16.8331C45.6242 17.6331 45.8962 18.8891 45.8962 20.6011V29.8891H43.9042V21.2971C43.9042 19.5531 43.7442 18.4491 43.4242 17.9851C43.1842 17.6491 42.7602 17.4811 42.1522 17.4811C41.0002 17.4811 39.8242 17.7291 38.6242 18.2251L38.0242 18.4891V29.8891ZM55.2558 30.2011C51.5438 30.2011 49.6878 27.7691 49.6878 22.9051C49.6878 18.0411 51.5278 15.6091 55.2078 15.6091C56.8398 15.6091 58.0638 16.1211 58.8798 17.1451C59.6958 18.1531 60.1038 19.8331 60.1038 22.1851V23.6731H51.7998C51.7998 25.8331 52.1438 27.2331 52.8318 27.8731C53.2638 28.2571 53.8558 28.4491 54.6078 28.4491C55.9518 28.4491 57.2718 28.2251 58.5678 27.7771L59.2158 27.5371L59.7198 29.1691C58.3758 29.8571 56.8878 30.2011 55.2558 30.2011ZM57.5118 18.0571C57.1918 17.5771 56.4078 17.3371 55.1598 17.3371C53.9118 17.3371 53.0398 17.6651 52.5438 18.3211C52.0478 18.9771 51.7998 20.2331 51.7998 22.0891L58.0638 21.9691C58.0638 19.9691 57.8798 18.6651 57.5118 18.0571ZM68.9919 17.3611C67.7759 17.3611 66.9599 17.5691 66.5439 17.9851C66.2239 18.3371 65.9599 18.9691 65.7519 19.8811C65.5439 20.7771 65.4399 21.8171 65.4399 23.0011C65.4399 25.6891 65.9519 27.3851 66.9759 28.0891C67.3279 28.3451 67.7919 28.4731 68.3679 28.4731C68.9599 28.4731 69.5919 28.3851 70.2639 28.2091C70.9519 28.0171 71.6959 27.7371 72.4959 27.3691L73.1199 28.9291C72.9919 29.0251 72.8079 29.1451 72.5679 29.2891C72.3439 29.4331 71.8559 29.6251 71.1039 29.8651C70.3679 30.0891 69.6239 30.2011 68.8719 30.2011C67.1439 30.2011 65.7919 29.6091 64.8159 28.4251C63.8399 27.2251 63.3519 25.3371 63.3519 22.7611C63.3519 20.1691 63.8879 18.3291 64.9599 17.2411C66.0319 16.1531 67.5039 15.6091 69.3759 15.6091C70.5919 15.6091 71.7279 15.7371 72.7839 15.9931L72.5439 17.6731C70.8159 17.4651 69.6319 17.3611 68.9919 17.3611ZM78.2458 11.8171V29.8891H76.2538L76.3738 22.1851L76.2538 11.8171H78.2458ZM78.2698 22.3531L83.8378 15.9211H86.4058L80.4778 22.2331V22.3531L86.8378 29.8891H84.2458L78.2698 22.3531ZM96.9914 29.8891L97.0394 23.6731L92.1434 13.2091H94.3994L97.9754 21.9931H98.0714L101.671 13.2091H103.927L99.0074 23.6971L99.0554 29.8891H96.9914ZM105.961 22.9291C105.961 20.5291 106.353 18.7131 107.137 17.4811C107.937 16.2331 109.281 15.6091 111.169 15.6091C113.073 15.6091 114.425 16.2331 115.225 17.4811C116.025 18.7131 116.425 20.5211 116.425 22.9051C116.425 25.2891 116.025 27.1051 115.225 28.3531C114.425 29.5851 113.073 30.2011 111.169 30.2011C109.281 30.2011 107.937 29.5851 107.137 28.3531C106.353 27.1211 105.961 25.3131 105.961 22.9291ZM113.113 17.7451C112.697 17.4731 112.057 17.3371 111.193 17.3371C110.329 17.3371 109.681 17.4731 109.249 17.7451C108.833 18.0171 108.513 18.5531 108.289 19.3531C108.081 20.1371 107.977 21.3211 107.977 22.9051C107.977 24.4891 108.081 25.6811 108.289 26.4811C108.497 27.2811 108.817 27.8171 109.249 28.0891C109.681 28.3611 110.329 28.4971 111.193 28.4971C112.057 28.4971 112.697 28.3611 113.113 28.0891C113.545 27.8171 113.865 27.2811 114.073 26.4811C114.281 25.6811 114.385 24.4891 114.385 22.9051C114.385 21.3211 114.281 20.1371 114.073 19.3531C113.865 18.5531 113.545 18.0171 113.113 17.7451ZM128.093 15.9211H130.085V29.8891H128.741L128.501 28.5451H128.381C128.365 28.5451 128.117 28.6811 127.637 28.9531C127.173 29.2091 126.789 29.4091 126.485 29.5531C125.509 29.9851 124.589 30.2011 123.725 30.2011C121.389 30.2011 120.221 28.5371 120.221 25.2091V15.9211H122.213V24.5131C122.213 26.3531 122.317 27.4571 122.525 27.8251C122.749 28.1771 123.269 28.3531 124.085 28.3531C124.917 28.3531 126.253 27.9291 128.093 27.0811V15.9211ZM141.332 17.6491C140.964 17.6171 140.564 17.6011 140.132 17.6011C139.716 17.6011 139.172 17.7291 138.5 17.9851C137.828 18.2411 137.3 18.5211 136.916 18.8251V29.8891H134.924V15.9211H136.196L136.46 17.3371H136.604C137.26 16.8571 137.956 16.4491 138.692 16.1131C139.428 15.7771 140.036 15.6091 140.516 15.6091L141.5 15.7291L141.332 17.6491ZM149.615 29.8891H147.479L152.183 13.2091H154.703L159.407 29.8891H157.247L156.095 25.4251H150.791L149.615 29.8891ZM155.711 23.7451L153.503 14.8411H153.359L151.151 23.7451H155.711ZM164.127 29.8891H162.135V15.9211H163.479L163.695 17.2891H163.815C165.735 16.1691 167.399 15.6091 168.807 15.6091C170.071 15.6091 170.943 16.0971 171.423 17.0731C171.823 17.8891 172.023 19.0651 172.023 20.6011V29.8891H170.007V21.2971C170.007 19.4731 169.887 18.3851 169.647 18.0331C169.423 17.6811 168.991 17.5051 168.351 17.5051C167.135 17.5051 165.727 17.9291 164.127 18.7771V29.8891ZM183.557 17.8651C182.293 17.5131 181.101 17.3371 179.981 17.3371C178.861 17.3371 178.141 17.4571 177.821 17.6971C177.501 17.9371 177.341 18.4011 177.341 19.0891C177.341 19.6971 177.453 20.1211 177.677 20.3611C177.917 20.5851 178.101 20.7531 178.229 20.8651C178.357 20.9771 178.573 21.0971 178.877 21.2251C179.181 21.3371 179.405 21.4171 179.549 21.4651C180.141 21.6411 180.677 21.7931 181.157 21.9211C182.229 22.2251 183.061 22.6571 183.653 23.2171C184.245 23.7771 184.541 24.6891 184.541 25.9531C184.541 27.2011 184.141 28.2251 183.341 29.0251C182.557 29.8091 181.445 30.2011 180.005 30.2011C179.301 30.2011 178.565 30.1051 177.797 29.9131C177.045 29.7211 176.261 29.4331 175.445 29.0491L175.949 27.3451C177.405 28.0971 178.877 28.4731 180.365 28.4731C181.085 28.4731 181.597 28.3451 181.901 28.0891C182.365 27.6891 182.597 27.0651 182.597 26.2171C182.597 25.1611 182.109 24.4171 181.133 23.9851C180.749 23.8091 180.213 23.6251 179.525 23.4331C178.837 23.2251 178.365 23.0811 178.109 23.0011C177.869 22.9211 177.541 22.7771 177.125 22.5691C176.725 22.3451 176.429 22.1131 176.237 21.8731C175.725 21.2331 175.469 20.4091 175.469 19.4011C175.469 16.8731 176.989 15.6091 180.029 15.6091C181.437 15.6091 182.717 15.8011 183.869 16.1851L183.557 17.8651ZM202.786 15.9211L199.978 29.8891H197.026L194.674 18.8971H194.53L192.178 29.8891H189.25L186.442 15.9211H188.458L190.642 28.7371H190.762L193.138 17.7691H196.09L198.442 28.7371H198.586L200.746 15.9211H202.786ZM210.623 30.2011C206.911 30.2011 205.055 27.7691 205.055 22.9051C205.055 18.0411 206.895 15.6091 210.575 15.6091C212.207 15.6091 213.431 16.1211 214.247 17.1451C215.063 18.1531 215.471 19.8331 215.471 22.1851V23.6731H207.167C207.167 25.8331 207.511 27.2331 208.199 27.8731C208.631 28.2571 209.223 28.4491 209.975 28.4491C211.319 28.4491 212.639 28.2251 213.935 27.7771L214.583 27.5371L215.087 29.1691C213.743 29.8571 212.255 30.2011 210.623 30.2011ZM212.879 18.0571C212.559 17.5771 211.775 17.3371 210.527 17.3371C209.279 17.3371 208.407 17.6651 207.911 18.3211C207.415 18.9771 207.167 20.2331 207.167 22.0891L213.431 21.9691C213.431 19.9691 213.247 18.6651 212.879 18.0571ZM225.871 17.6491C225.503 17.6171 225.103 17.6011 224.671 17.6011C224.255 17.6011 223.711 17.7291 223.039 17.9851C222.367 18.2411 221.839 18.5211 221.455 18.8251V29.8891H219.463V15.9211H220.735L220.999 17.3371H221.143C221.799 16.8571 222.495 16.4491 223.231 16.1131C223.967 15.7771 224.575 15.6091 225.055 15.6091L226.039 15.7291L225.871 17.6491Z" fill="black"/>
</svg>
