<svg width="244" height="50" viewBox="0 0 244 50" fill="none" xmlns="http://www.w3.org/2000/svg">
<rect y="0.692963" width="244" height="49.307" rx="10" fill="#37C45F"/>
<rect width="244" height="44.3763" rx="8" fill="#48FF7B"/>
<path d="M28.064 15.7073C26.464 15.7073 25.488 15.9233 25.136 16.3553C24.32 17.3473 23.912 19.4913 23.912 22.7873C23.912 24.3553 24.056 25.6753 24.344 26.7473C24.648 27.8033 24.992 28.5233 25.376 28.9073C25.776 29.2913 26.368 29.4833 27.152 29.4833C27.936 29.4833 28.712 29.3713 29.48 29.1473C30.264 28.9233 30.864 28.6993 31.28 28.4753L31.928 28.1393L32.624 29.7233C32.464 29.8353 32.24 29.9713 31.952 30.1313C31.68 30.2913 31.096 30.5073 30.2 30.7793C29.304 31.0513 28.4 31.1873 27.488 31.1873C23.648 31.1873 21.728 28.3633 21.728 22.7153C21.728 18.7153 22.56 16.1073 24.224 14.8913C24.752 14.5073 25.304 14.2433 25.88 14.0993C26.472 13.9553 27.36 13.8833 28.544 13.8833C29.744 13.8833 30.872 14.0113 31.928 14.2673L31.688 15.9953C30.216 15.8033 29.008 15.7073 28.064 15.7073ZM38.0242 30.8753H36.0322V12.8033H38.0242V17.7713C39.8322 16.9873 41.2402 16.5953 42.2482 16.5953C43.6082 16.5953 44.5522 17.0033 45.0802 17.8193C45.6242 18.6193 45.8962 19.8753 45.8962 21.5873V30.8753H43.9042V22.2833C43.9042 20.5393 43.7442 19.4353 43.4242 18.9713C43.1842 18.6353 42.7602 18.4673 42.1522 18.4673C41.0002 18.4673 39.8242 18.7153 38.6242 19.2113L38.0242 19.4753V30.8753ZM55.2558 31.1873C51.5438 31.1873 49.6878 28.7553 49.6878 23.8913C49.6878 19.0273 51.5278 16.5953 55.2078 16.5953C56.8398 16.5953 58.0638 17.1073 58.8798 18.1313C59.6958 19.1393 60.1038 20.8193 60.1038 23.1713V24.6593H51.7998C51.7998 26.8193 52.1438 28.2193 52.8318 28.8593C53.2638 29.2433 53.8558 29.4353 54.6078 29.4353C55.9518 29.4353 57.2718 29.2113 58.5678 28.7633L59.2158 28.5233L59.7198 30.1553C58.3758 30.8433 56.8878 31.1873 55.2558 31.1873ZM57.5118 19.0433C57.1918 18.5633 56.4078 18.3233 55.1598 18.3233C53.9118 18.3233 53.0398 18.6513 52.5438 19.3073C52.0478 19.9633 51.7998 21.2193 51.7998 23.0753L58.0638 22.9553C58.0638 20.9553 57.8798 19.6513 57.5118 19.0433ZM68.9919 18.3473C67.7759 18.3473 66.9599 18.5553 66.5439 18.9713C66.2239 19.3233 65.9599 19.9553 65.7519 20.8673C65.5439 21.7633 65.4399 22.8033 65.4399 23.9873C65.4399 26.6753 65.9519 28.3713 66.9759 29.0753C67.3279 29.3313 67.7919 29.4593 68.3679 29.4593C68.9599 29.4593 69.5919 29.3713 70.2639 29.1953C70.9519 29.0033 71.6959 28.7233 72.4959 28.3553L73.1199 29.9153C72.9919 30.0113 72.8079 30.1313 72.5679 30.2753C72.3439 30.4193 71.8559 30.6113 71.1039 30.8513C70.3679 31.0753 69.6239 31.1873 68.8719 31.1873C67.1439 31.1873 65.7919 30.5953 64.8159 29.4113C63.8399 28.2113 63.3519 26.3233 63.3519 23.7473C63.3519 21.1553 63.8879 19.3153 64.9599 18.2273C66.0319 17.1393 67.5039 16.5953 69.3759 16.5953C70.5919 16.5953 71.7279 16.7233 72.7839 16.9793L72.5439 18.6593C70.8159 18.4513 69.6319 18.3473 68.9919 18.3473ZM78.2458 12.8033V30.8753H76.2538L76.3738 23.1713L76.2538 12.8033H78.2458ZM78.2698 23.3393L83.8378 16.9073H86.4058L80.4778 23.2193V23.3393L86.8378 30.8753H84.2458L78.2698 23.3393ZM96.9914 30.8753L97.0394 24.6593L92.1434 14.1953H94.3994L97.9754 22.9793H98.0714L101.671 14.1953H103.927L99.0074 24.6833L99.0554 30.8753H96.9914ZM105.961 23.9153C105.961 21.5153 106.353 19.6993 107.137 18.4673C107.937 17.2193 109.281 16.5953 111.169 16.5953C113.073 16.5953 114.425 17.2193 115.225 18.4673C116.025 19.6993 116.425 21.5073 116.425 23.8913C116.425 26.2753 116.025 28.0913 115.225 29.3393C114.425 30.5713 113.073 31.1873 111.169 31.1873C109.281 31.1873 107.937 30.5713 107.137 29.3393C106.353 28.1073 105.961 26.2993 105.961 23.9153ZM113.113 18.7313C112.697 18.4593 112.057 18.3233 111.193 18.3233C110.329 18.3233 109.681 18.4593 109.249 18.7313C108.833 19.0033 108.513 19.5393 108.289 20.3393C108.081 21.1233 107.977 22.3073 107.977 23.8913C107.977 25.4753 108.081 26.6673 108.289 27.4673C108.497 28.2673 108.817 28.8033 109.249 29.0753C109.681 29.3473 110.329 29.4833 111.193 29.4833C112.057 29.4833 112.697 29.3473 113.113 29.0753C113.545 28.8033 113.865 28.2673 114.073 27.4673C114.281 26.6673 114.385 25.4753 114.385 23.8913C114.385 22.3073 114.281 21.1233 114.073 20.3393C113.865 19.5393 113.545 19.0033 113.113 18.7313ZM128.093 16.9073H130.085V30.8753H128.741L128.501 29.5313H128.381C128.365 29.5313 128.117 29.6673 127.637 29.9393C127.173 30.1953 126.789 30.3953 126.485 30.5393C125.509 30.9713 124.589 31.1873 123.725 31.1873C121.389 31.1873 120.221 29.5233 120.221 26.1953V16.9073H122.213V25.4993C122.213 27.3393 122.317 28.4433 122.525 28.8113C122.749 29.1633 123.269 29.3393 124.085 29.3393C124.917 29.3393 126.253 28.9153 128.093 28.0673V16.9073ZM141.332 18.6353C140.964 18.6033 140.564 18.5873 140.132 18.5873C139.716 18.5873 139.172 18.7153 138.5 18.9713C137.828 19.2273 137.3 19.5073 136.916 19.8113V30.8753H134.924V16.9073H136.196L136.46 18.3233H136.604C137.26 17.8433 137.956 17.4353 138.692 17.0993C139.428 16.7633 140.036 16.5953 140.516 16.5953L141.5 16.7153L141.332 18.6353ZM149.615 30.8753H147.479L152.183 14.1953H154.703L159.407 30.8753H157.247L156.095 26.4113H150.791L149.615 30.8753ZM155.711 24.7313L153.503 15.8273H153.359L151.151 24.7313H155.711ZM164.127 30.8753H162.135V16.9073H163.479L163.695 18.2753H163.815C165.735 17.1553 167.399 16.5953 168.807 16.5953C170.071 16.5953 170.943 17.0833 171.423 18.0593C171.823 18.8753 172.023 20.0513 172.023 21.5873V30.8753H170.007V22.2833C170.007 20.4593 169.887 19.3713 169.647 19.0193C169.423 18.6673 168.991 18.4913 168.351 18.4913C167.135 18.4913 165.727 18.9153 164.127 19.7633V30.8753ZM183.557 18.8513C182.293 18.4993 181.101 18.3233 179.981 18.3233C178.861 18.3233 178.141 18.4433 177.821 18.6833C177.501 18.9233 177.341 19.3873 177.341 20.0753C177.341 20.6833 177.453 21.1073 177.677 21.3473C177.917 21.5713 178.101 21.7393 178.229 21.8513C178.357 21.9633 178.573 22.0833 178.877 22.2113C179.181 22.3233 179.405 22.4033 179.549 22.4513C180.141 22.6273 180.677 22.7793 181.157 22.9073C182.229 23.2113 183.061 23.6433 183.653 24.2033C184.245 24.7633 184.541 25.6753 184.541 26.9393C184.541 28.1873 184.141 29.2113 183.341 30.0113C182.557 30.7953 181.445 31.1873 180.005 31.1873C179.301 31.1873 178.565 31.0913 177.797 30.8993C177.045 30.7073 176.261 30.4193 175.445 30.0353L175.949 28.3313C177.405 29.0833 178.877 29.4593 180.365 29.4593C181.085 29.4593 181.597 29.3313 181.901 29.0753C182.365 28.6753 182.597 28.0513 182.597 27.2033C182.597 26.1473 182.109 25.4033 181.133 24.9713C180.749 24.7953 180.213 24.6113 179.525 24.4193C178.837 24.2113 178.365 24.0673 178.109 23.9873C177.869 23.9073 177.541 23.7633 177.125 23.5553C176.725 23.3313 176.429 23.0993 176.237 22.8593C175.725 22.2193 175.469 21.3953 175.469 20.3873C175.469 17.8593 176.989 16.5953 180.029 16.5953C181.437 16.5953 182.717 16.7873 183.869 17.1713L183.557 18.8513ZM202.786 16.9073L199.978 30.8753H197.026L194.674 19.8833H194.53L192.178 30.8753H189.25L186.442 16.9073H188.458L190.642 29.7233H190.762L193.138 18.7553H196.09L198.442 29.7233H198.586L200.746 16.9073H202.786ZM210.623 31.1873C206.911 31.1873 205.055 28.7553 205.055 23.8913C205.055 19.0273 206.895 16.5953 210.575 16.5953C212.207 16.5953 213.431 17.1073 214.247 18.1313C215.063 19.1393 215.471 20.8193 215.471 23.1713V24.6593H207.167C207.167 26.8193 207.511 28.2193 208.199 28.8593C208.631 29.2433 209.223 29.4353 209.975 29.4353C211.319 29.4353 212.639 29.2113 213.935 28.7633L214.583 28.5233L215.087 30.1553C213.743 30.8433 212.255 31.1873 210.623 31.1873ZM212.879 19.0433C212.559 18.5633 211.775 18.3233 210.527 18.3233C209.279 18.3233 208.407 18.6513 207.911 19.3073C207.415 19.9633 207.167 21.2193 207.167 23.0753L213.431 22.9553C213.431 20.9553 213.247 19.6513 212.879 19.0433ZM225.871 18.6353C225.503 18.6033 225.103 18.5873 224.671 18.5873C224.255 18.5873 223.711 18.7153 223.039 18.9713C222.367 19.2273 221.839 19.5073 221.455 19.8113V30.8753H219.463V16.9073H220.735L220.999 18.3233H221.143C221.799 17.8433 222.495 17.4353 223.231 17.0993C223.967 16.7633 224.575 16.5953 225.055 16.5953L226.039 16.7153L225.871 18.6353Z" fill="black"/>
</svg>
