<svg width="244" height="50" viewBox="0 0 244 50" fill="none" xmlns="http://www.w3.org/2000/svg">
<rect y="5" width="244" height="45" rx="8" fill="#48FF7B"/>
<path d="M28.064 19.832C26.464 19.832 25.488 20.048 25.136 20.48C24.32 21.472 23.912 23.616 23.912 26.912C23.912 28.48 24.056 29.8 24.344 30.872C24.648 31.928 24.992 32.648 25.376 33.032C25.776 33.416 26.368 33.608 27.152 33.608C27.936 33.608 28.712 33.496 29.48 33.272C30.264 33.048 30.864 32.824 31.28 32.6L31.928 32.264L32.624 33.848C32.464 33.96 32.24 34.096 31.952 34.256C31.68 34.416 31.096 34.632 30.2 34.904C29.304 35.176 28.4 35.312 27.488 35.312C23.648 35.312 21.728 32.488 21.728 26.84C21.728 22.84 22.56 20.232 24.224 19.016C24.752 18.632 25.304 18.368 25.88 18.224C26.472 18.08 27.36 18.008 28.544 18.008C29.744 18.008 30.872 18.136 31.928 18.392L31.688 20.12C30.216 19.928 29.008 19.832 28.064 19.832ZM38.0242 35H36.0322V16.928H38.0242V21.896C39.8322 21.112 41.2402 20.72 42.2482 20.72C43.6082 20.72 44.5522 21.128 45.0802 21.944C45.6242 22.744 45.8962 24 45.8962 25.712V35H43.9042V26.408C43.9042 24.664 43.7442 23.56 43.4242 23.096C43.1842 22.76 42.7602 22.592 42.1522 22.592C41.0002 22.592 39.8242 22.84 38.6242 23.336L38.0242 23.6V35ZM55.2558 35.312C51.5438 35.312 49.6878 32.88 49.6878 28.016C49.6878 23.152 51.5278 20.72 55.2078 20.72C56.8398 20.72 58.0638 21.232 58.8798 22.256C59.6958 23.264 60.1038 24.944 60.1038 27.296V28.784H51.7998C51.7998 30.944 52.1438 32.344 52.8318 32.984C53.2638 33.368 53.8558 33.56 54.6078 33.56C55.9518 33.56 57.2718 33.336 58.5678 32.888L59.2158 32.648L59.7198 34.28C58.3758 34.968 56.8878 35.312 55.2558 35.312ZM57.5118 23.168C57.1918 22.688 56.4078 22.448 55.1598 22.448C53.9118 22.448 53.0398 22.776 52.5438 23.432C52.0478 24.088 51.7998 25.344 51.7998 27.2L58.0638 27.08C58.0638 25.08 57.8798 23.776 57.5118 23.168ZM68.9919 22.472C67.7759 22.472 66.9599 22.68 66.5439 23.096C66.2239 23.448 65.9599 24.08 65.7519 24.992C65.5439 25.888 65.4399 26.928 65.4399 28.112C65.4399 30.8 65.9519 32.496 66.9759 33.2C67.3279 33.456 67.7919 33.584 68.3679 33.584C68.9599 33.584 69.5919 33.496 70.2639 33.32C70.9519 33.128 71.6959 32.848 72.4959 32.48L73.1199 34.04C72.9919 34.136 72.8079 34.256 72.5679 34.4C72.3439 34.544 71.8559 34.736 71.1039 34.976C70.3679 35.2 69.6239 35.312 68.8719 35.312C67.1439 35.312 65.7919 34.72 64.8159 33.536C63.8399 32.336 63.3519 30.448 63.3519 27.872C63.3519 25.28 63.8879 23.44 64.9599 22.352C66.0319 21.264 67.5039 20.72 69.3759 20.72C70.5919 20.72 71.7279 20.848 72.7839 21.104L72.5439 22.784C70.8159 22.576 69.6319 22.472 68.9919 22.472ZM78.2458 16.928V35H76.2538L76.3738 27.296L76.2538 16.928H78.2458ZM78.2698 27.464L83.8378 21.032H86.4058L80.4778 27.344V27.464L86.8378 35H84.2458L78.2698 27.464ZM96.9914 35L97.0394 28.784L92.1434 18.32H94.3994L97.9754 27.104H98.0714L101.671 18.32H103.927L99.0074 28.808L99.0554 35H96.9914ZM105.961 28.04C105.961 25.64 106.353 23.824 107.137 22.592C107.937 21.344 109.281 20.72 111.169 20.72C113.073 20.72 114.425 21.344 115.225 22.592C116.025 23.824 116.425 25.632 116.425 28.016C116.425 30.4 116.025 32.216 115.225 33.464C114.425 34.696 113.073 35.312 111.169 35.312C109.281 35.312 107.937 34.696 107.137 33.464C106.353 32.232 105.961 30.424 105.961 28.04ZM113.113 22.856C112.697 22.584 112.057 22.448 111.193 22.448C110.329 22.448 109.681 22.584 109.249 22.856C108.833 23.128 108.513 23.664 108.289 24.464C108.081 25.248 107.977 26.432 107.977 28.016C107.977 29.6 108.081 30.792 108.289 31.592C108.497 32.392 108.817 32.928 109.249 33.2C109.681 33.472 110.329 33.608 111.193 33.608C112.057 33.608 112.697 33.472 113.113 33.2C113.545 32.928 113.865 32.392 114.073 31.592C114.281 30.792 114.385 29.6 114.385 28.016C114.385 26.432 114.281 25.248 114.073 24.464C113.865 23.664 113.545 23.128 113.113 22.856ZM128.093 21.032H130.085V35H128.741L128.501 33.656H128.381C128.365 33.656 128.117 33.792 127.637 34.064C127.173 34.32 126.789 34.52 126.485 34.664C125.509 35.096 124.589 35.312 123.725 35.312C121.389 35.312 120.221 33.648 120.221 30.32V21.032H122.213V29.624C122.213 31.464 122.317 32.568 122.525 32.936C122.749 33.288 123.269 33.464 124.085 33.464C124.917 33.464 126.253 33.04 128.093 32.192V21.032ZM141.332 22.76C140.964 22.728 140.564 22.712 140.132 22.712C139.716 22.712 139.172 22.84 138.5 23.096C137.828 23.352 137.3 23.632 136.916 23.936V35H134.924V21.032H136.196L136.46 22.448H136.604C137.26 21.968 137.956 21.56 138.692 21.224C139.428 20.888 140.036 20.72 140.516 20.72L141.5 20.84L141.332 22.76ZM149.615 35H147.479L152.183 18.32H154.703L159.407 35H157.247L156.095 30.536H150.791L149.615 35ZM155.711 28.856L153.503 19.952H153.359L151.151 28.856H155.711ZM164.127 35H162.135V21.032H163.479L163.695 22.4H163.815C165.735 21.28 167.399 20.72 168.807 20.72C170.071 20.72 170.943 21.208 171.423 22.184C171.823 23 172.023 24.176 172.023 25.712V35H170.007V26.408C170.007 24.584 169.887 23.496 169.647 23.144C169.423 22.792 168.991 22.616 168.351 22.616C167.135 22.616 165.727 23.04 164.127 23.888V35ZM183.557 22.976C182.293 22.624 181.101 22.448 179.981 22.448C178.861 22.448 178.141 22.568 177.821 22.808C177.501 23.048 177.341 23.512 177.341 24.2C177.341 24.808 177.453 25.232 177.677 25.472C177.917 25.696 178.101 25.864 178.229 25.976C178.357 26.088 178.573 26.208 178.877 26.336C179.181 26.448 179.405 26.528 179.549 26.576C180.141 26.752 180.677 26.904 181.157 27.032C182.229 27.336 183.061 27.768 183.653 28.328C184.245 28.888 184.541 29.8 184.541 31.064C184.541 32.312 184.141 33.336 183.341 34.136C182.557 34.92 181.445 35.312 180.005 35.312C179.301 35.312 178.565 35.216 177.797 35.024C177.045 34.832 176.261 34.544 175.445 34.16L175.949 32.456C177.405 33.208 178.877 33.584 180.365 33.584C181.085 33.584 181.597 33.456 181.901 33.2C182.365 32.8 182.597 32.176 182.597 31.328C182.597 30.272 182.109 29.528 181.133 29.096C180.749 28.92 180.213 28.736 179.525 28.544C178.837 28.336 178.365 28.192 178.109 28.112C177.869 28.032 177.541 27.888 177.125 27.68C176.725 27.456 176.429 27.224 176.237 26.984C175.725 26.344 175.469 25.52 175.469 24.512C175.469 21.984 176.989 20.72 180.029 20.72C181.437 20.72 182.717 20.912 183.869 21.296L183.557 22.976ZM202.786 21.032L199.978 35H197.026L194.674 24.008H194.53L192.178 35H189.25L186.442 21.032H188.458L190.642 33.848H190.762L193.138 22.88H196.09L198.442 33.848H198.586L200.746 21.032H202.786ZM210.623 35.312C206.911 35.312 205.055 32.88 205.055 28.016C205.055 23.152 206.895 20.72 210.575 20.72C212.207 20.72 213.431 21.232 214.247 22.256C215.063 23.264 215.471 24.944 215.471 27.296V28.784H207.167C207.167 30.944 207.511 32.344 208.199 32.984C208.631 33.368 209.223 33.56 209.975 33.56C211.319 33.56 212.639 33.336 213.935 32.888L214.583 32.648L215.087 34.28C213.743 34.968 212.255 35.312 210.623 35.312ZM212.879 23.168C212.559 22.688 211.775 22.448 210.527 22.448C209.279 22.448 208.407 22.776 207.911 23.432C207.415 24.088 207.167 25.344 207.167 27.2L213.431 27.08C213.431 25.08 213.247 23.776 212.879 23.168ZM225.871 22.76C225.503 22.728 225.103 22.712 224.671 22.712C224.255 22.712 223.711 22.84 223.039 23.096C222.367 23.352 221.839 23.632 221.455 23.936V35H219.463V21.032H220.735L220.999 22.448H221.143C221.799 21.968 222.495 21.56 223.231 21.224C223.967 20.888 224.575 20.72 225.055 20.72L226.039 20.84L225.871 22.76Z" fill="black"/>
</svg>
