<svg width="512" height="481" viewBox="0 0 512 481" fill="none" xmlns="http://www.w3.org/2000/svg">
<path d="M138 275C100.504 275 70 305.504 70 343C70 380.496 100.504 411 138 411C175.496 411 206 380.496 206 343C206 305.504 175.496 275 138 275ZM138 371C122.562 371 110 358.438 110 343C110 327.562 122.562 315 138 315C153.438 315 166 327.562 166 343C166 358.438 153.438 371 138 371ZM376.59 205.031C387.672 185.172 394 162.312 394 138C394 61.9062 332.094 0 256 0C179.906 0 118 61.9062 118 138C118 162.312 124.328 185.172 135.41 205.031C60.5078 206.418 0 267.77 0 343C0 419.094 61.9062 481 138 481C187.941 481 231.77 454.336 256 414.492C280.23 454.336 324.059 481 374 481C450.094 481 512 419.094 512 343C512 267.77 451.492 206.418 376.59 205.031ZM138 441C83.9648 441 40 397.035 40 343C40 288.965 83.9648 245 138 245C192.035 245 236 288.965 236 343C236 397.035 192.035 441 138 441ZM158 138C158 83.9648 201.965 40 256 40C310.035 40 354 83.9648 354 138C354 192.035 310.035 236 256 236C201.965 236 158 192.035 158 138V138ZM374 441C319.965 441 276 397.035 276 343C276 288.965 319.965 245 374 245C428.035 245 472 288.965 472 343C472 397.035 428.035 441 374 441ZM374 275C336.504 275 306 305.504 306 343C306 380.496 336.504 411 374 411C411.496 411 442 380.496 442 343C442 305.504 411.496 275 374 275ZM374 371C358.562 371 346 358.438 346 343C346 327.562 358.562 315 374 315C389.438 315 402 327.562 402 343C402 358.438 389.438 371 374 371ZM256 70C218.504 70 188 100.504 188 138C188 175.496 218.504 206 256 206C293.496 206 324 175.496 324 138C324 100.504 293.496 70 256 70ZM256 166C240.562 166 228 153.438 228 138C228 122.562 240.562 110 256 110C271.438 110 284 122.562 284 138C284 153.438 271.438 166 256 166Z" fill="#F3FF00"/>
</svg>
