<svg height="512pt" viewBox="0 -15 512 512" width="512pt" xmlns="http://www.w3.org/2000/svg"><path d="m138 275c-37.496094 0-68 30.503906-68 68s30.503906 68 68 68 68-30.503906 68-68-30.503906-68-68-68zm0 96c-15.4375 0-28-12.5625-28-28s12.5625-28 28-28 28 12.5625 28 28-12.5625 28-28 28zm238.589844-165.96875c11.082031-19.859375 17.410156-42.71875 17.410156-67.03125 0-76.09375-61.90625-138-138-138s-138 61.90625-138 138c0 24.3125 6.328125 47.171875 17.410156 67.03125-74.902344 1.386719-135.410156 62.738281-135.410156 137.96875 0 76.09375 61.90625 138 138 138 49.941406 0 93.769531-26.664062 118-66.507812 24.230469 39.84375 68.058594 66.507812 118 66.507812 76.09375 0 138-61.90625 138-138 0-75.230469-60.507812-136.582031-135.410156-137.96875zm-238.589844 235.96875c-54.035156 0-98-43.964844-98-98s43.964844-98 98-98 98 43.964844 98 98-43.964844 98-98 98zm20-303c0-54.035156 43.964844-98 98-98s98 43.964844 98 98-43.964844 98-98 98-98-43.964844-98-98zm216 303c-54.035156 0-98-43.964844-98-98s43.964844-98 98-98 98 43.964844 98 98-43.964844 98-98 98zm0-166c-37.496094 0-68 30.503906-68 68s30.503906 68 68 68 68-30.503906 68-68-30.503906-68-68-68zm0 96c-15.4375 0-28-12.5625-28-28s12.5625-28 28-28 28 12.5625 28 28-12.5625 28-28 28zm-118-301c-37.496094 0-68 30.503906-68 68s30.503906 68 68 68 68-30.503906 68-68-30.503906-68-68-68zm0 96c-15.4375 0-28-12.5625-28-28s12.5625-28 28-28 28 12.5625 28 28-12.5625 28-28 28zm0 0"/></svg>