<svg width="206" height="206" viewBox="0 0 206 206" fill="none" xmlns="http://www.w3.org/2000/svg">
<g clip-path="url(#clip0)">
<path d="M4.99299 59.5547L98.7149 102.07C101.451 103.314 104.545 103.314 107.281 102.07L201.003 59.5547C207.662 56.5331 207.662 46.4705 201.003 43.4489L107.285 0.929244C105.941 0.314828 104.48 -0.00317383 103.002 -0.00317383C101.524 -0.00317383 100.063 0.314828 98.719 0.929244L4.99299 43.4449C-1.6658 46.4665 -1.6658 56.5331 4.99299 59.5547ZM201.007 95.0736L177.635 84.4799L112.6 113.96C109.558 115.34 106.327 116.04 103 116.04C99.6725 116.04 96.4457 115.34 93.4 113.96L28.3692 84.4799L4.99299 95.0736C-1.6658 98.0912 -1.6658 108.15 4.99299 111.167L98.7149 153.651C101.451 154.89 104.545 154.89 107.281 153.651L201.007 111.167C207.666 108.15 207.666 98.0912 201.007 95.0736V95.0736ZM201.007 146.493L177.723 135.94L112.6 165.46C109.558 166.84 106.327 167.54 103 167.54C99.6725 167.54 96.4457 166.84 93.4 165.46L28.2806 135.94L4.99299 146.493C-1.6658 149.511 -1.6658 159.569 4.99299 162.587L98.7149 205.07C101.451 206.31 104.545 206.31 107.281 205.07L201.007 162.587C207.666 159.569 207.666 149.511 201.007 146.493V146.493Z" fill="#00FF8C"/>
</g>
<defs>
<clipPath id="clip0">
<rect width="206" height="206" fill="white"/>
</clipPath>
</defs>
</svg>
