<svg width="131" height="42" viewBox="0 0 131 42" fill="none" xmlns="http://www.w3.org/2000/svg">
<path d="M8.00001 3C4.50001 14.5 3 29.5 3 29.5" stroke="#4A0085" stroke-width="6" stroke-linecap="round" stroke-linejoin="round"/>
<path d="M13 20C13 20 12 24 11.5 29.5" stroke="#4A0085" stroke-width="6" stroke-linecap="round" stroke-linejoin="round"/>
<path d="M14.0479 14.1215C14.0479 14.1215 14.0204 13.5576 14.5204 13.0576" stroke="#4A0085" stroke-width="5" stroke-linecap="round" stroke-linejoin="round"/>
<path d="M23.5882 15C23.5882 15 23.2222 16.0475 22.7271 18.3333M21 30C21.5327 24.569 22.2024 20.7558 22.7271 18.3333M30 30C31.0353 19.4444 31 19 32 18.3333C33 17.6667 22.7271 18.3333 22.7271 18.3333" stroke="#4A0085" stroke-width="6" stroke-linecap="round" stroke-linejoin="round"/>
<path d="M74.4862 16C74.4862 16 74.1346 17.0475 73.659 19.3333M72 31C72.5117 25.569 73.155 21.7558 73.659 19.3333M82.5 19.3333C82.5 19.3333 81.5523 24 81 31M82.5 19.3333C79.0193 19.3333 73.659 19.3333 73.659 19.3333M82.5 19.3333C86.478 19.3333 93.3899 18.9444 92 20.5C90.6101 22.0556 90 31 90 31" stroke="#4A0085" stroke-width="6" stroke-linecap="round" stroke-linejoin="round"/>
<path d="M58.8931 31.0078C54.8898 31.0078 54.4013 30.5078 55.5243 23.5078C56.6472 16.5078 57.2619 17.0078 62.3964 17.0078C67.5309 17.0078 66.3964 19.5078 64.6682 25.0078C62.9399 30.5078 62.8964 31.0078 58.8931 31.0078Z" stroke="#4A0085" stroke-width="5" stroke-linecap="round" stroke-linejoin="round"/>
<path d="M46.8827 28.989C46.0107 30.9955 44.7669 30.9872 41.7005 30.9872C37.4738 30.9872 36.9066 30.5056 38.0922 23.7528C39.2779 17 40.436 17 44.955 17C49.4739 17 49.4739 19.9972 48.4374 23.7528C47.401 27.5084 47.2388 28.1696 46.8827 28.989ZM46.8827 28.989C46.8827 28.989 46.0101 31.644 44.955 35.8114C43.8999 39.9789 42.2187 38.789 36 38.9798" stroke="#4A0085" stroke-width="5" stroke-linecap="round" stroke-linejoin="round"/>
<path d="M119.55 31C114.871 31 114.3 30.3932 115.613 21.8979C116.925 13.4027 117.643 14.0095 123.644 14.0095C129.644 14.0095 128.318 17.0435 126.299 23.7184C124.279 30.3932 124.228 31 119.55 31Z" stroke="#4A0085" stroke-width="5" stroke-linecap="round" stroke-linejoin="round"/>
<path d="M101.893 31.0078C97.8898 31.0078 97.4013 30.5078 98.5243 23.5078C99.6472 16.5078 100.262 17.0078 105.396 17.0078C110.531 17.0078 109.396 19.5078 107.668 25.0078C105.94 30.5078 105.896 31.0078 101.893 31.0078Z" stroke="#4A0085" stroke-width="5" stroke-linecap="round" stroke-linejoin="round"/>
</svg>
