<svg width="244" height="50" viewBox="0 0 244 50" fill="none" xmlns="http://www.w3.org/2000/svg">
<rect y="5" width="244" height="45" rx="8" fill="#48FF7B"/>
<path d="M48.52 17.32H51.328L58 32.104H58.12L57.76 17.32H59.728V34H56.92L50.272 19.216H50.176L50.488 34H48.52V17.32ZM69.4902 34.312C65.7782 34.312 63.9222 31.88 63.9222 27.016C63.9222 22.152 65.7622 19.72 69.4422 19.72C71.0742 19.72 72.2982 20.232 73.1142 21.256C73.9302 22.264 74.3382 23.944 74.3382 26.296V27.784H66.0342C66.0342 29.944 66.3782 31.344 67.0662 31.984C67.4982 32.368 68.0902 32.56 68.8422 32.56C70.1862 32.56 71.5062 32.336 72.8022 31.888L73.4502 31.648L73.9542 33.28C72.6102 33.968 71.1222 34.312 69.4902 34.312ZM71.7462 22.168C71.4262 21.688 70.6422 21.448 69.3942 21.448C68.1462 21.448 67.2742 21.776 66.7782 22.432C66.2822 23.088 66.0342 24.344 66.0342 26.2L72.2982 26.08C72.2982 24.08 72.1142 22.776 71.7462 22.168ZM82.8903 26.776L87.0903 34H84.7623L81.7143 27.976H81.5943L78.6183 34H76.3143L80.4903 26.728L76.3623 20.032H78.6183L81.6663 25.624H81.8103L84.7623 20.032H87.0183L82.8903 26.776ZM92.3513 20.848H95.1353V22.456H92.3513V29.704C92.3513 31.048 92.4153 31.856 92.5433 32.128C92.6873 32.4 93.1113 32.536 93.8153 32.536L95.1113 32.488V34.096C94.7753 34.176 94.3273 34.216 93.7673 34.216C92.6153 34.216 91.7593 33.904 91.1993 33.28C90.6393 32.64 90.3593 31.4 90.3593 29.56V22.408H88.7753V21.16L90.4313 20.824L90.9593 17.56H92.3513V20.848ZM111.788 34.048C111.196 34.224 110.468 34.312 109.604 34.312C108.756 34.312 107.988 34.184 107.3 33.928C106.612 33.672 105.972 33.232 105.38 32.608C104.164 31.344 103.556 29.016 103.556 25.624C103.556 22.248 104.164 19.936 105.38 18.688C105.972 18.08 106.612 17.648 107.3 17.392C107.988 17.136 108.788 17.008 109.7 17.008C110.612 17.008 111.412 17.136 112.1 17.392C112.788 17.648 113.428 18.08 114.02 18.688C115.236 19.936 115.844 22.328 115.844 25.864C115.844 29.384 115.028 31.8 113.396 33.112V33.256L116.684 34.336L115.892 36.208L111.788 34.048ZM107.372 19.288C106.844 19.592 106.436 20.248 106.148 21.256C105.86 22.248 105.716 23.608 105.716 25.336C105.716 27.064 105.788 28.376 105.932 29.272C106.076 30.168 106.324 30.856 106.676 31.336C107.044 31.8 107.452 32.104 107.9 32.248C108.348 32.392 109.012 32.464 109.892 32.464C110.772 32.464 111.476 32.32 112.004 32.032C113.14 31.408 113.708 29.296 113.708 25.696C113.708 22.064 113.148 19.928 112.028 19.288C111.5 18.984 110.724 18.832 109.7 18.832C108.676 18.832 107.9 18.984 107.372 19.288ZM127.726 20.032H129.718V34H128.374L128.134 32.656H128.014C127.998 32.656 127.75 32.792 127.27 33.064C126.806 33.32 126.422 33.52 126.118 33.664C125.142 34.096 124.222 34.312 123.358 34.312C121.022 34.312 119.854 32.648 119.854 29.32V20.032H121.846V28.624C121.846 30.464 121.95 31.568 122.158 31.936C122.382 32.288 122.902 32.464 123.718 32.464C124.55 32.464 125.886 32.04 127.726 31.192V20.032ZM139.381 34.312C135.669 34.312 133.813 31.88 133.813 27.016C133.813 22.152 135.653 19.72 139.333 19.72C140.965 19.72 142.189 20.232 143.005 21.256C143.821 22.264 144.229 23.944 144.229 26.296V27.784H135.925C135.925 29.944 136.269 31.344 136.957 31.984C137.389 32.368 137.981 32.56 138.733 32.56C140.077 32.56 141.397 32.336 142.693 31.888L143.341 31.648L143.845 33.28C142.501 33.968 141.013 34.312 139.381 34.312ZM141.637 22.168C141.317 21.688 140.533 21.448 139.285 21.448C138.037 21.448 137.165 21.776 136.669 22.432C136.173 23.088 135.925 24.344 135.925 26.2L142.189 26.08C142.189 24.08 142.005 22.776 141.637 22.168ZM155.229 21.976C153.965 21.624 152.773 21.448 151.653 21.448C150.533 21.448 149.813 21.568 149.493 21.808C149.173 22.048 149.013 22.512 149.013 23.2C149.013 23.808 149.125 24.232 149.349 24.472C149.589 24.696 149.773 24.864 149.901 24.976C150.029 25.088 150.245 25.208 150.549 25.336C150.853 25.448 151.077 25.528 151.221 25.576C151.813 25.752 152.349 25.904 152.829 26.032C153.901 26.336 154.733 26.768 155.325 27.328C155.917 27.888 156.213 28.8 156.213 30.064C156.213 31.312 155.813 32.336 155.013 33.136C154.229 33.92 153.117 34.312 151.677 34.312C150.973 34.312 150.237 34.216 149.469 34.024C148.717 33.832 147.933 33.544 147.117 33.16L147.621 31.456C149.077 32.208 150.549 32.584 152.037 32.584C152.757 32.584 153.269 32.456 153.573 32.2C154.037 31.8 154.269 31.176 154.269 30.328C154.269 29.272 153.781 28.528 152.805 28.096C152.421 27.92 151.885 27.736 151.197 27.544C150.509 27.336 150.037 27.192 149.781 27.112C149.541 27.032 149.213 26.888 148.797 26.68C148.397 26.456 148.101 26.224 147.909 25.984C147.397 25.344 147.141 24.52 147.141 23.512C147.141 20.984 148.661 19.72 151.701 19.72C153.109 19.72 154.389 19.912 155.541 20.296L155.229 21.976ZM162.265 20.848H165.049V22.456H162.265V29.704C162.265 31.048 162.329 31.856 162.457 32.128C162.601 32.4 163.025 32.536 163.729 32.536L165.025 32.488V34.096C164.689 34.176 164.241 34.216 163.681 34.216C162.529 34.216 161.673 33.904 161.113 33.28C160.553 32.64 160.273 31.4 160.273 29.56V22.408H158.689V21.16L160.345 20.824L160.873 17.56H162.265V20.848ZM170.888 34H168.896V20.032H170.888V34ZM171.128 17.968H168.68V15.928H171.128V17.968ZM175.11 27.04C175.11 24.64 175.502 22.824 176.286 21.592C177.086 20.344 178.43 19.72 180.318 19.72C182.222 19.72 183.574 20.344 184.374 21.592C185.174 22.824 185.574 24.632 185.574 27.016C185.574 29.4 185.174 31.216 184.374 32.464C183.574 33.696 182.222 34.312 180.318 34.312C178.43 34.312 177.086 33.696 176.286 32.464C175.502 31.232 175.11 29.424 175.11 27.04ZM182.262 21.856C181.846 21.584 181.206 21.448 180.342 21.448C179.478 21.448 178.83 21.584 178.398 21.856C177.982 22.128 177.662 22.664 177.438 23.464C177.23 24.248 177.126 25.432 177.126 27.016C177.126 28.6 177.23 29.792 177.438 30.592C177.646 31.392 177.966 31.928 178.398 32.2C178.83 32.472 179.478 32.608 180.342 32.608C181.206 32.608 181.846 32.472 182.262 32.2C182.694 31.928 183.014 31.392 183.222 30.592C183.43 29.792 183.534 28.6 183.534 27.016C183.534 25.432 183.43 24.248 183.222 23.464C183.014 22.664 182.694 22.128 182.262 21.856ZM191.674 34H189.682V20.032H191.026L191.242 21.4H191.362C193.282 20.28 194.946 19.72 196.354 19.72C197.618 19.72 198.49 20.208 198.97 21.184C199.37 22 199.57 23.176 199.57 24.712V34H197.554V25.408C197.554 23.584 197.434 22.496 197.194 22.144C196.97 21.792 196.538 21.616 195.898 21.616C194.682 21.616 193.274 22.04 191.674 22.888V34Z" fill="black"/>
</svg>
