<svg width="244" height="50" viewBox="0 0 244 50" fill="none" xmlns="http://www.w3.org/2000/svg">
<rect y="0.55781" width="244" height="49.4422" rx="10" fill="#C2C2C2"/>
<rect width="244" height="44.498" rx="8" fill="#E2E2E2"/>
<path d="M48.52 15.32H51.328L58 30.104H58.12L57.76 15.32H59.728V32H56.92L50.272 17.216H50.176L50.488 32H48.52V15.32ZM69.4902 32.312C65.7782 32.312 63.9222 29.88 63.9222 25.016C63.9222 20.152 65.7622 17.72 69.4422 17.72C71.0742 17.72 72.2982 18.232 73.1142 19.256C73.9302 20.264 74.3382 21.944 74.3382 24.296V25.784H66.0342C66.0342 27.944 66.3782 29.344 67.0662 29.984C67.4982 30.368 68.0902 30.56 68.8422 30.56C70.1862 30.56 71.5062 30.336 72.8022 29.888L73.4502 29.648L73.9542 31.28C72.6102 31.968 71.1222 32.312 69.4902 32.312ZM71.7462 20.168C71.4262 19.688 70.6422 19.448 69.3942 19.448C68.1462 19.448 67.2742 19.776 66.7782 20.432C66.2822 21.088 66.0342 22.344 66.0342 24.2L72.2982 24.08C72.2982 22.08 72.1142 20.776 71.7462 20.168ZM82.8903 24.776L87.0903 32H84.7623L81.7143 25.976H81.5943L78.6183 32H76.3143L80.4903 24.728L76.3623 18.032H78.6183L81.6663 23.624H81.8103L84.7623 18.032H87.0183L82.8903 24.776ZM92.3513 18.848H95.1353V20.456H92.3513V27.704C92.3513 29.048 92.4153 29.856 92.5433 30.128C92.6873 30.4 93.1113 30.536 93.8153 30.536L95.1113 30.488V32.096C94.7753 32.176 94.3273 32.216 93.7673 32.216C92.6153 32.216 91.7593 31.904 91.1993 31.28C90.6393 30.64 90.3593 29.4 90.3593 27.56V20.408H88.7753V19.16L90.4313 18.824L90.9593 15.56H92.3513V18.848ZM111.788 32.048C111.196 32.224 110.468 32.312 109.604 32.312C108.756 32.312 107.988 32.184 107.3 31.928C106.612 31.672 105.972 31.232 105.38 30.608C104.164 29.344 103.556 27.016 103.556 23.624C103.556 20.248 104.164 17.936 105.38 16.688C105.972 16.08 106.612 15.648 107.3 15.392C107.988 15.136 108.788 15.008 109.7 15.008C110.612 15.008 111.412 15.136 112.1 15.392C112.788 15.648 113.428 16.08 114.02 16.688C115.236 17.936 115.844 20.328 115.844 23.864C115.844 27.384 115.028 29.8 113.396 31.112V31.256L116.684 32.336L115.892 34.208L111.788 32.048ZM107.372 17.288C106.844 17.592 106.436 18.248 106.148 19.256C105.86 20.248 105.716 21.608 105.716 23.336C105.716 25.064 105.788 26.376 105.932 27.272C106.076 28.168 106.324 28.856 106.676 29.336C107.044 29.8 107.452 30.104 107.9 30.248C108.348 30.392 109.012 30.464 109.892 30.464C110.772 30.464 111.476 30.32 112.004 30.032C113.14 29.408 113.708 27.296 113.708 23.696C113.708 20.064 113.148 17.928 112.028 17.288C111.5 16.984 110.724 16.832 109.7 16.832C108.676 16.832 107.9 16.984 107.372 17.288ZM127.726 18.032H129.718V32H128.374L128.134 30.656H128.014C127.998 30.656 127.75 30.792 127.27 31.064C126.806 31.32 126.422 31.52 126.118 31.664C125.142 32.096 124.222 32.312 123.358 32.312C121.022 32.312 119.854 30.648 119.854 27.32V18.032H121.846V26.624C121.846 28.464 121.95 29.568 122.158 29.936C122.382 30.288 122.902 30.464 123.718 30.464C124.55 30.464 125.886 30.04 127.726 29.192V18.032ZM139.381 32.312C135.669 32.312 133.813 29.88 133.813 25.016C133.813 20.152 135.653 17.72 139.333 17.72C140.965 17.72 142.189 18.232 143.005 19.256C143.821 20.264 144.229 21.944 144.229 24.296V25.784H135.925C135.925 27.944 136.269 29.344 136.957 29.984C137.389 30.368 137.981 30.56 138.733 30.56C140.077 30.56 141.397 30.336 142.693 29.888L143.341 29.648L143.845 31.28C142.501 31.968 141.013 32.312 139.381 32.312ZM141.637 20.168C141.317 19.688 140.533 19.448 139.285 19.448C138.037 19.448 137.165 19.776 136.669 20.432C136.173 21.088 135.925 22.344 135.925 24.2L142.189 24.08C142.189 22.08 142.005 20.776 141.637 20.168ZM155.229 19.976C153.965 19.624 152.773 19.448 151.653 19.448C150.533 19.448 149.813 19.568 149.493 19.808C149.173 20.048 149.013 20.512 149.013 21.2C149.013 21.808 149.125 22.232 149.349 22.472C149.589 22.696 149.773 22.864 149.901 22.976C150.029 23.088 150.245 23.208 150.549 23.336C150.853 23.448 151.077 23.528 151.221 23.576C151.813 23.752 152.349 23.904 152.829 24.032C153.901 24.336 154.733 24.768 155.325 25.328C155.917 25.888 156.213 26.8 156.213 28.064C156.213 29.312 155.813 30.336 155.013 31.136C154.229 31.92 153.117 32.312 151.677 32.312C150.973 32.312 150.237 32.216 149.469 32.024C148.717 31.832 147.933 31.544 147.117 31.16L147.621 29.456C149.077 30.208 150.549 30.584 152.037 30.584C152.757 30.584 153.269 30.456 153.573 30.2C154.037 29.8 154.269 29.176 154.269 28.328C154.269 27.272 153.781 26.528 152.805 26.096C152.421 25.92 151.885 25.736 151.197 25.544C150.509 25.336 150.037 25.192 149.781 25.112C149.541 25.032 149.213 24.888 148.797 24.68C148.397 24.456 148.101 24.224 147.909 23.984C147.397 23.344 147.141 22.52 147.141 21.512C147.141 18.984 148.661 17.72 151.701 17.72C153.109 17.72 154.389 17.912 155.541 18.296L155.229 19.976ZM162.265 18.848H165.049V20.456H162.265V27.704C162.265 29.048 162.329 29.856 162.457 30.128C162.601 30.4 163.025 30.536 163.729 30.536L165.025 30.488V32.096C164.689 32.176 164.241 32.216 163.681 32.216C162.529 32.216 161.673 31.904 161.113 31.28C160.553 30.64 160.273 29.4 160.273 27.56V20.408H158.689V19.16L160.345 18.824L160.873 15.56H162.265V18.848ZM170.888 32H168.896V18.032H170.888V32ZM171.128 15.968H168.68V13.928H171.128V15.968ZM175.11 25.04C175.11 22.64 175.502 20.824 176.286 19.592C177.086 18.344 178.43 17.72 180.318 17.72C182.222 17.72 183.574 18.344 184.374 19.592C185.174 20.824 185.574 22.632 185.574 25.016C185.574 27.4 185.174 29.216 184.374 30.464C183.574 31.696 182.222 32.312 180.318 32.312C178.43 32.312 177.086 31.696 176.286 30.464C175.502 29.232 175.11 27.424 175.11 25.04ZM182.262 19.856C181.846 19.584 181.206 19.448 180.342 19.448C179.478 19.448 178.83 19.584 178.398 19.856C177.982 20.128 177.662 20.664 177.438 21.464C177.23 22.248 177.126 23.432 177.126 25.016C177.126 26.6 177.23 27.792 177.438 28.592C177.646 29.392 177.966 29.928 178.398 30.2C178.83 30.472 179.478 30.608 180.342 30.608C181.206 30.608 181.846 30.472 182.262 30.2C182.694 29.928 183.014 29.392 183.222 28.592C183.43 27.792 183.534 26.6 183.534 25.016C183.534 23.432 183.43 22.248 183.222 21.464C183.014 20.664 182.694 20.128 182.262 19.856ZM191.674 32H189.682V18.032H191.026L191.242 19.4H191.362C193.282 18.28 194.946 17.72 196.354 17.72C197.618 17.72 198.49 18.208 198.97 19.184C199.37 20 199.57 21.176 199.57 22.712V32H197.554V23.408C197.554 21.584 197.434 20.496 197.194 20.144C196.97 19.792 196.538 19.616 195.898 19.616C194.682 19.616 193.274 20.04 191.674 20.888V32Z" fill="black"/>
</svg>
