<svg width="507" height="156" viewBox="0 0 507 156" fill="none" xmlns="http://www.w3.org/2000/svg">
<rect width="507" height="156" rx="10" fill="#EEDEE5"/>
<rect width="500" height="150" rx="10" fill="#FFE3F0"/>
<path d="M23.5 32.25C22.4167 32.25 21.4167 32.0917 20.5 31.775C19.5833 31.4583 18.85 31.0583 18.3 30.575C17.75 30.075 17.475 29.55 17.475 29C17.475 28.7167 17.55 28.4167 17.7 28.1C17.85 27.7667 18.05 27.4833 18.3 27.25C18.5667 27.0167 18.8583 26.9 19.175 26.9C19.475 26.9 19.75 26.9917 20 27.175C20.2667 27.3583 20.55 27.575 20.85 27.825C21.1667 28.075 21.525 28.2917 21.925 28.475C22.3417 28.6583 22.8417 28.75 23.425 28.75C23.8083 28.75 24.1833 28.7 24.55 28.6C24.9333 28.4833 25.2417 28.3083 25.475 28.075C25.725 27.825 25.85 27.5 25.85 27.1C25.85 26.6 25.6583 26.1833 25.275 25.85C24.8917 25.5 24.4 25.1833 23.8 24.9C23.2 24.6 22.5583 24.2917 21.875 23.975C21.2083 23.6583 20.575 23.2833 19.975 22.85C19.375 22.4 18.8833 21.85 18.5 21.2C18.1167 20.5333 17.925 19.7167 17.925 18.75C17.925 17.8167 18.1083 17.025 18.475 16.375C18.8417 15.7083 19.3333 15.175 19.95 14.775C20.5667 14.3583 21.25 14.0583 22 13.875C22.7667 13.675 23.5417 13.575 24.325 13.575C24.6583 13.575 25.1 13.6 25.65 13.65C26.2 13.7 26.75 13.8 27.3 13.95C27.8667 14.1 28.3417 14.325 28.725 14.625C29.1083 14.9083 29.3 15.2917 29.3 15.775C29.3 15.9917 29.2417 16.2667 29.125 16.6C29.025 16.9167 28.8583 17.2 28.625 17.45C28.4083 17.7 28.1167 17.825 27.75 17.825C27.45 17.825 27.1667 17.75 26.9 17.6C26.65 17.4333 26.325 17.275 25.925 17.125C25.5417 16.9583 25.0083 16.875 24.325 16.875C23.4417 16.875 22.8 17.0333 22.4 17.35C22.0167 17.65 21.825 17.9917 21.825 18.375C21.825 18.7917 22.0167 19.1417 22.4 19.425C22.7833 19.7083 23.275 19.9833 23.875 20.25C24.475 20.5 25.1083 20.7917 25.775 21.125C26.4583 21.4417 27.1 21.8333 27.7 22.3C28.3 22.7667 28.7917 23.3583 29.175 24.075C29.5583 24.775 29.75 25.65 29.75 26.7C29.75 27.9 29.475 28.9167 28.925 29.75C28.3917 30.5667 27.6583 31.1917 26.725 31.625C25.7917 32.0417 24.7167 32.25 23.5 32.25ZM33.3801 37.425C32.8301 37.425 32.3717 37.3 32.0051 37.05C31.6551 36.8 31.4801 36.525 31.4801 36.225V21.275C31.4801 20.925 31.6551 20.6417 32.0051 20.425C32.3717 20.2083 32.8134 20.1 33.3301 20.1C33.8467 20.1 34.2717 20.2083 34.6051 20.425C34.9384 20.6417 35.1051 20.925 35.1051 21.275V21.85C35.3884 21.3667 35.8217 20.9333 36.4051 20.55C37.0051 20.15 37.6967 19.95 38.4801 19.95C39.3301 19.95 40.0884 20.1917 40.7551 20.675C41.4384 21.1417 41.9717 21.775 42.3551 22.575C42.7551 23.3583 42.9551 24.2333 42.9551 25.2V26.95C42.9551 27.8667 42.7551 28.7333 42.3551 29.55C41.9551 30.35 41.4217 31 40.7551 31.5C40.1051 32 39.3884 32.25 38.6051 32.25C37.8717 32.25 37.2051 32.05 36.6051 31.65C36.0051 31.2333 35.5884 30.7667 35.3551 30.25V36.225C35.3551 36.525 35.1634 36.8 34.7801 37.05C34.3967 37.3 33.9301 37.425 33.3801 37.425ZM37.2301 28.875C37.7134 28.875 38.1384 28.675 38.5051 28.275C38.8884 27.875 39.0801 27.4333 39.0801 26.95V25.2C39.0801 24.7167 38.8967 24.2833 38.5301 23.9C38.1634 23.5167 37.7134 23.325 37.1801 23.325C36.7301 23.325 36.3134 23.4917 35.9301 23.825C35.5467 24.1583 35.3551 24.6167 35.3551 25.2V27.275C35.3551 27.4083 35.4301 27.6083 35.5801 27.875C35.7467 28.125 35.9717 28.3583 36.2551 28.575C36.5384 28.775 36.8634 28.875 37.2301 28.875ZM50.0102 32.25C48.9935 32.25 48.0518 32.0083 47.1852 31.525C46.3352 31.025 45.6435 30.375 45.1102 29.575C44.5935 28.7583 44.3352 27.8833 44.3352 26.95V25.2C44.3352 24.2667 44.5852 23.4 45.0852 22.6C45.6018 21.8 46.2935 21.1583 47.1602 20.675C48.0268 20.1917 48.9768 19.95 50.0102 19.95C51.0268 19.95 51.9685 20.1917 52.8352 20.675C53.7018 21.1417 54.3935 21.775 54.9102 22.575C55.4435 23.3583 55.7102 24.2333 55.7102 25.2V26.95C55.7102 27.8667 55.4435 28.7333 54.9102 29.55C54.3935 30.35 53.7018 31 52.8352 31.5C51.9685 32 51.0268 32.25 50.0102 32.25ZM50.0102 28.875C50.5102 28.875 50.9352 28.6833 51.2852 28.3C51.6518 27.9 51.8352 27.45 51.8352 26.95V25.2C51.8352 24.7167 51.6518 24.2833 51.2852 23.9C50.9352 23.5167 50.5102 23.325 50.0102 23.325C49.5102 23.325 49.0852 23.5167 48.7352 23.9C48.3852 24.2833 48.2102 24.7167 48.2102 25.2V26.95C48.2102 27.45 48.3852 27.9 48.7352 28.3C49.0852 28.6833 49.5102 28.875 50.0102 28.875ZM59.4049 32C58.8549 32 58.3965 31.875 58.0299 31.625C57.6799 31.375 57.5049 31.1 57.5049 30.8V21.275C57.5049 20.925 57.6799 20.6417 58.0299 20.425C58.3965 20.2083 58.8549 20.1 59.4049 20.1C59.8882 20.1 60.2965 20.2083 60.6299 20.425C60.9632 20.6417 61.1299 20.925 61.1299 21.275V22.2C61.2965 21.8333 61.5299 21.4833 61.8299 21.15C62.1465 20.8 62.4965 20.5167 62.8799 20.3C63.2799 20.0667 63.6882 19.95 64.1049 19.95H64.8299C65.1965 19.95 65.5132 20.1167 65.7799 20.45C66.0632 20.7833 66.2049 21.175 66.2049 21.625C66.2049 22.0917 66.0632 22.4917 65.7799 22.825C65.5132 23.1583 65.1965 23.325 64.8299 23.325H64.1049C63.6549 23.325 63.2215 23.4833 62.8049 23.8C62.3882 24.1 62.0465 24.525 61.7799 25.075C61.5132 25.625 61.3799 26.2833 61.3799 27.05V30.8C61.3799 31.1 61.1882 31.375 60.8049 31.625C60.4215 31.875 59.9549 32 59.4049 32ZM72.1938 32C70.6104 32 69.3938 31.6667 68.5438 31C67.7104 30.3167 67.2938 29.2417 67.2938 27.775V16.1C67.2938 15.75 67.5021 15.4667 67.9188 15.25C68.3354 15.0333 68.7688 14.925 69.2188 14.925C69.7021 14.925 70.1438 15.0333 70.5438 15.25C70.9604 15.4667 71.1688 15.75 71.1688 16.1V20.1H73.9938C74.3104 20.1 74.5438 20.25 74.6938 20.55C74.8604 20.8333 74.9438 21.1417 74.9438 21.475C74.9438 21.825 74.8604 22.1417 74.6938 22.425C74.5438 22.7083 74.3104 22.85 73.9938 22.85H71.1688V27.775C71.1688 28.1417 71.2438 28.4 71.3938 28.55C71.5438 28.6833 71.8104 28.75 72.1938 28.75H73.2688C73.8354 28.75 74.2521 28.925 74.5188 29.275C74.7854 29.6083 74.9188 29.975 74.9188 30.375C74.9188 30.7917 74.7854 31.1667 74.5188 31.5C74.2521 31.8333 73.8354 32 73.2688 32H72.1938Z" fill="#32537A"/>
<path d="M23.225 72.15C21.8583 72.15 20.75 71.9167 19.9 71.45C19.0667 70.9667 18.4583 70.375 18.075 69.675C17.6917 68.975 17.5 68.2833 17.5 67.6C17.5 67.1 17.6083 66.7667 17.825 66.6C18.0583 66.4167 18.4583 66.325 19.025 66.325C19.6917 66.325 20.1333 66.4167 20.35 66.6C20.5833 66.7833 20.7 67.0667 20.7 67.45C20.7 68.0333 20.9333 68.4917 21.4 68.825C21.8667 69.1417 22.5 69.3 23.3 69.3C24.2333 69.3 24.9083 69.0917 25.325 68.675C25.7583 68.2417 25.975 67.55 25.975 66.6V66.125C25.975 65.2083 25.7167 64.5833 25.2 64.25C24.7 63.9167 24.05 63.75 23.25 63.75C22.8667 63.75 22.6 63.6167 22.45 63.35C22.3167 63.0833 22.25 62.7917 22.25 62.475C22.25 62.1583 22.3167 61.8667 22.45 61.6C22.6 61.3333 22.8583 61.2 23.225 61.2C23.6417 61.2 24.025 61.15 24.375 61.05C24.725 60.9333 25 60.7 25.2 60.35C25.4167 60 25.525 59.4667 25.525 58.75C25.525 57.9167 25.325 57.3417 24.925 57.025C24.525 56.7083 23.9917 56.55 23.325 56.55C22.5083 56.55 21.9333 56.7083 21.6 57.025C21.2667 57.325 21.1 57.725 21.1 58.225C21.1 58.5917 20.9917 58.8917 20.775 59.125C20.575 59.3583 20.175 59.475 19.575 59.475C18.8417 59.475 18.375 59.375 18.175 59.175C17.975 58.975 17.875 58.6083 17.875 58.075C17.875 57.625 17.9667 57.15 18.15 56.65C18.3333 56.15 18.625 55.6833 19.025 55.25C19.4417 54.8 20 54.4333 20.7 54.15C21.4167 53.8667 22.3 53.725 23.35 53.725C24.3667 53.725 25.2667 53.8667 26.05 54.15C26.85 54.4333 27.4833 54.9083 27.95 55.575C28.4167 56.225 28.65 57.1 28.65 58.2C28.65 59.1833 28.475 60.05 28.125 60.8C27.775 61.55 27.2917 62.0667 26.675 62.35C27.4083 62.6333 28.0167 63.075 28.5 63.675C28.9833 64.275 29.225 65.0917 29.225 66.125V66.6C29.225 67.95 28.95 69.0333 28.4 69.85C27.8667 70.65 27.1417 71.2333 26.225 71.6C25.325 71.9667 24.325 72.15 23.225 72.15ZM32.1121 72C31.8288 72 31.5204 71.9083 31.1871 71.725C30.8538 71.525 30.6871 71.2667 30.6871 70.95V68.525C30.6871 67.875 30.8788 67.2667 31.2621 66.7C31.6621 66.1167 32.1621 65.5667 32.7621 65.05C33.3788 64.5333 34.0288 64.0333 34.7121 63.55C35.3954 63.05 36.0371 62.5583 36.6371 62.075C37.2538 61.5917 37.7538 61.0917 38.1371 60.575C38.5371 60.0417 38.7371 59.4833 38.7371 58.9C38.7371 58.55 38.6538 58.2083 38.4871 57.875C38.3371 57.525 38.0871 57.2417 37.7371 57.025C37.4038 56.7917 36.9621 56.675 36.4121 56.675C35.8121 56.675 35.2871 56.85 34.8371 57.2C34.4038 57.5333 34.1871 58.0917 34.1871 58.875C34.1871 59.175 34.0371 59.45 33.7371 59.7C33.4371 59.95 33.0204 60.075 32.4871 60.075C32.0538 60.075 31.7038 59.9583 31.4371 59.725C31.1704 59.475 31.0371 59.0083 31.0371 58.325C31.0371 57.375 31.2871 56.5583 31.7871 55.875C32.3038 55.1917 32.9704 54.6667 33.7871 54.3C34.6038 53.9167 35.4788 53.725 36.4121 53.725C37.3621 53.725 38.2621 53.9333 39.1121 54.35C39.9621 54.75 40.6538 55.325 41.1871 56.075C41.7204 56.825 41.9871 57.7333 41.9871 58.8C41.9871 59.7 41.7954 60.5083 41.4121 61.225C41.0288 61.9417 40.5371 62.5917 39.9371 63.175C39.3371 63.7417 38.6954 64.2667 38.0121 64.75C37.3454 65.2167 36.7121 65.6583 36.1121 66.075C35.5121 66.4917 35.0204 66.9 34.6371 67.3C34.2538 67.7 34.0621 68.1083 34.0621 68.525V69.15H41.0121C41.2954 69.15 41.5371 69.2917 41.7371 69.575C41.9371 69.8417 42.0371 70.1667 42.0371 70.55C42.0371 70.9333 41.9371 71.275 41.7371 71.575C41.5371 71.8583 41.2954 72 41.0121 72H32.1121ZM49.6342 72.15C48.5342 72.15 47.5425 71.9667 46.6592 71.6C45.7758 71.2167 45.0758 70.6083 44.5592 69.775C44.0425 68.925 43.7842 67.8 43.7842 66.4V59.45C43.7842 58.0667 44.0425 56.9583 44.5592 56.125C45.0758 55.275 45.7758 54.6667 46.6592 54.3C47.5425 53.9167 48.5342 53.725 49.6342 53.725C50.7342 53.725 51.7258 53.9167 52.6092 54.3C53.4925 54.6667 54.1925 55.275 54.7092 56.125C55.2425 56.9583 55.5092 58.0667 55.5092 59.45V66.4C55.5092 67.8 55.2425 68.925 54.7092 69.775C54.1925 70.6083 53.4925 71.2167 52.6092 71.6C51.7258 71.9667 50.7342 72.15 49.6342 72.15ZM49.6342 69.3C50.4508 69.3 51.0925 69.0667 51.5592 68.6C52.0258 68.1333 52.2592 67.4 52.2592 66.4V59.45C52.2592 58.4667 52.0258 57.7417 51.5592 57.275C51.0925 56.8083 50.4508 56.575 49.6342 56.575C48.8175 56.575 48.1758 56.8083 47.7092 57.275C47.2592 57.7417 47.0342 58.4667 47.0342 59.45V66.4C47.0342 67.4 47.2592 68.1333 47.7092 68.6C48.1758 69.0667 48.8175 69.3 49.6342 69.3ZM49.6592 64.125C49.2925 64.125 49.0008 64.0167 48.7842 63.8C48.5842 63.5667 48.4842 63.2833 48.4842 62.95C48.4842 62.6 48.5842 62.325 48.7842 62.125C49.0008 61.9083 49.2925 61.8 49.6592 61.8C50.0092 61.8 50.2842 61.9083 50.4842 62.125C50.7008 62.325 50.8092 62.6 50.8092 62.95C50.8092 63.2833 50.7008 63.5667 50.4842 63.8C50.2842 64.0167 50.0092 64.125 49.6592 64.125ZM67.0039 72.275C66.7372 72.275 66.4789 72.2333 66.2289 72.15C65.9956 72.0667 65.8372 71.9083 65.7539 71.675L61.8789 61.8C61.8122 61.6 61.7789 61.4417 61.7789 61.325C61.7789 61.0583 61.8956 60.8333 62.1289 60.65C62.3622 60.45 62.6372 60.2917 62.9539 60.175C63.2872 60.0583 63.5872 60 63.8539 60C64.0706 60 64.2622 60.0417 64.4289 60.125C64.6122 60.2083 64.7372 60.3417 64.8039 60.525L67.3039 67.625L69.1789 61.45C69.2622 61.1667 69.4039 60.9917 69.6039 60.925C69.8039 60.8417 70.0289 60.8 70.2789 60.8C70.5122 60.8 70.7289 60.8417 70.9289 60.925C71.1456 60.9917 71.2956 61.1667 71.3789 61.45L73.2289 67.65L75.7539 60.525C75.8706 60.175 76.1706 60 76.6539 60C76.9206 60 77.2206 60.0583 77.5539 60.175C77.8872 60.2917 78.1706 60.45 78.4039 60.65C78.6372 60.85 78.7539 61.0833 78.7539 61.35C78.7539 61.5167 78.7206 61.6667 78.6539 61.8L74.7789 71.7C74.6956 71.9167 74.5372 72.0667 74.3039 72.15C74.0706 72.2333 73.8122 72.275 73.5289 72.275C73.2122 72.275 72.9289 72.225 72.6789 72.125C72.4289 72.025 72.2706 71.8833 72.2039 71.7L70.2789 66.25L68.3539 71.675C68.2872 71.875 68.1206 72.025 67.8539 72.125C67.6039 72.225 67.3206 72.275 67.0039 72.275ZM85.0652 72.225C84.0986 72.225 83.2069 71.9917 82.3902 71.525C81.5736 71.0417 80.9152 70.4083 80.4152 69.625C79.9152 68.8417 79.6652 68 79.6652 67.1V65.05C79.6652 64.15 79.9069 63.3167 80.3902 62.55C80.8902 61.7667 81.5486 61.1417 82.3652 60.675C83.1819 60.2083 84.0819 59.975 85.0652 59.975C86.0319 59.975 86.9236 60.2083 87.7402 60.675C88.5736 61.125 89.2402 61.7417 89.7402 62.525C90.2402 63.2917 90.4902 64.1333 90.4902 65.05V67.1C90.4902 67.9833 90.2402 68.8167 89.7402 69.6C89.2402 70.3833 88.5736 71.0167 87.7402 71.5C86.9236 71.9833 86.0319 72.225 85.0652 72.225ZM85.0652 69.4C85.6652 69.4 86.1819 69.1667 86.6152 68.7C87.0486 68.2167 87.2652 67.6833 87.2652 67.1V65.05C87.2652 64.4833 87.0486 63.9667 86.6152 63.5C86.1986 63.0333 85.6819 62.8 85.0652 62.8C84.4652 62.8 83.9486 63.0333 83.5152 63.5C83.0986 63.9667 82.8902 64.4833 82.8902 65.05V67.1C82.8902 67.6833 83.0986 68.2167 83.5152 68.7C83.9486 69.1667 84.4652 69.4 85.0652 69.4ZM94.117 72C93.667 72 93.292 71.8917 92.992 71.675C92.692 71.4583 92.542 71.2167 92.542 70.95V61.125C92.542 60.825 92.692 60.5833 92.992 60.4C93.292 60.2167 93.667 60.125 94.117 60.125C94.517 60.125 94.8587 60.2167 95.142 60.4C95.4253 60.5833 95.567 60.825 95.567 61.125V62.15C95.8337 61.6167 96.242 61.125 96.792 60.675C97.342 60.2083 97.9587 59.975 98.642 59.975H99.417C99.7337 59.975 100.009 60.1167 100.242 60.4C100.475 60.6667 100.592 60.9917 100.592 61.375C100.592 61.7583 100.475 62.0917 100.242 62.375C100.009 62.6583 99.7337 62.8 99.417 62.8H98.642C98.1587 62.8 97.692 62.95 97.242 63.25C96.8087 63.55 96.4503 63.9833 96.167 64.55C95.9003 65.1 95.767 65.75 95.767 66.5V70.95C95.767 71.2167 95.6087 71.4583 95.292 71.675C94.9753 71.8917 94.5837 72 94.117 72ZM105.598 72.225C104.815 72.225 104.09 71.9833 103.423 71.5C102.757 71.0167 102.223 70.3833 101.823 69.6C101.423 68.8167 101.223 67.9833 101.223 67.1V65.05C101.223 64.1333 101.423 63.2917 101.823 62.525C102.223 61.7417 102.757 61.125 103.423 60.675C104.09 60.2083 104.832 59.975 105.648 59.975C106.432 59.975 107.098 60.175 107.648 60.575C108.198 60.9583 108.607 61.3917 108.873 61.875V54.2C108.873 53.9 109.032 53.6583 109.348 53.475C109.665 53.2917 110.057 53.2 110.523 53.2C110.973 53.2 111.348 53.2917 111.648 53.475C111.948 53.6583 112.098 53.9 112.098 54.2V70.95C112.098 71.2167 111.948 71.4583 111.648 71.675C111.348 71.8917 110.973 72 110.523 72C110.123 72 109.782 71.8917 109.498 71.675C109.215 71.4583 109.073 71.2167 109.073 70.95V70.25C108.807 70.7667 108.357 71.225 107.723 71.625C107.09 72.025 106.382 72.225 105.598 72.225ZM106.623 69.4C107.04 69.4 107.415 69.2833 107.748 69.05C108.098 68.8 108.373 68.5333 108.573 68.25C108.773 67.95 108.873 67.7167 108.873 67.55V65.05C108.873 64.35 108.632 63.8 108.148 63.4C107.682 63 107.182 62.8 106.648 62.8C106.032 62.8 105.507 63.0333 105.073 63.5C104.657 63.9667 104.448 64.4833 104.448 65.05V67.1C104.448 67.6833 104.657 68.2167 105.073 68.7C105.507 69.1667 106.023 69.4 106.623 69.4ZM118.487 72.225C117.637 72.225 116.871 72.125 116.187 71.925C115.521 71.7083 114.987 71.4417 114.587 71.125C114.187 70.7917 113.987 70.4417 113.987 70.075C113.987 69.8083 114.079 69.5083 114.262 69.175C114.462 68.825 114.729 68.65 115.062 68.65C115.296 68.65 115.537 68.75 115.787 68.95C116.037 69.1333 116.362 69.3167 116.762 69.5C117.162 69.6833 117.712 69.775 118.412 69.775C119.162 69.775 119.654 69.6583 119.887 69.425C120.137 69.1917 120.262 68.95 120.262 68.7C120.262 68.3333 120.112 68.05 119.812 67.85C119.529 67.65 119.162 67.4833 118.712 67.35C118.262 67.2167 117.779 67.0833 117.262 66.95C116.762 66.8 116.287 66.6083 115.837 66.375C115.387 66.125 115.021 65.7917 114.737 65.375C114.454 64.9583 114.312 64.4 114.312 63.7C114.312 63.1 114.454 62.5167 114.737 61.95C115.021 61.3833 115.487 60.9167 116.137 60.55C116.787 60.1667 117.671 59.975 118.787 59.975C119.471 59.975 120.112 60.05 120.712 60.2C121.329 60.3333 121.829 60.525 122.212 60.775C122.596 61.025 122.787 61.3 122.787 61.6C122.787 61.75 122.737 61.95 122.637 62.2C122.554 62.4333 122.421 62.65 122.237 62.85C122.054 63.05 121.837 63.15 121.587 63.15C121.387 63.15 121.162 63.0917 120.912 62.975C120.662 62.8417 120.371 62.7167 120.037 62.6C119.704 62.4833 119.304 62.425 118.837 62.425C118.221 62.425 117.779 62.55 117.512 62.8C117.246 63.05 117.112 63.3 117.112 63.55C117.112 63.85 117.254 64.0833 117.537 64.25C117.821 64.4167 118.187 64.5583 118.637 64.675C119.104 64.7917 119.587 64.925 120.087 65.075C120.604 65.225 121.087 65.4333 121.537 65.7C121.987 65.95 122.354 66.3083 122.637 66.775C122.937 67.225 123.087 67.8167 123.087 68.55C123.087 69.6833 122.687 70.5833 121.887 71.25C121.104 71.9 119.971 72.225 118.487 72.225ZM125.812 74.5C125.579 74.5 125.337 74.425 125.087 74.275C124.854 74.125 124.737 73.9167 124.737 73.65C124.737 73.5333 124.762 73.4167 124.812 73.3L125.412 71.975C125.129 71.825 124.904 71.6167 124.737 71.35C124.57 71.0833 124.487 70.7833 124.487 70.45C124.487 69.9833 124.645 69.5833 124.962 69.25C125.295 68.9167 125.695 68.75 126.162 68.75C126.612 68.75 127.004 68.9167 127.337 69.25C127.687 69.5667 127.862 69.9583 127.862 70.425C127.862 70.525 127.837 70.6583 127.787 70.825C127.737 70.9917 127.612 71.3167 127.412 71.8C127.229 72.2833 126.92 73.0417 126.487 74.075C126.42 74.2417 126.32 74.35 126.187 74.4C126.054 74.4667 125.929 74.5 125.812 74.5ZM137.827 72.125C137.327 72.125 136.86 71.975 136.427 71.675C136.01 71.3583 135.802 70.9667 135.802 70.5C135.802 70.3 135.852 70.1083 135.952 69.925L142.477 58.225V56.575H137.252V58.6C137.252 58.9 137.077 59.15 136.727 59.35C136.394 59.55 136.019 59.65 135.602 59.65C135.152 59.65 134.769 59.55 134.452 59.35C134.152 59.15 134.002 58.9 134.002 58.6V54.75C134.002 54.5 134.144 54.2667 134.427 54.05C134.727 53.8333 135.06 53.725 135.427 53.725H144.302C144.619 53.725 144.935 53.8333 145.252 54.05C145.569 54.2667 145.727 54.5 145.727 54.75V57.6C145.727 57.8667 145.66 58.175 145.527 58.525C145.394 58.875 145.244 59.2 145.077 59.5L138.777 71.65C138.61 71.9667 138.294 72.125 137.827 72.125ZM152.679 72.15C151.579 72.15 150.579 71.9833 149.679 71.65C148.796 71.3 148.096 70.75 147.579 70C147.062 69.2333 146.804 68.2333 146.804 67V66.7C146.804 65.4167 147.079 64.3917 147.629 63.625C148.179 62.8583 148.896 62.3167 149.779 62C149.062 61.75 148.479 61.3083 148.029 60.675C147.596 60.0417 147.379 59.2 147.379 58.15C147.379 57.1 147.604 56.25 148.054 55.6C148.521 54.95 149.154 54.475 149.954 54.175C150.754 53.875 151.662 53.725 152.679 53.725C153.696 53.725 154.604 53.875 155.404 54.175C156.204 54.475 156.829 54.95 157.279 55.6C157.729 56.25 157.954 57.1 157.954 58.15C157.954 59.2 157.729 60.0417 157.279 60.675C156.846 61.3083 156.271 61.75 155.554 62C156.454 62.3167 157.171 62.8583 157.704 63.625C158.254 64.3917 158.529 65.4167 158.529 66.7V67C158.529 68.2333 158.271 69.2333 157.754 70C157.237 70.75 156.537 71.3 155.654 71.65C154.771 71.9833 153.779 72.15 152.679 72.15ZM152.679 69.5C153.512 69.5 154.154 69.2667 154.604 68.8C155.054 68.3167 155.279 67.5917 155.279 66.625V66.125C155.279 65.175 155.046 64.4833 154.579 64.05C154.129 63.6 153.496 63.375 152.679 63.375C151.862 63.375 151.221 63.6 150.754 64.05C150.287 64.4833 150.054 65.175 150.054 66.125V66.625C150.054 67.625 150.287 68.3583 150.754 68.825C151.237 69.275 151.879 69.5 152.679 69.5ZM152.679 60.725C153.362 60.725 153.887 60.5583 154.254 60.225C154.637 59.8917 154.829 59.3333 154.829 58.55C154.829 57.7833 154.637 57.2333 154.254 56.9C153.887 56.55 153.362 56.375 152.679 56.375C151.996 56.375 151.462 56.55 151.079 56.9C150.712 57.2333 150.529 57.7833 150.529 58.55C150.529 59.3333 150.712 59.8917 151.079 60.225C151.462 60.5583 151.996 60.725 152.679 60.725ZM169.464 72.225C168.614 72.225 167.847 72.125 167.164 71.925C166.497 71.7083 165.964 71.4417 165.564 71.125C165.164 70.7917 164.964 70.4417 164.964 70.075C164.964 69.8083 165.056 69.5083 165.239 69.175C165.439 68.825 165.706 68.65 166.039 68.65C166.272 68.65 166.514 68.75 166.764 68.95C167.014 69.1333 167.339 69.3167 167.739 69.5C168.139 69.6833 168.689 69.775 169.389 69.775C170.139 69.775 170.631 69.6583 170.864 69.425C171.114 69.1917 171.239 68.95 171.239 68.7C171.239 68.3333 171.089 68.05 170.789 67.85C170.506 67.65 170.139 67.4833 169.689 67.35C169.239 67.2167 168.756 67.0833 168.239 66.95C167.739 66.8 167.264 66.6083 166.814 66.375C166.364 66.125 165.997 65.7917 165.714 65.375C165.431 64.9583 165.289 64.4 165.289 63.7C165.289 63.1 165.431 62.5167 165.714 61.95C165.997 61.3833 166.464 60.9167 167.114 60.55C167.764 60.1667 168.647 59.975 169.764 59.975C170.447 59.975 171.089 60.05 171.689 60.2C172.306 60.3333 172.806 60.525 173.189 60.775C173.572 61.025 173.764 61.3 173.764 61.6C173.764 61.75 173.714 61.95 173.614 62.2C173.531 62.4333 173.397 62.65 173.214 62.85C173.031 63.05 172.814 63.15 172.564 63.15C172.364 63.15 172.139 63.0917 171.889 62.975C171.639 62.8417 171.347 62.7167 171.014 62.6C170.681 62.4833 170.281 62.425 169.814 62.425C169.197 62.425 168.756 62.55 168.489 62.8C168.222 63.05 168.089 63.3 168.089 63.55C168.089 63.85 168.231 64.0833 168.514 64.25C168.797 64.4167 169.164 64.5583 169.614 64.675C170.081 64.7917 170.564 64.925 171.064 65.075C171.581 65.225 172.064 65.4333 172.514 65.7C172.964 65.95 173.331 66.3083 173.614 66.775C173.914 67.225 174.064 67.8167 174.064 68.55C174.064 69.6833 173.664 70.5833 172.864 71.25C172.081 71.9 170.947 72.225 169.464 72.225ZM181.614 72.225C180.43 72.225 179.38 72.0167 178.464 71.6C177.564 71.1667 176.855 70.5667 176.339 69.8C175.822 69.0167 175.564 68.1167 175.564 67.1V64.975C175.564 64.075 175.805 63.25 176.289 62.5C176.789 61.7333 177.447 61.125 178.264 60.675C179.097 60.2083 180.022 59.975 181.039 59.975C181.955 59.975 182.805 60.175 183.589 60.575C184.372 60.975 185.005 61.525 185.489 62.225C185.972 62.925 186.214 63.7417 186.214 64.675C186.214 65.375 186.097 65.8833 185.864 66.2C185.63 66.5167 185.33 66.7167 184.964 66.8C184.597 66.8667 184.23 66.9 183.864 66.9H178.789V67.275C178.789 67.9917 179.055 68.575 179.589 69.025C180.139 69.4583 180.847 69.675 181.714 69.675C182.264 69.675 182.722 69.6 183.089 69.45C183.455 69.2833 183.764 69.125 184.014 68.975C184.28 68.8083 184.539 68.725 184.789 68.725C185.172 68.725 185.472 68.9 185.689 69.25C185.905 69.6 186.014 69.9 186.014 70.15C186.014 70.4333 185.83 70.7417 185.464 71.075C185.114 71.3917 184.605 71.6667 183.939 71.9C183.289 72.1167 182.514 72.225 181.614 72.225ZM178.789 65H182.439C182.705 65 182.897 64.9583 183.014 64.875C183.13 64.775 183.189 64.5917 183.189 64.325C183.189 63.7417 182.964 63.2667 182.514 62.9C182.08 62.5333 181.572 62.35 180.989 62.35C180.405 62.35 179.889 62.525 179.439 62.875C179.005 63.225 178.789 63.7 178.789 64.3V65ZM189.747 72C189.281 72 188.897 71.8917 188.597 71.675C188.297 71.4583 188.147 71.2167 188.147 70.95V61.125C188.147 60.825 188.297 60.5833 188.597 60.4C188.897 60.2167 189.281 60.125 189.747 60.125C190.131 60.125 190.464 60.2167 190.747 60.4C191.031 60.5833 191.172 60.825 191.172 61.125V61.875C191.422 61.3917 191.831 60.9583 192.397 60.575C192.981 60.175 193.689 59.975 194.522 59.975C195.289 59.975 195.997 60.2083 196.647 60.675C197.314 61.125 197.839 61.7417 198.222 62.525C198.622 63.2917 198.822 64.1333 198.822 65.05V70.95C198.822 71.3 198.656 71.5667 198.322 71.75C197.989 71.9167 197.614 72 197.197 72C196.831 72 196.472 71.9167 196.122 71.75C195.772 71.5667 195.597 71.3 195.597 70.95V65.05C195.597 64.4833 195.381 63.9667 194.947 63.5C194.531 63.0333 194.022 62.8 193.422 62.8C192.922 62.8 192.456 63 192.022 63.4C191.589 63.8 191.372 64.35 191.372 65.05V70.95C191.372 71.2167 191.206 71.4583 190.872 71.675C190.556 71.8917 190.181 72 189.747 72ZM205.808 72C204.308 72 203.158 71.6833 202.358 71.05C201.575 70.4 201.183 69.3583 201.183 67.925V55.825C201.183 55.525 201.358 55.2833 201.708 55.1C202.058 54.9167 202.417 54.825 202.783 54.825C203.183 54.825 203.55 54.9167 203.883 55.1C204.233 55.2833 204.408 55.525 204.408 55.825V60.125H207.358C207.625 60.125 207.825 60.25 207.958 60.5C208.108 60.7333 208.183 61 208.183 61.3C208.183 61.6 208.108 61.875 207.958 62.125C207.825 62.3583 207.625 62.475 207.358 62.475H204.408V67.925C204.408 68.425 204.508 68.775 204.708 68.975C204.925 69.175 205.292 69.275 205.808 69.275H206.783C207.25 69.275 207.592 69.4167 207.808 69.7C208.042 69.9833 208.158 70.2917 208.158 70.625C208.158 70.975 208.042 71.2917 207.808 71.575C207.592 71.8583 207.25 72 206.783 72H205.808ZM215.281 72.225C214.097 72.225 213.047 72.0167 212.131 71.6C211.231 71.1667 210.522 70.5667 210.006 69.8C209.489 69.0167 209.231 68.1167 209.231 67.1V64.975C209.231 64.075 209.472 63.25 209.956 62.5C210.456 61.7333 211.114 61.125 211.931 60.675C212.764 60.2083 213.689 59.975 214.706 59.975C215.622 59.975 216.472 60.175 217.256 60.575C218.039 60.975 218.672 61.525 219.156 62.225C219.639 62.925 219.881 63.7417 219.881 64.675C219.881 65.375 219.764 65.8833 219.531 66.2C219.297 66.5167 218.997 66.7167 218.631 66.8C218.264 66.8667 217.897 66.9 217.531 66.9H212.456V67.275C212.456 67.9917 212.722 68.575 213.256 69.025C213.806 69.4583 214.514 69.675 215.381 69.675C215.931 69.675 216.389 69.6 216.756 69.45C217.122 69.2833 217.431 69.125 217.681 68.975C217.947 68.8083 218.206 68.725 218.456 68.725C218.839 68.725 219.139 68.9 219.356 69.25C219.572 69.6 219.681 69.9 219.681 70.15C219.681 70.4333 219.497 70.7417 219.131 71.075C218.781 71.3917 218.272 71.6667 217.606 71.9C216.956 72.1167 216.181 72.225 215.281 72.225ZM212.456 65H216.106C216.372 65 216.564 64.9583 216.681 64.875C216.797 64.775 216.856 64.5917 216.856 64.325C216.856 63.7417 216.631 63.2667 216.181 62.9C215.747 62.5333 215.239 62.35 214.656 62.35C214.072 62.35 213.556 62.525 213.106 62.875C212.672 63.225 212.456 63.7 212.456 64.3V65ZM223.414 72C222.948 72 222.564 71.8917 222.264 71.675C221.964 71.4583 221.814 71.2167 221.814 70.95V61.125C221.814 60.825 221.964 60.5833 222.264 60.4C222.564 60.2167 222.948 60.125 223.414 60.125C223.798 60.125 224.131 60.2167 224.414 60.4C224.698 60.5833 224.839 60.825 224.839 61.125V61.875C225.089 61.3917 225.498 60.9583 226.064 60.575C226.648 60.175 227.356 59.975 228.189 59.975C228.956 59.975 229.664 60.2083 230.314 60.675C230.981 61.125 231.506 61.7417 231.889 62.525C232.289 63.2917 232.489 64.1333 232.489 65.05V70.95C232.489 71.3 232.323 71.5667 231.989 71.75C231.656 71.9167 231.281 72 230.864 72C230.498 72 230.139 71.9167 229.789 71.75C229.439 71.5667 229.264 71.3 229.264 70.95V65.05C229.264 64.4833 229.048 63.9667 228.614 63.5C228.198 63.0333 227.689 62.8 227.089 62.8C226.589 62.8 226.123 63 225.689 63.4C225.256 63.8 225.039 64.35 225.039 65.05V70.95C225.039 71.2167 224.873 71.4583 224.539 71.675C224.223 71.8917 223.848 72 223.414 72ZM239.925 72.225C238.659 72.225 237.625 72 236.825 71.55C236.025 71.1 235.434 70.4917 235.05 69.725C234.667 68.9417 234.475 68.0667 234.475 67.1V65.1C234.475 64.15 234.667 63.2917 235.05 62.525C235.434 61.7417 236.017 61.125 236.8 60.675C237.6 60.2083 238.625 59.975 239.875 59.975C240.659 59.975 241.35 60.075 241.95 60.275C242.567 60.4583 243.042 60.7 243.375 61C243.725 61.2833 243.9 61.5917 243.9 61.925C243.9 62.225 243.784 62.5667 243.55 62.95C243.317 63.3167 243.009 63.5 242.625 63.5C242.442 63.5 242.25 63.4417 242.05 63.325C241.867 63.2083 241.625 63.0917 241.325 62.975C241.025 62.8583 240.625 62.8 240.125 62.8C239.275 62.8 238.659 63.0083 238.275 63.425C237.892 63.825 237.7 64.3833 237.7 65.1V67.1C237.7 67.8167 237.892 68.3833 238.275 68.8C238.675 69.2 239.3 69.4 240.15 69.4C240.667 69.4 241.067 69.3417 241.35 69.225C241.634 69.0917 241.867 68.9667 242.05 68.85C242.25 68.7167 242.45 68.65 242.65 68.65C243.1 68.65 243.442 68.825 243.675 69.175C243.925 69.525 244.05 69.8583 244.05 70.175C244.05 70.5083 243.867 70.8333 243.5 71.15C243.15 71.4667 242.659 71.725 242.025 71.925C241.409 72.125 240.709 72.225 239.925 72.225ZM251.194 72.225C250.01 72.225 248.96 72.0167 248.044 71.6C247.144 71.1667 246.435 70.5667 245.919 69.8C245.402 69.0167 245.144 68.1167 245.144 67.1V64.975C245.144 64.075 245.385 63.25 245.869 62.5C246.369 61.7333 247.027 61.125 247.844 60.675C248.677 60.2083 249.602 59.975 250.619 59.975C251.535 59.975 252.385 60.175 253.169 60.575C253.952 60.975 254.585 61.525 255.069 62.225C255.552 62.925 255.794 63.7417 255.794 64.675C255.794 65.375 255.677 65.8833 255.444 66.2C255.21 66.5167 254.91 66.7167 254.544 66.8C254.177 66.8667 253.81 66.9 253.444 66.9H248.369V67.275C248.369 67.9917 248.635 68.575 249.169 69.025C249.719 69.4583 250.427 69.675 251.294 69.675C251.844 69.675 252.302 69.6 252.669 69.45C253.035 69.2833 253.344 69.125 253.594 68.975C253.86 68.8083 254.119 68.725 254.369 68.725C254.752 68.725 255.052 68.9 255.269 69.25C255.485 69.6 255.594 69.9 255.594 70.15C255.594 70.4333 255.41 70.7417 255.044 71.075C254.694 71.3917 254.185 71.6667 253.519 71.9C252.869 72.1167 252.094 72.225 251.194 72.225ZM248.369 65H252.019C252.285 65 252.477 64.9583 252.594 64.875C252.71 64.775 252.769 64.5917 252.769 64.325C252.769 63.7417 252.544 63.2667 252.094 62.9C251.66 62.5333 251.152 62.35 250.569 62.35C249.985 62.35 249.469 62.525 249.019 62.875C248.585 63.225 248.369 63.7 248.369 64.3V65ZM261.603 72.225C260.753 72.225 259.986 72.125 259.303 71.925C258.636 71.7083 258.103 71.4417 257.703 71.125C257.303 70.7917 257.103 70.4417 257.103 70.075C257.103 69.8083 257.194 69.5083 257.378 69.175C257.578 68.825 257.844 68.65 258.178 68.65C258.411 68.65 258.653 68.75 258.903 68.95C259.153 69.1333 259.478 69.3167 259.878 69.5C260.278 69.6833 260.828 69.775 261.528 69.775C262.278 69.775 262.769 69.6583 263.003 69.425C263.253 69.1917 263.378 68.95 263.378 68.7C263.378 68.3333 263.228 68.05 262.928 67.85C262.644 67.65 262.278 67.4833 261.828 67.35C261.378 67.2167 260.894 67.0833 260.378 66.95C259.878 66.8 259.403 66.6083 258.953 66.375C258.503 66.125 258.136 65.7917 257.853 65.375C257.569 64.9583 257.428 64.4 257.428 63.7C257.428 63.1 257.569 62.5167 257.853 61.95C258.136 61.3833 258.603 60.9167 259.253 60.55C259.903 60.1667 260.786 59.975 261.903 59.975C262.586 59.975 263.228 60.05 263.828 60.2C264.444 60.3333 264.944 60.525 265.328 60.775C265.711 61.025 265.903 61.3 265.903 61.6C265.903 61.75 265.853 61.95 265.753 62.2C265.669 62.4333 265.536 62.65 265.353 62.85C265.169 63.05 264.953 63.15 264.703 63.15C264.503 63.15 264.278 63.0917 264.028 62.975C263.778 62.8417 263.486 62.7167 263.153 62.6C262.819 62.4833 262.419 62.425 261.953 62.425C261.336 62.425 260.894 62.55 260.628 62.8C260.361 63.05 260.228 63.3 260.228 63.55C260.228 63.85 260.369 64.0833 260.653 64.25C260.936 64.4167 261.303 64.5583 261.753 64.675C262.219 64.7917 262.703 64.925 263.203 65.075C263.719 65.225 264.203 65.4333 264.653 65.7C265.103 65.95 265.469 66.3083 265.753 66.775C266.053 67.225 266.203 67.8167 266.203 68.55C266.203 69.6833 265.803 70.5833 265.003 71.25C264.219 71.9 263.086 72.225 261.603 72.225Z" fill="#32537A" fill-opacity="0.6"/>
<path d="M17 97C17 93.6863 19.6863 91 23 91H129C132.314 91 135 93.6863 135 97V131C135 134.314 132.314 137 129 137H23C19.6863 137 17 134.314 17 131V97Z" fill="#E3E2E2"/>
<rect x="20" y="94" width="112" height="38" rx="5" fill="#F4F4F4"/>
<path d="M57.12 121.216C56.064 121.216 55.12 121.064 54.288 120.76C53.456 120.456 52.792 120.08 52.296 119.632C51.816 119.168 51.576 118.704 51.576 118.24C51.576 118.016 51.632 117.776 51.744 117.52C51.872 117.248 52.04 117.024 52.248 116.848C52.456 116.656 52.688 116.56 52.944 116.56C53.184 116.56 53.416 116.656 53.64 116.848C53.88 117.024 54.144 117.24 54.432 117.496C54.72 117.736 55.072 117.952 55.488 118.144C55.904 118.32 56.416 118.408 57.024 118.408C57.744 118.408 58.368 118.24 58.896 117.904C59.44 117.568 59.712 117.04 59.712 116.32C59.712 115.712 59.528 115.224 59.16 114.856C58.792 114.472 58.312 114.144 57.72 113.872C57.144 113.584 56.528 113.296 55.872 113.008C55.216 112.72 54.592 112.384 54 112C53.408 111.6 52.928 111.096 52.56 110.488C52.192 109.864 52.008 109.08 52.008 108.136C52.008 107.24 52.176 106.488 52.512 105.88C52.864 105.256 53.32 104.76 53.88 104.392C54.456 104.024 55.088 103.76 55.776 103.6C56.464 103.424 57.152 103.336 57.84 103.336C58.192 103.336 58.624 103.368 59.136 103.432C59.648 103.48 60.152 103.576 60.648 103.72C61.16 103.848 61.576 104.04 61.896 104.296C62.232 104.552 62.4 104.872 62.4 105.256C62.4 105.448 62.352 105.68 62.256 105.952C62.176 106.208 62.04 106.432 61.848 106.624C61.672 106.816 61.44 106.912 61.152 106.912C60.896 106.912 60.64 106.84 60.384 106.696C60.144 106.536 59.824 106.384 59.424 106.24C59.04 106.08 58.512 106 57.84 106C56.976 106 56.304 106.168 55.824 106.504C55.36 106.824 55.128 107.272 55.128 107.848C55.128 108.344 55.312 108.752 55.68 109.072C56.048 109.376 56.528 109.656 57.12 109.912C57.712 110.152 58.336 110.416 58.992 110.704C59.648 110.992 60.264 111.352 60.84 111.784C61.432 112.216 61.912 112.768 62.28 113.44C62.648 114.112 62.832 114.968 62.832 116.008C62.832 117.144 62.584 118.104 62.088 118.888C61.608 119.656 60.936 120.24 60.072 120.64C59.208 121.024 58.224 121.216 57.12 121.216ZM69.1311 121C67.6911 121 66.5871 120.696 65.8191 120.088C65.0671 119.464 64.6911 118.464 64.6911 117.088V105.472C64.6911 105.184 64.8591 104.952 65.1951 104.776C65.5311 104.6 65.8751 104.512 66.2271 104.512C66.6111 104.512 66.9631 104.6 67.2831 104.776C67.6191 104.952 67.7871 105.184 67.7871 105.472V109.6H70.6191C70.8751 109.6 71.0671 109.72 71.1951 109.96C71.3391 110.184 71.4111 110.44 71.4111 110.728C71.4111 111.016 71.3391 111.28 71.1951 111.52C71.0671 111.744 70.8751 111.856 70.6191 111.856H67.7871V117.088C67.7871 117.568 67.8831 117.904 68.0751 118.096C68.2831 118.288 68.6351 118.384 69.1311 118.384H70.0671C70.5151 118.384 70.8431 118.52 71.0511 118.792C71.2751 119.064 71.3871 119.36 71.3871 119.68C71.3871 120.016 71.2751 120.32 71.0511 120.592C70.8431 120.864 70.5151 121 70.0671 121H69.1311ZM75.4371 121.216C74.5891 121.216 73.8531 120.96 73.2291 120.448C72.6211 119.92 72.3171 119.112 72.3171 118.024C72.3171 117.112 72.5491 116.4 73.0131 115.888C73.4931 115.376 74.1491 115.016 74.9811 114.808C75.8291 114.6 76.8051 114.496 77.9091 114.496H78.8931V114.184C78.8931 113.832 78.8211 113.488 78.6771 113.152C78.5491 112.816 78.3331 112.536 78.0291 112.312C77.7251 112.088 77.3091 111.976 76.7811 111.976C76.1731 111.976 75.7011 112.04 75.3651 112.168C75.0451 112.28 74.7891 112.4 74.5971 112.528C74.4211 112.656 74.2371 112.72 74.0451 112.72C73.7091 112.72 73.4451 112.552 73.2531 112.216C73.0771 111.88 72.9891 111.536 72.9891 111.184C72.9891 110.848 73.1891 110.552 73.5891 110.296C73.9891 110.04 74.4851 109.84 75.0771 109.696C75.6851 109.536 76.2691 109.456 76.8291 109.456C78.0771 109.456 79.0771 109.68 79.8291 110.128C80.5811 110.576 81.1251 111.16 81.4611 111.88C81.8131 112.584 81.9891 113.336 81.9891 114.136V119.992C81.9891 120.28 81.8451 120.52 81.5571 120.712C81.2691 120.904 80.9091 121 80.4771 121C80.0771 121 79.7411 120.904 79.4691 120.712C79.2131 120.52 79.0851 120.28 79.0851 119.992V119.32C78.6531 119.816 78.1411 120.256 77.5491 120.64C76.9731 121.024 76.2691 121.216 75.4371 121.216ZM76.6851 118.912C77.0211 118.912 77.3571 118.808 77.6931 118.6C78.0291 118.376 78.3091 118.088 78.5331 117.736C78.7731 117.384 78.8931 117.008 78.8931 116.608V116.104H78.5331C77.9891 116.104 77.4771 116.136 76.9971 116.2C76.5331 116.264 76.1491 116.408 75.8451 116.632C75.5571 116.84 75.4131 117.168 75.4131 117.616C75.4131 118.064 75.5331 118.392 75.7731 118.6C76.0131 118.808 76.3171 118.912 76.6851 118.912ZM85.7979 121C85.3659 121 85.0059 120.896 84.7179 120.688C84.4299 120.48 84.2859 120.248 84.2859 119.992V110.56C84.2859 110.272 84.4299 110.04 84.7179 109.864C85.0059 109.688 85.3659 109.6 85.7979 109.6C86.1819 109.6 86.5099 109.688 86.7819 109.864C87.0539 110.04 87.1899 110.272 87.1899 110.56V111.544C87.4459 111.032 87.8379 110.56 88.3659 110.128C88.8939 109.68 89.4859 109.456 90.1419 109.456H90.8859C91.1899 109.456 91.4539 109.592 91.6779 109.864C91.9019 110.12 92.0139 110.432 92.0139 110.8C92.0139 111.168 91.9019 111.488 91.6779 111.76C91.4539 112.032 91.1899 112.168 90.8859 112.168H90.1419C89.6779 112.168 89.2299 112.312 88.7979 112.6C88.3819 112.888 88.0379 113.304 87.7659 113.848C87.5099 114.376 87.3819 115 87.3819 115.72V119.992C87.3819 120.248 87.2299 120.48 86.9259 120.688C86.6219 120.896 86.2459 121 85.7979 121ZM97.6779 121C96.2379 121 95.1339 120.696 94.3659 120.088C93.6139 119.464 93.2379 118.464 93.2379 117.088V105.472C93.2379 105.184 93.4059 104.952 93.7419 104.776C94.0779 104.6 94.4219 104.512 94.7739 104.512C95.1579 104.512 95.5099 104.6 95.8299 104.776C96.1659 104.952 96.3339 105.184 96.3339 105.472V109.6H99.1659C99.4219 109.6 99.6139 109.72 99.7419 109.96C99.8859 110.184 99.9579 110.44 99.9579 110.728C99.9579 111.016 99.8859 111.28 99.7419 111.52C99.6139 111.744 99.4219 111.856 99.1659 111.856H96.3339V117.088C96.3339 117.568 96.4299 117.904 96.6219 118.096C96.8299 118.288 97.1819 118.384 97.6779 118.384H98.6139C99.0619 118.384 99.3899 118.52 99.5979 118.792C99.8219 119.064 99.9339 119.36 99.9339 119.68C99.9339 120.016 99.8219 120.32 99.5979 120.592C99.3899 120.864 99.0619 121 98.6139 121H97.6779Z" fill="#32537A"/>
<circle cx="338" cy="66" r="5" fill="#F3FF00"/>
<circle cx="430.5" cy="27.5" r="7.5" fill="#F5FF28"/>
<rect x="399.484" y="27" width="13" height="13.2546" transform="rotate(45.6895 399.484 27)" fill="#62F8FF" fill-opacity="0.78"/>
<rect x="360.399" y="18" width="13.2174" height="13.1685" transform="rotate(52.1549 360.399 18)" fill="#FFBD6D"/>
<path d="M441.009 46L441.009 54" stroke="white" stroke-width="2" stroke-linecap="round" stroke-linejoin="round"/>
<path d="M437 50L445.009 49.9125" stroke="white" stroke-width="2" stroke-linecap="round" stroke-linejoin="round"/>
<path d="M337.009 41L337.009 49" stroke="white" stroke-width="2" stroke-linecap="round" stroke-linejoin="round"/>
<path d="M333 45L341.009 44.9125" stroke="white" stroke-width="2" stroke-linecap="round" stroke-linejoin="round"/>
<g opacity="0.5">
<g clip-path="url(#clip0)">
<path d="M408.85 50.1773H372.718H368.863C368.863 50.1773 368.863 87.8041 384.516 96.5129C386.361 97.5392 387.482 99.5085 387.482 101.62H390.231H395.519C395.519 99.5085 396.64 97.5394 398.485 96.5129C400.181 95.5692 401.693 94.2856 403.042 92.7474C410.972 83.7019 413.235 65.8424 413.88 56.3873C414.138 52.6129 414.138 50.177 414.138 50.177H408.85V50.1773Z" fill="#FECE00"/>
<path d="M353.176 64.0885C353.344 49.7414 369.12 56.3873 369.12 56.3873C369.218 57.8341 369.355 59.478 369.544 61.2566C365.394 59.7622 356.529 57.5618 357.774 66.6222C359.037 75.8172 363.047 82.1741 368.386 85.6022C371.359 87.5111 374.644 87.7811 376.541 87.743C377.544 89.5925 378.677 91.2856 379.958 92.7474V92.7476C379.958 92.7476 373.25 93.9977 366.566 89.9758C360.342 86.2304 353.011 78.1892 353.176 64.0885Z" fill="#EEBF00"/>
<path d="M395.519 107.003H387.482V114.13H395.519V107.003Z" fill="#FECE00"/>
<path d="M395.521 107.003H387.349V109.797H395.521V107.003Z" fill="#DDB201"/>
<path d="M408.132 119.27H374.87V126.823H408.132V119.27Z" fill="#3E3D43"/>
<path d="M408.132 123.914H374.87V126.822H408.132V123.914Z" fill="#444444"/>
<path d="M401.869 114.13H381.134V119.268H401.869V114.13Z" fill="#77767E"/>
<path d="M401.869 116.699H381.134V119.268H401.869V116.699Z" fill="#3E3D43"/>
<path d="M395.653 107.003H387.348C385.862 107.003 384.656 105.798 384.656 104.312C384.656 102.825 385.862 101.62 387.348 101.62H395.653C397.139 101.62 398.344 102.825 398.344 104.312C398.344 105.798 397.139 107.003 395.653 107.003Z" fill="#CBA400"/>
<path d="M408.85 50.1773C408.85 50.1773 408.85 52.6132 408.592 56.3876C407.947 65.8427 405.684 83.7021 397.753 92.7477C396.405 94.2859 394.893 95.5695 393.197 96.5132C391.352 97.5395 390.231 99.5088 390.231 101.62H395.519C395.519 99.5088 396.64 97.5397 398.485 96.5132C400.181 95.5695 401.693 94.2859 403.042 92.7477C410.972 83.7022 413.235 65.8427 413.88 56.3876C414.138 52.6132 414.138 50.1773 414.138 50.1773H408.85Z" fill="#DDB201"/>
<path d="M388.371 96.5129C372.718 87.804 372.718 50.1773 372.718 50.1773H368.863C368.863 50.1773 368.863 87.804 384.516 96.5129C386.361 97.5392 387.482 99.5085 387.482 101.62H390.231C390.231 100.744 390.426 99.8936 390.784 99.1239C390.28 98.0381 389.451 97.1135 388.371 96.5129Z" fill="#FEDA44"/>
<path d="M429.824 64.0885C429.656 49.7414 413.88 56.3873 413.88 56.3873C413.782 57.8341 413.645 59.478 413.456 61.2566C417.606 59.762 426.471 57.5616 425.227 66.6221C423.963 75.8171 419.953 82.1739 414.614 85.6021C411.641 87.5109 408.356 87.7809 406.459 87.7428C405.456 89.5924 404.323 91.2854 403.042 92.7473V92.7474C403.042 92.7474 409.75 93.9975 416.434 89.9756C422.658 86.2304 429.989 78.1892 429.824 64.0885Z" fill="#EEBF00"/>
<path d="M366.406 60.3248C367.57 60.5911 368.663 60.9395 369.544 61.2567C369.355 59.4781 369.218 57.8341 369.12 56.3874C369.12 56.3874 367.568 55.7349 365.434 55.2803C365.818 56.9511 366.182 58.6266 366.406 60.3248Z" fill="#CBA400"/>
<path d="M376.541 87.7429C375.584 87.7622 374.272 87.7022 372.826 87.3933C372.967 87.7828 373.11 88.1727 373.26 88.5606C373.947 90.0315 374.789 91.4561 375.645 92.8596C378.225 93.0697 379.958 92.7477 379.958 92.7477V92.7475C378.677 91.2856 377.544 89.5925 376.541 87.7429Z" fill="#CBA400"/>
<path d="M416.594 60.3248C415.43 60.5911 414.337 60.9395 413.456 61.2567C413.645 59.4781 413.781 57.8341 413.88 56.3874C413.88 56.3874 415.432 55.7349 417.566 55.2803C417.182 56.9511 416.818 58.6266 416.594 60.3248Z" fill="#CBA400"/>
<path d="M406.459 87.7429C407.417 87.7622 408.728 87.7022 410.175 87.3933C410.033 87.7828 409.89 88.1727 409.741 88.5606C409.053 90.0315 408.212 91.4561 407.355 92.8596C404.775 93.0697 403.042 92.7477 403.042 92.7477V92.7475C404.323 91.2856 405.456 89.5925 406.459 87.7429Z" fill="#CBA400"/>
<path d="M396.692 115.303H386.309V105.83H396.692V115.303ZM388.655 112.957H394.346V108.177H388.655V112.957Z" fill="black"/>
<path d="M395.653 108.176H387.348C385.217 108.176 383.483 106.443 383.483 104.311C383.483 102.18 385.217 100.446 387.348 100.446H395.653C397.784 100.446 399.518 102.18 399.518 104.311C399.518 106.443 397.784 108.176 395.653 108.176ZM387.348 102.793C386.511 102.793 385.83 103.474 385.83 104.312C385.83 105.149 386.511 105.83 387.348 105.83H395.653C396.49 105.83 397.172 105.149 397.172 104.312C397.172 103.474 396.49 102.793 395.653 102.793H387.348Z" fill="black"/>
<path d="M403.04 120.442H379.96V112.957H403.04V120.442ZM382.307 118.095H400.694V115.303H382.307V118.095Z" fill="black"/>
<path d="M409.305 127.996H373.696V118.095H409.305V127.996ZM376.042 125.65H406.959V120.442H376.042V125.65Z" fill="black"/>
<path d="M396.692 102.793H386.308V101.62C386.308 99.9132 385.403 98.3491 383.945 97.538C380.154 95.4285 376.943 91.5774 374.402 86.092C372.413 81.7993 370.82 76.4839 369.666 70.2943C367.712 59.8137 367.689 50.2723 367.689 50.1771V49.004H415.311L415.311 50.1773C415.311 50.2783 415.308 52.6963 415.051 56.4673C414.377 66.3341 412.036 84.2685 403.924 93.5209C402.438 95.2158 400.8 96.5676 399.055 97.5382C397.598 98.3493 396.692 99.9132 396.692 101.62L396.692 102.793ZM388.558 100.447H394.443C394.791 98.3593 396.055 96.5221 397.915 95.4877C399.423 94.6483 400.851 93.4661 402.159 91.9739C409.817 83.2401 412.056 65.879 412.71 56.3073C412.857 54.1424 412.92 52.413 412.946 51.3502H370.057C370.225 57.7182 371.73 88.0568 385.086 95.4875C386.945 96.5223 388.21 98.3593 388.558 100.447Z" fill="black"/>
<path d="M405.621 94.1046C405.62 94.1046 405.62 94.1046 405.62 94.1046C403.939 94.1044 402.872 93.9094 402.827 93.9009L400.801 93.5238L402.16 91.9742C403.326 90.6434 404.426 89.0316 405.428 87.1839L405.768 86.5556L406.483 86.5701C406.58 86.572 406.682 86.5731 406.786 86.5731C408.677 86.5731 411.46 86.2335 413.98 84.6152C419.348 81.1682 422.93 74.7215 424.064 66.4627C424.337 64.4798 424.096 63.0401 423.349 62.1834C422.699 61.4378 421.584 61.0598 420.037 61.0598C417.912 61.0598 415.501 61.7671 413.853 62.3607L412.091 62.9952L412.289 61.1331C412.459 59.5352 412.6 57.9117 412.71 56.3078L412.759 55.5871L413.425 55.3066C413.583 55.2399 417.337 53.6773 421.335 53.6773C427.487 53.6773 430.918 57.37 430.997 64.0751C431.074 70.6713 429.57 76.5429 426.526 81.5271C423.537 86.4206 419.717 89.3694 417.039 90.981C412.749 93.5624 408.462 94.1046 405.621 94.1046ZM405.329 91.7559C405.423 91.7574 405.52 91.7582 405.62 91.7582C405.62 91.7582 405.62 91.7582 405.621 91.7582C408.165 91.7582 412 91.2745 415.829 88.9707C419.744 86.6144 428.831 79.4746 428.651 64.1025C428.587 58.6662 426.194 56.0236 421.335 56.0236C418.737 56.0236 416.171 56.8068 414.997 57.22C414.939 58.0061 414.873 58.7954 414.801 59.5824C416.395 59.114 418.274 58.7131 420.037 58.7131C422.292 58.7131 424.002 59.3616 425.117 60.6409C426.33 62.0316 426.757 64.0976 426.389 66.7816C425.757 71.3798 424.437 75.444 422.465 78.861C420.582 82.1231 418.154 84.7234 415.248 86.5891C412.41 88.4118 409.34 88.8715 407.15 88.9154C406.571 89.933 405.963 90.8819 405.329 91.7559Z" fill="black"/>
<path d="M377.38 94.1046C374.538 94.1046 370.251 93.5625 365.961 90.981C363.283 89.3692 359.463 86.4206 356.474 81.527C353.43 76.5426 351.926 70.6709 352.003 64.0748C352.082 57.3698 355.513 53.677 361.665 53.677C365.663 53.677 369.417 55.2396 369.575 55.3062L370.241 55.5868L370.29 56.3073C370.4 57.9157 370.541 59.5391 370.711 61.1326L370.908 62.9948L369.147 62.3604C367.499 61.767 365.088 61.0597 362.963 61.0597C361.415 61.0597 360.301 61.4375 359.651 62.1831C358.904 63.0401 358.663 64.4796 358.936 66.4624C360.07 74.7212 363.651 81.1681 369.019 84.6149C371.54 86.2332 374.322 86.5728 376.213 86.5728C376.318 86.5728 376.42 86.5717 376.517 86.5698L377.232 86.5553L377.572 87.1836C378.574 89.0316 379.673 90.6434 380.84 91.9738L381.131 92.3056V92.7471C381.131 93.0524 381.016 93.7799 379.949 93.9366C379.777 93.9619 379.588 93.9853 379.386 94.006C378.756 94.0716 378.081 94.1046 377.38 94.1046ZM361.665 56.0234C356.806 56.0234 354.413 58.6661 354.349 64.1021C354.169 79.474 363.256 86.6141 367.171 88.9702C371 91.2742 374.836 91.7577 377.38 91.7577C377.48 91.7577 377.577 91.757 377.671 91.7554C377.037 90.8815 376.428 89.9326 375.85 88.9154C373.66 88.8715 370.59 88.4118 367.752 86.5891C364.846 84.723 362.418 82.1228 360.535 78.861C358.563 75.444 357.243 71.3799 356.611 66.7816C356.242 64.0975 356.67 62.0314 357.883 60.6409C358.998 59.3616 360.707 58.7133 362.963 58.7133C364.726 58.7133 366.605 59.114 368.199 59.5826C368.127 58.7966 368.061 58.0072 368.003 57.22C366.83 56.8068 364.263 56.0234 361.665 56.0234Z" fill="black"/>
<path d="M414.038 52.9497H368.863V55.2961H414.038V52.9497Z" fill="black"/>
<path d="M381.857 91.0273C381.108 90.223 380.389 89.3003 379.72 88.2845L381.68 86.9937C382.277 87.9005 382.914 88.7193 383.574 89.428L381.857 91.0273Z" fill="white"/>
<path d="M378.82 86.8118C376.983 83.5782 375.481 79.4378 374.356 74.5057L376.643 73.9839C377.718 78.6925 379.136 82.6183 380.86 85.6527L378.82 86.8118Z" fill="white"/>
<path d="M418.475 102.441L418.47 96.1325L416.124 96.1341L416.128 102.443L418.475 102.441Z" fill="black"/>
<path d="M420.458 100.459L420.456 98.1123L414.148 98.1164L414.149 100.463L420.458 100.459Z" fill="black"/>
<path d="M367.726 108.58H365.379V114.25H367.726V108.58Z" fill="black"/>
<path d="M369.388 110.242H363.718V112.588H369.388V110.242Z" fill="black"/>
<path d="M361.75 93.4621H359.537V95.8085H361.75V93.4621Z" fill="black"/>
<path d="M375.975 100.404H373.762V102.75H375.975V100.404Z" fill="black"/>
<path d="M411.65 107.463H409.437V109.809H411.65V107.463Z" fill="black"/>
</g>
</g>
<defs>
<clipPath id="clip0">
<rect x="352" y="49" width="79" height="79" fill="white"/>
</clipPath>
</defs>
</svg>
