<svg width="100" height="105" viewBox="0 0 100 105" fill="none" xmlns="http://www.w3.org/2000/svg">
<circle cx="50" cy="55" r="50" fill="#4FCF92"/>
<circle cx="50" cy="50" r="50" fill="#79FFBF"/>
<g style="mix-blend-mode:difference">
<circle cx="50" cy="50" r="45" fill="#6F9A4D"/>
</g>
<path d="M74 28.4071H65V26.576C65 25.2065 64.48 23.9191 63.5356 22.9507L60.7049 20.0483C60.8944 19.6402 60.9976 19.1915 60.9976 18.7249C60.9976 17.9016 60.6864 17.1292 60.1213 16.5498L56.5615 12.8994C55.3917 11.7003 53.4885 11.7001 52.3188 12.8994C51.1492 14.0988 51.1492 16.0503 52.3188 17.2497L55.8787 20.8999C56.4437 21.4794 57.1971 21.7985 58 21.7985C58.4551 21.7985 58.8927 21.6926 59.2907 21.4984L62.1213 24.4009C62.688 24.9819 63 25.7543 63 26.576V28.4071H36.3333V26.576C36.3333 25.7543 36.6453 24.9818 37.212 24.4009L40.0427 21.4984C40.4407 21.6926 40.8783 21.7985 41.3333 21.7985C42.1361 21.7985 42.8896 21.4794 43.4547 20.8999L47.0145 17.2499C48.1841 16.0506 48.1841 14.0991 47.0145 12.8996C45.8448 11.7001 43.9415 11.7001 42.7719 12.8996L39.212 16.5498C38.6469 17.1292 38.3357 17.9016 38.3357 18.7249C38.3357 19.1915 38.4389 19.6402 38.6284 20.0483L35.7977 22.9507C34.8533 23.9191 34.3333 25.2065 34.3333 26.576V28.4071H26C25.4477 28.4071 25 28.8662 25 29.4324V41.7369C25 42.3032 25.4477 42.7623 26 42.7623H33V75.8477H30C29.4477 75.8477 29 76.3069 29 76.8731V80.9746C29 81.5409 29.4477 82 30 82H70C70.5523 82 71 81.5409 71 80.9746V76.8731C71 76.3069 70.5523 75.8477 70 75.8477H67V42.7623H74C74.5523 42.7623 75 42.3032 75 41.7369V29.4324C75 28.8662 74.5523 28.4071 74 28.4071ZM58.7071 19.4499C58.5197 19.642 58.2687 19.7477 58 19.7477C57.7313 19.7477 57.4803 19.642 57.2929 19.4499L53.7331 15.7997C53.3432 15.4 53.3432 14.7493 53.7331 14.3496C54.1231 13.9498 54.7575 13.95 55.1472 14.3496L58.7071 17.9998C58.8944 18.1919 58.9976 18.4494 58.9976 18.7249C58.9976 19.0004 58.8944 19.2578 58.7071 19.4499ZM40.6263 17.9998L44.1861 14.3496C44.3811 14.1497 44.6372 14.0498 44.8933 14.0498C45.1493 14.0498 45.4055 14.1497 45.6004 14.3496C45.9903 14.7493 45.9904 15.4 45.6004 15.7997L42.0405 19.4499C41.8532 19.642 41.6021 19.7477 41.3335 19.7477C41.0648 19.7477 40.8137 19.642 40.6264 19.4498C40.4391 19.2577 40.3359 19.0003 40.3359 18.7248C40.3357 18.4494 40.4389 18.192 40.6263 17.9998ZM69 77.8985V79.9492H31V77.8985H38C38.5523 77.8985 39 77.4394 39 76.8731C39 76.3069 38.5523 75.8477 38 75.8477H35V42.7623H65V75.8477H42C41.4477 75.8477 41 76.3069 41 76.8731C41 77.4394 41.4477 77.8985 42 77.8985H69ZM73 40.7116H27V30.4578H73V35.5847V40.7116Z" fill="white" stroke="white" stroke-width="3"/>
</svg>
