<svg width="180" height="50" viewBox="0 0 180 50" fill="none" xmlns="http://www.w3.org/2000/svg">
<rect y="2.5641" width="180" height="44.8718" rx="10" fill="#37C45F"/>
<rect width="180" height="42.3077" rx="8" fill="#48FF7B"/>
<path d="M14.364 28.776L15.084 27.144C15.708 27.48 16.476 27.784 17.388 28.056C18.316 28.328 19.116 28.464 19.788 28.464C20.476 28.464 20.988 28.36 21.324 28.152C21.996 27.688 22.332 26.872 22.332 25.704C22.332 24.888 22.084 24.24 21.588 23.76C21.108 23.28 20.5 22.888 19.764 22.584C19.028 22.264 18.532 22.056 18.276 21.96C18.036 21.848 17.684 21.672 17.22 21.432C16.756 21.176 16.42 20.944 16.212 20.736C16.02 20.512 15.804 20.24 15.564 19.92C15.116 19.328 14.892 18.44 14.892 17.256C14.892 16.072 15.316 15.072 16.164 14.256C17.028 13.424 18.252 13.008 19.836 13.008C21.068 13.008 22.372 13.184 23.748 13.536L23.412 15.264C22.068 14.976 20.892 14.832 19.884 14.832C18.892 14.832 18.22 14.936 17.868 15.144C17.292 15.464 17.004 16.152 17.004 17.208C17.004 17.912 17.236 18.528 17.7 19.056C18.036 19.424 18.62 19.792 19.452 20.16C19.66 20.256 20.036 20.416 20.58 20.64C21.14 20.864 21.604 21.08 21.972 21.288C22.34 21.496 22.732 21.784 23.148 22.152C23.996 22.888 24.42 23.984 24.42 25.44C24.42 26.896 23.956 28.072 23.028 28.968C22.1 29.864 20.892 30.312 19.404 30.312C18.62 30.312 17.804 30.184 16.956 29.928C16.124 29.672 15.484 29.416 15.036 29.16L14.364 28.776ZM29.9098 11.928V30H27.9178L28.0378 22.296L27.9178 11.928H29.9098ZM29.9338 22.464L35.5018 16.032H38.0698L32.1418 22.344V22.464L38.5018 30H35.9098L29.9338 22.464ZM42.8329 30H40.8409V16.032H42.8329V30ZM43.0729 13.968H40.6249V11.928H43.0729V13.968ZM49.407 33.984H47.415V16.032H48.759L49.023 17.448H49.143C49.175 17.432 49.351 17.312 49.671 17.088C49.991 16.864 50.295 16.664 50.583 16.488C50.887 16.312 51.295 16.144 51.807 15.984C52.319 15.808 52.823 15.72 53.319 15.72C54.663 15.72 55.703 16.296 56.439 17.448C57.175 18.6 57.543 20.368 57.543 22.752C57.543 27.792 55.855 30.312 52.479 30.312C51.743 30.312 50.719 30.2 49.407 29.976V33.984ZM49.407 28.056C50.767 28.392 51.847 28.56 52.647 28.56C53.447 28.56 53.999 28.432 54.303 28.176C55.055 27.552 55.431 25.616 55.431 22.368C55.431 19.872 55.199 18.392 54.735 17.928C54.463 17.656 54.031 17.52 53.439 17.52C52.847 17.52 52.215 17.632 51.543 17.856C50.887 18.064 50.175 18.384 49.407 18.816V28.056ZM74.5772 30.048C73.9852 30.224 73.2572 30.312 72.3932 30.312C71.5452 30.312 70.7772 30.184 70.0892 29.928C69.4012 29.672 68.7612 29.232 68.1692 28.608C66.9532 27.344 66.3452 25.016 66.3452 21.624C66.3452 18.248 66.9532 15.936 68.1692 14.688C68.7612 14.08 69.4012 13.648 70.0892 13.392C70.7772 13.136 71.5772 13.008 72.4892 13.008C73.4012 13.008 74.2012 13.136 74.8892 13.392C75.5772 13.648 76.2172 14.08 76.8092 14.688C78.0252 15.936 78.6332 18.328 78.6332 21.864C78.6332 25.384 77.8172 27.8 76.1852 29.112V29.256L79.4732 30.336L78.6812 32.208L74.5772 30.048ZM70.1612 15.288C69.6332 15.592 69.2252 16.248 68.9372 17.256C68.6492 18.248 68.5052 19.608 68.5052 21.336C68.5052 23.064 68.5772 24.376 68.7212 25.272C68.8652 26.168 69.1132 26.856 69.4652 27.336C69.8332 27.8 70.2412 28.104 70.6892 28.248C71.1372 28.392 71.8012 28.464 72.6812 28.464C73.5612 28.464 74.2652 28.32 74.7932 28.032C75.9292 27.408 76.4972 25.296 76.4972 21.696C76.4972 18.064 75.9372 15.928 74.8172 15.288C74.2892 14.984 73.5132 14.832 72.4892 14.832C71.4652 14.832 70.6892 14.984 70.1612 15.288ZM90.5153 16.032H92.5073V30H91.1633L90.9233 28.656H90.8033C90.7873 28.656 90.5393 28.792 90.0593 29.064C89.5953 29.32 89.2113 29.52 88.9073 29.664C87.9313 30.096 87.0113 30.312 86.1473 30.312C83.8113 30.312 82.6433 28.648 82.6433 25.32V16.032H84.6353V24.624C84.6353 26.464 84.7393 27.568 84.9473 27.936C85.1713 28.288 85.6913 28.464 86.5073 28.464C87.3393 28.464 88.6753 28.04 90.5153 27.192V16.032ZM102.17 30.312C98.4579 30.312 96.6019 27.88 96.6019 23.016C96.6019 18.152 98.4419 15.72 102.122 15.72C103.754 15.72 104.978 16.232 105.794 17.256C106.61 18.264 107.018 19.944 107.018 22.296V23.784H98.7139C98.7139 25.944 99.0579 27.344 99.7459 27.984C100.178 28.368 100.77 28.56 101.522 28.56C102.866 28.56 104.186 28.336 105.482 27.888L106.13 27.648L106.634 29.28C105.29 29.968 103.802 30.312 102.17 30.312ZM104.426 18.168C104.106 17.688 103.322 17.448 102.074 17.448C100.826 17.448 99.9539 17.776 99.4579 18.432C98.9619 19.088 98.7139 20.344 98.7139 22.2L104.978 22.08C104.978 20.08 104.794 18.776 104.426 18.168ZM118.018 17.976C116.754 17.624 115.562 17.448 114.442 17.448C113.322 17.448 112.602 17.568 112.282 17.808C111.962 18.048 111.802 18.512 111.802 19.2C111.802 19.808 111.914 20.232 112.138 20.472C112.378 20.696 112.562 20.864 112.69 20.976C112.818 21.088 113.034 21.208 113.338 21.336C113.642 21.448 113.866 21.528 114.01 21.576C114.602 21.752 115.138 21.904 115.618 22.032C116.69 22.336 117.522 22.768 118.114 23.328C118.706 23.888 119.002 24.8 119.002 26.064C119.002 27.312 118.602 28.336 117.802 29.136C117.018 29.92 115.906 30.312 114.466 30.312C113.762 30.312 113.026 30.216 112.258 30.024C111.506 29.832 110.722 29.544 109.906 29.16L110.41 27.456C111.866 28.208 113.338 28.584 114.826 28.584C115.546 28.584 116.058 28.456 116.362 28.2C116.826 27.8 117.058 27.176 117.058 26.328C117.058 25.272 116.57 24.528 115.594 24.096C115.21 23.92 114.674 23.736 113.986 23.544C113.298 23.336 112.826 23.192 112.57 23.112C112.33 23.032 112.002 22.888 111.586 22.68C111.186 22.456 110.89 22.224 110.698 21.984C110.186 21.344 109.93 20.52 109.93 19.512C109.93 16.984 111.45 15.72 114.49 15.72C115.898 15.72 117.178 15.912 118.33 16.296L118.018 17.976ZM125.054 16.848H127.838V18.456H125.054V25.704C125.054 27.048 125.118 27.856 125.246 28.128C125.39 28.4 125.814 28.536 126.518 28.536L127.814 28.488V30.096C127.478 30.176 127.03 30.216 126.47 30.216C125.318 30.216 124.462 29.904 123.902 29.28C123.342 28.64 123.062 27.4 123.062 25.56V18.408H121.478V17.16L123.134 16.824L123.662 13.56H125.054V16.848ZM133.677 30H131.685V16.032H133.677V30ZM133.917 13.968H131.469V11.928H133.917V13.968ZM137.899 23.04C137.899 20.64 138.291 18.824 139.075 17.592C139.875 16.344 141.219 15.72 143.107 15.72C145.011 15.72 146.363 16.344 147.163 17.592C147.963 18.824 148.363 20.632 148.363 23.016C148.363 25.4 147.963 27.216 147.163 28.464C146.363 29.696 145.011 30.312 143.107 30.312C141.219 30.312 139.875 29.696 139.075 28.464C138.291 27.232 137.899 25.424 137.899 23.04ZM145.051 17.856C144.635 17.584 143.995 17.448 143.131 17.448C142.267 17.448 141.619 17.584 141.187 17.856C140.771 18.128 140.451 18.664 140.227 19.464C140.019 20.248 139.915 21.432 139.915 23.016C139.915 24.6 140.019 25.792 140.227 26.592C140.435 27.392 140.755 27.928 141.187 28.2C141.619 28.472 142.267 28.608 143.131 28.608C143.995 28.608 144.635 28.472 145.051 28.2C145.483 27.928 145.803 27.392 146.011 26.592C146.219 25.792 146.323 24.6 146.323 23.016C146.323 21.432 146.219 20.248 146.011 19.464C145.803 18.664 145.483 18.128 145.051 17.856ZM154.463 30H152.471V16.032H153.815L154.031 17.4H154.151C156.071 16.28 157.735 15.72 159.143 15.72C160.407 15.72 161.279 16.208 161.759 17.184C162.159 18 162.359 19.176 162.359 20.712V30H160.343V21.408C160.343 19.584 160.223 18.496 159.983 18.144C159.759 17.792 159.327 17.616 158.687 17.616C157.471 17.616 156.063 18.04 154.463 18.888V30Z" fill="black"/>
</svg>
