<svg width="200" height="50" viewBox="0 0 200 50" fill="none" xmlns="http://www.w3.org/2000/svg">
<rect y="3" width="180" height="44" rx="10" fill="#48FF7B"/>
<path d="M15.864 32.776L16.584 31.144C17.208 31.48 17.976 31.784 18.888 32.056C19.816 32.328 20.616 32.464 21.288 32.464C21.976 32.464 22.488 32.36 22.824 32.152C23.496 31.688 23.832 30.872 23.832 29.704C23.832 28.888 23.584 28.24 23.088 27.76C22.608 27.28 22 26.888 21.264 26.584C20.528 26.264 20.032 26.056 19.776 25.96C19.536 25.848 19.184 25.672 18.72 25.432C18.256 25.176 17.92 24.944 17.712 24.736C17.52 24.512 17.304 24.24 17.064 23.92C16.616 23.328 16.392 22.44 16.392 21.256C16.392 20.072 16.816 19.072 17.664 18.256C18.528 17.424 19.752 17.008 21.336 17.008C22.568 17.008 23.872 17.184 25.248 17.536L24.912 19.264C23.568 18.976 22.392 18.832 21.384 18.832C20.392 18.832 19.72 18.936 19.368 19.144C18.792 19.464 18.504 20.152 18.504 21.208C18.504 21.912 18.736 22.528 19.2 23.056C19.536 23.424 20.12 23.792 20.952 24.16C21.16 24.256 21.536 24.416 22.08 24.64C22.64 24.864 23.104 25.08 23.472 25.288C23.84 25.496 24.232 25.784 24.648 26.152C25.496 26.888 25.92 27.984 25.92 29.44C25.92 30.896 25.456 32.072 24.528 32.968C23.6 33.864 22.392 34.312 20.904 34.312C20.12 34.312 19.304 34.184 18.456 33.928C17.624 33.672 16.984 33.416 16.536 33.16L15.864 32.776ZM31.4098 15.928V34H29.4178L29.5378 26.296L29.4178 15.928H31.4098ZM31.4338 26.464L37.0018 20.032H39.5698L33.6418 26.344V26.464L40.0018 34H37.4098L31.4338 26.464ZM44.3329 34H42.3409V20.032H44.3329V34ZM44.5729 17.968H42.1249V15.928H44.5729V17.968ZM50.907 37.984H48.915V20.032H50.259L50.523 21.448H50.643C50.675 21.432 50.851 21.312 51.171 21.088C51.491 20.864 51.795 20.664 52.083 20.488C52.387 20.312 52.795 20.144 53.307 19.984C53.819 19.808 54.323 19.72 54.819 19.72C56.163 19.72 57.203 20.296 57.939 21.448C58.675 22.6 59.043 24.368 59.043 26.752C59.043 31.792 57.355 34.312 53.979 34.312C53.243 34.312 52.219 34.2 50.907 33.976V37.984ZM50.907 32.056C52.267 32.392 53.347 32.56 54.147 32.56C54.947 32.56 55.499 32.432 55.803 32.176C56.555 31.552 56.931 29.616 56.931 26.368C56.931 23.872 56.699 22.392 56.235 21.928C55.963 21.656 55.531 21.52 54.939 21.52C54.347 21.52 53.715 21.632 53.043 21.856C52.387 22.064 51.675 22.384 50.907 22.816V32.056ZM76.0772 34.048C75.4852 34.224 74.7572 34.312 73.8932 34.312C73.0452 34.312 72.2772 34.184 71.5892 33.928C70.9012 33.672 70.2612 33.232 69.6692 32.608C68.4532 31.344 67.8452 29.016 67.8452 25.624C67.8452 22.248 68.4532 19.936 69.6692 18.688C70.2612 18.08 70.9012 17.648 71.5892 17.392C72.2772 17.136 73.0772 17.008 73.9892 17.008C74.9012 17.008 75.7012 17.136 76.3892 17.392C77.0772 17.648 77.7172 18.08 78.3092 18.688C79.5252 19.936 80.1332 22.328 80.1332 25.864C80.1332 29.384 79.3172 31.8 77.6852 33.112V33.256L80.9732 34.336L80.1812 36.208L76.0772 34.048ZM71.6612 19.288C71.1332 19.592 70.7252 20.248 70.4372 21.256C70.1492 22.248 70.0052 23.608 70.0052 25.336C70.0052 27.064 70.0772 28.376 70.2212 29.272C70.3652 30.168 70.6132 30.856 70.9652 31.336C71.3332 31.8 71.7412 32.104 72.1892 32.248C72.6372 32.392 73.3012 32.464 74.1812 32.464C75.0612 32.464 75.7652 32.32 76.2932 32.032C77.4292 31.408 77.9972 29.296 77.9972 25.696C77.9972 22.064 77.4372 19.928 76.3172 19.288C75.7892 18.984 75.0132 18.832 73.9892 18.832C72.9652 18.832 72.1892 18.984 71.6612 19.288ZM92.0153 20.032H94.0073V34H92.6633L92.4233 32.656H92.3033C92.2873 32.656 92.0393 32.792 91.5593 33.064C91.0953 33.32 90.7113 33.52 90.4073 33.664C89.4313 34.096 88.5113 34.312 87.6473 34.312C85.3113 34.312 84.1433 32.648 84.1433 29.32V20.032H86.1353V28.624C86.1353 30.464 86.2393 31.568 86.4473 31.936C86.6713 32.288 87.1913 32.464 88.0073 32.464C88.8393 32.464 90.1753 32.04 92.0153 31.192V20.032ZM103.67 34.312C99.9579 34.312 98.1019 31.88 98.1019 27.016C98.1019 22.152 99.9419 19.72 103.622 19.72C105.254 19.72 106.478 20.232 107.294 21.256C108.11 22.264 108.518 23.944 108.518 26.296V27.784H100.214C100.214 29.944 100.558 31.344 101.246 31.984C101.678 32.368 102.27 32.56 103.022 32.56C104.366 32.56 105.686 32.336 106.982 31.888L107.63 31.648L108.134 33.28C106.79 33.968 105.302 34.312 103.67 34.312ZM105.926 22.168C105.606 21.688 104.822 21.448 103.574 21.448C102.326 21.448 101.454 21.776 100.958 22.432C100.462 23.088 100.214 24.344 100.214 26.2L106.478 26.08C106.478 24.08 106.294 22.776 105.926 22.168ZM119.518 21.976C118.254 21.624 117.062 21.448 115.942 21.448C114.822 21.448 114.102 21.568 113.782 21.808C113.462 22.048 113.302 22.512 113.302 23.2C113.302 23.808 113.414 24.232 113.638 24.472C113.878 24.696 114.062 24.864 114.19 24.976C114.318 25.088 114.534 25.208 114.838 25.336C115.142 25.448 115.366 25.528 115.51 25.576C116.102 25.752 116.638 25.904 117.118 26.032C118.19 26.336 119.022 26.768 119.614 27.328C120.206 27.888 120.502 28.8 120.502 30.064C120.502 31.312 120.102 32.336 119.302 33.136C118.518 33.92 117.406 34.312 115.966 34.312C115.262 34.312 114.526 34.216 113.758 34.024C113.006 33.832 112.222 33.544 111.406 33.16L111.91 31.456C113.366 32.208 114.838 32.584 116.326 32.584C117.046 32.584 117.558 32.456 117.862 32.2C118.326 31.8 118.558 31.176 118.558 30.328C118.558 29.272 118.07 28.528 117.094 28.096C116.71 27.92 116.174 27.736 115.486 27.544C114.798 27.336 114.326 27.192 114.07 27.112C113.83 27.032 113.502 26.888 113.086 26.68C112.686 26.456 112.39 26.224 112.198 25.984C111.686 25.344 111.43 24.52 111.43 23.512C111.43 20.984 112.95 19.72 115.99 19.72C117.398 19.72 118.678 19.912 119.83 20.296L119.518 21.976ZM126.554 20.848H129.338V22.456H126.554V29.704C126.554 31.048 126.618 31.856 126.746 32.128C126.89 32.4 127.314 32.536 128.018 32.536L129.314 32.488V34.096C128.978 34.176 128.53 34.216 127.97 34.216C126.818 34.216 125.962 33.904 125.402 33.28C124.842 32.64 124.562 31.4 124.562 29.56V22.408H122.978V21.16L124.634 20.824L125.162 17.56H126.554V20.848ZM135.177 34H133.185V20.032H135.177V34ZM135.417 17.968H132.969V15.928H135.417V17.968ZM139.399 27.04C139.399 24.64 139.791 22.824 140.575 21.592C141.375 20.344 142.719 19.72 144.607 19.72C146.511 19.72 147.863 20.344 148.663 21.592C149.463 22.824 149.863 24.632 149.863 27.016C149.863 29.4 149.463 31.216 148.663 32.464C147.863 33.696 146.511 34.312 144.607 34.312C142.719 34.312 141.375 33.696 140.575 32.464C139.791 31.232 139.399 29.424 139.399 27.04ZM146.551 21.856C146.135 21.584 145.495 21.448 144.631 21.448C143.767 21.448 143.119 21.584 142.687 21.856C142.271 22.128 141.951 22.664 141.727 23.464C141.519 24.248 141.415 25.432 141.415 27.016C141.415 28.6 141.519 29.792 141.727 30.592C141.935 31.392 142.255 31.928 142.687 32.2C143.119 32.472 143.767 32.608 144.631 32.608C145.495 32.608 146.135 32.472 146.551 32.2C146.983 31.928 147.303 31.392 147.511 30.592C147.719 29.792 147.823 28.6 147.823 27.016C147.823 25.432 147.719 24.248 147.511 23.464C147.303 22.664 146.983 22.128 146.551 21.856ZM155.963 34H153.971V20.032H155.315L155.531 21.4H155.651C157.571 20.28 159.235 19.72 160.643 19.72C161.907 19.72 162.779 20.208 163.259 21.184C163.659 22 163.859 23.176 163.859 24.712V34H161.843V25.408C161.843 23.584 161.723 22.496 161.483 22.144C161.259 21.792 160.827 21.616 160.187 21.616C158.971 21.616 157.563 22.04 155.963 22.888V34Z" fill="black"/>
</svg>
