<svg width="100" height="105" viewBox="0 0 100 105" fill="none" xmlns="http://www.w3.org/2000/svg">
<circle cx="50" cy="55" r="50" fill="#A6CF4F"/>
<circle cx="50" cy="50" r="50" fill="#FCFF79"/>
<g style="mix-blend-mode:difference">
<circle cx="50" cy="50" r="45" fill="#6F9A4D"/>
</g>
<path d="M62.5108 47.9297L70.1813 22.195C70.5533 20.9495 70.4062 19.5837 69.7776 18.4471C69.155 17.3214 68.1357 16.5143 66.9074 16.1746C66.4881 16.0589 66.0545 16 65.6186 16H34.3789C33.9425 16 33.5086 16.0589 33.0897 16.1749C31.8578 16.5158 30.8372 17.3264 30.2156 18.4574C29.588 19.5991 29.4462 20.9693 29.8265 22.2167L37.6346 47.8235C32.3487 51.6608 28.9042 57.8873 28.9042 64.9043C28.9042 76.5365 38.3677 86 50 86C61.6323 86 71.0958 76.5365 71.0958 64.9042C71.0958 57.9519 67.7145 51.7751 62.5108 47.9297ZM35.2042 21.3862H64.802L57.6865 45.2585C55.3034 44.3229 52.7106 43.8086 49.9997 43.8086C47.3463 43.8086 44.8066 44.3023 42.4654 45.2005L35.2042 21.3862ZM50 80.6138C41.3376 80.6138 34.2903 73.5665 34.2903 64.9042C34.2903 56.2418 41.3376 49.1945 50 49.1945C58.6624 49.1945 65.7097 56.2418 65.7097 64.9042C65.7097 73.5665 58.6624 80.6138 50 80.6138Z" fill="white" stroke="white"/>
<path d="M50.9472 55.0266C50.6496 55.0266 50.3787 55.0809 50.1623 55.2163L46.5893 57.3819C46.0477 57.7069 45.8041 58.2481 45.8041 58.8166C45.8041 59.6558 46.3456 60.495 47.1305 60.495C47.3202 60.495 47.5638 60.441 47.8074 60.2784L48.5923 59.7912V73.5695C48.5923 74.4356 49.6482 74.8689 50.704 74.8689C51.7597 74.8689 52.8153 74.4356 52.8153 73.5695V56.3531C52.8152 55.5411 51.8137 55.0266 50.9472 55.0266Z" fill="white"/>
</svg>
