<svg width="496" height="506" viewBox="0 0 496 506" fill="none" xmlns="http://www.w3.org/2000/svg">
<path d="M248 2C111 2 0 113 0 250C0 387 111 498 248 498C385 498 496 387 496 250C496 113 385 2 248 2ZM248 98C296.6 98 336 137.4 336 186C336 234.6 296.6 274 248 274C199.4 274 160 234.6 160 186C160 137.4 199.4 98 248 98ZM248 442C189.3 442 136.7 415.4 101.5 373.8C120.3 338.4 157.1 314 200 314C202.4 314 204.8 314.4 207.1 315.1C220.1 319.3 233.7 322 248 322C262.3 322 276 319.3 288.9 315.1C291.2 314.4 293.6 314 296 314C338.9 314 375.7 338.4 394.5 373.8C359.3 415.4 306.7 442 248 442Z" fill="#0D00FF"/>
</svg>
